STARTFONT 2.1
COMMENT
COMMENT Converted from OpenType font "CONSOLAB.TTF" by "otf2bdf 3.0".
COMMENT
FONT -FreeType-Consolas-Bold-R-Normal--100-120-600-600-P-445-ISO10646-1
SIZE 12 600 600
FONTBOUNDINGBOX 76 119 -13 -24
STARTPROPERTIES 19
FOUNDRY "FreeType"
FAMILY_NAME "Consolas"
WEIGHT_NAME "Bold"
SLANT "R"
SETWIDTH_NAME "Normal"
ADD_STYLE_NAME ""
PIXEL_SIZE 100
POINT_SIZE 120
RESOLUTION_X 600
RESOLUTION_Y 600
SPACING "P"
AVERAGE_WIDTH 445
CHARSET_REGISTRY "ISO10646"
CHARSET_ENCODING "1"
FONT_ASCENT 74
FONT_DESCENT 25
COPYRIGHT "© 2005 Microsoft Corporation. All Rights Reserved."
_OTF_FONTFILE "CONSOLAB.TTF"
_OTF_PSNAME "Consolas-Bold"
ENDPROPERTIES
CHARS 598
STARTCHAR 0020
ENCODING 32
SWIDTH 550 0
DWIDTH 55 0
BBX 0 0 0 0
BITMAP
ENDCHAR
STARTCHAR 0021
ENCODING 33
SWIDTH 550 0
DWIDTH 55 0
BBX 15 70 20 -1
BITMAP
7FFC
7FFC
7FFC
7FFC
7FFC
7FFC
7FFC
7FFC
7FFC
7FFC
7FFC
7FFC
7FFC
7FFC
7FFC
7FFC
7FFC
7FFC
7FFC
7FFC
7FFC
7FFC
7FFC
7FFC
7FFC
3FFC
3FF8
3FF8
3FF8
3FF8
3FF8
3FF8
3FF8
3FF8
3FF8
3FF8
3FF8
3FF8
3FF8
3FF8
3FF8
3FF8
3FF8
3FF8
3FF8
3FF8
3FF8
3FF8
3FF8
0000
0000
0000
0000
0000
0000
0FC0
1FF0
3FF8
7FFC
FFFE
FFFE
FFFE
FFFE
FFFE
FFFE
FFFE
7FFC
3FF8
1FF0
0FE0
ENDCHAR
STARTCHAR 0022
ENCODING 34
SWIDTH 550 0
DWIDTH 55 0
BBX 33 24 11 45
BITMAP
FFF80FFF80
FFF80FFF80
FFF80FFF80
FFF80FFF80
FFF80FFF80
FFF80FFF80
7FF007FF00
7FF007FF00
7FF007FF00
7FF007FF00
7FF007FF00
7FF007FF00
7FF007FF00
7FF007FF00
7FF007FF00
7FF007FF00
7FF007FF00
7FF007FF00
7FF007FF00
7FF007FF00
7FF007FF00
3FF003FE00
3FE003FE00
3FE003FE00
ENDCHAR
STARTCHAR 0023
ENCODING 35
SWIDTH 550 0
DWIDTH 55 0
BBX 51 64 2 0
BITMAP
0007FE003FF000
0007FE003FF000
0007FE003FF000
0007FE003FE000
0007FC003FE000
0007FC003FE000
0007FC003FE000
0007FC007FE000
000FFC007FE000
000FFC007FE000
000FFC007FE000
000FFC007FE000
000FFC007FE000
000FFC007FC000
000FF8007FC000
000FF8007FC000
1FFFFFFFFFFFE0
1FFFFFFFFFFFE0
1FFFFFFFFFFFE0
1FFFFFFFFFFFE0
1FFFFFFFFFFFE0
1FFFFFFFFFFFE0
1FFFFFFFFFFFE0
1FFFFFFFFFFFE0
001FF000FF8000
001FF000FF8000
001FF000FF8000
001FF001FF8000
003FF001FF8000
003FF001FF8000
003FF001FF8000
003FF001FF8000
003FF001FF8000
003FF001FF0000
003FE001FF0000
003FE001FF0000
003FE001FF0000
003FE003FF0000
FFFFFFFFFFFF00
FFFFFFFFFFFF00
FFFFFFFFFFFF00
FFFFFFFFFFFF00
FFFFFFFFFFFF00
FFFFFFFFFFFF00
FFFFFFFFFFFF00
FFFFFFFFFFFF00
FFFFFFFFFFFF00
007FC007FE0000
00FFC007FE0000
00FFC007FE0000
00FFC007FE0000
00FFC007FE0000
00FFC007FC0000
00FFC007FC0000
00FF8007FC0000
00FF8007FC0000
00FF800FFC0000
00FF800FFC0000
01FF800FFC0000
01FF800FFC0000
01FF800FFC0000
01FF800FFC0000
01FF800FF80000
01FF800FF80000
ENDCHAR
STARTCHAR 0024
ENCODING 36
SWIDTH 550 0
DWIDTH 55 0
BBX 46 86 4 -12
BITMAP
0000007F8000
000000FF8000
000000FF8000
000000FF8000
000000FF8000
000000FF0000
000000FF0000
000000FF0000
000001FF0000
000001FF0000
00000FFF0000
0001FFFFFC00
000FFFFFFFC0
003FFFFFFFC0
00FFFFFFFFC0
01FFFFFFFFC0
07FFFFFFFFC0
0FFFFFFFFFC0
0FFFFFFFFFC0
1FFFFFFFFFC0
3FFFF3FDFFC0
3FFF87FC07C0
7FFE07FC0040
7FFC07FC0000
7FFC07FC0000
7FF807F80000
7FF807F80000
FFF807F80000
FFF80FF80000
7FFC0FF80000
7FFE0FF80000
7FFF0FF80000
7FFF8FF00000
7FFFFFF00000
3FFFFFF00000
3FFFFFF00000
1FFFFFF00000
1FFFFFFE0000
0FFFFFFF8000
07FFFFFFF000
03FFFFFFFC00
00FFFFFFFE00
003FFFFFFF80
000FFFFFFFC0
0003FFFFFFE0
00007FFFFFF0
00003FFFFFF0
00003FFFFFF8
00007FFFFFF8
00007FCFFFFC
00007FC3FFFC
00007FC1FFFC
00007F80FFFC
00007F807FFC
00007F807FFC
0000FF807FFC
0000FF807FFC
0000FF807FFC
0000FF807FFC
0000FF007FFC
8000FF00FFF8
F801FF01FFF8
FF81FF07FFF8
FFFDFF7FFFF0
FFFFFFFFFFE0
FFFFFFFFFFE0
FFFFFFFFFFC0
FFFFFFFFFF80
FFFFFFFFFF00
FFFFFFFFFC00
FFFFFFFFF000
FFFFFFFFC000
0FFFFFFE0000
003FFFC00000
0003FC000000
0007FC000000
0007FC000000
0007FC000000
0007FC000000
0007F8000000
0007F8000000
0007F8000000
000FF8000000
000FF8000000
000FF8000000
000FF8000000
ENDCHAR
STARTCHAR 0025
ENCODING 37
SWIDTH 550 0
DWIDTH 55 0
BBX 55 71 0 -1
BITMAP
000FE000000000
007FFC000007FE
01FFFE00000FFC
03FFFF00000FF8
07FFFF80001FF8
0FFFFFC0003FF0
0FFFFFE0003FE0
1FFFFFE0007FE0
1FF03FE000FFC0
3FE03FF000FF80
3FE01FF001FF80
3FE01FF003FF00
3FC01FF003FE00
3FC01FF007FE00
3FC00FF00FFC00
3FC01FF00FF800
3FC01FF01FF800
3FC01FF03FF000
3FE01FF03FF000
3FE01FF07FE000
3FE03FE0FFC000
3FF03FE0FFC000
1FFFFFE1FF8000
1FFFFFC1FF0000
0FFFFFC3FF0000
0FFFFF87FE0000
07FFFF07FC0000
03FFFE0FFC0000
00FFF81FF80000
001FC01FF00000
0000003FF00000
0000007FE00000
0000007FC00000
000000FFC00000
000001FF800000
000001FF000000
000003FF000000
000007FE000000
000007FC000000
00000FFC000000
00001FF8000000
00001FF007F000
00003FF03FFE00
00007FE0FFFF80
00007FC1FFFFC0
0000FFC3FFFFE0
0001FF87FFFFE0
0001FF07FFFFF0
0003FF0FFFFFF0
0007FE0FF81FF8
0007FE0FF80FF8
000FFC1FF00FF8
001FF81FF00FF8
001FF81FF007F8
003FF01FF007F8
003FE01FF007F8
007FE01FF007F8
00FFC01FF007F8
00FF801FF007F8
01FF801FF00FF8
03FF001FF00FF8
03FE001FF80FF8
07FE000FF81FF0
0FFC000FFFFFF0
0FF8000FFFFFE0
1FF80007FFFFE0
3FF00003FFFFC0
3FE00001FFFF80
7FE00000FFFF00
FFC000007FFC00
000000000FE000
ENDCHAR
STARTCHAR 0026
ENCODING 38
SWIDTH 550 0
DWIDTH 55 0
BBX 54 70 2 -1
BITMAP
00000300000000
0000FFFC000000
0007FFFF000000
000FFFFFC00000
003FFFFFF00000
007FFFFFF80000
00FFFFFFFC0000
01FFFFFFFC0000
01FFFFFFFE0000
03FFFFFFFE0000
03FFE03FFF0000
07FFC01FFF0000
07FF800FFF0000
07FF0007FF8000
0FFF0007FF8000
0FFF0007FF8000
0FFF0007FF8000
0FFE0007FF8000
0FFF0007FF0000
0FFF0007FF0000
0FFF000FFF0000
07FF000FFF0000
07FF801FFE0000
07FFC03FFE0000
03FFC07FFC0000
03FFE1FFF80000
03FFF3FFF80000
01FFFFFFF00000
00FFFFFFE00000
00FFFFFF800000
007FFFFF000000
003FFFFC000000
001FFFF8000000
003FFFE0000000
007FFFC0000000
01FFFFE0000000
03FFFFF003FF80
07FFFFF803FF80
0FFFFFF803FF80
0FFFFFFC03FF80
1FFF7FFE03FF80
3FFE3FFF03FF80
3FFC1FFF83FF80
7FFC1FFF87FF00
7FF80FFFC7FF00
FFF007FFE7FF00
FFF003FFF7FF00
FFF001FFFFFF00
FFE000FFFFFE00
FFE000FFFFFE00
FFE0007FFFFE00
FFE0003FFFFC00
FFE0001FFFFC00
FFF0000FFFFC00
FFF0000FFFF800
FFF00007FFF800
FFF80003FFF000
FFFC0003FFF800
7FFE0007FFFC00
7FFF801FFFFE00
7FFFFFFFFFFE00
3FFFFFFFFFFF00
1FFFFFFFFFFF80
1FFFFFFFFFFFC0
0FFFFFFFFFFFE0
07FFFFFFF7FFF0
01FFFFFFC3FFF0
007FFFFF81FFF8
001FFFFC00FFFC
0003FFE0000000
ENDCHAR
STARTCHAR 0027
ENCODING 39
SWIDTH 550 0
DWIDTH 55 0
BBX 13 24 21 45
BITMAP
FFF8
FFF8
FFF8
FFF8
FFF8
FFF8
FFF8
FFF8
FFF8
FFF8
FFF8
7FF0
7FF0
7FF0
7FF0
7FF0
7FF0
7FF0
7FF0
7FF0
7FF0
7FF0
7FF0
7FF0
ENDCHAR
STARTCHAR 0028
ENCODING 40
SWIDTH 550 0
DWIDTH 55 0
BBX 31 93 13 -21
BITMAP
00000080
000001C0
000003E0
000007F0
00000FF8
00001FFC
00003FFE
00007FFE
0000FFF8
0001FFF0
0003FFE0
0007FFC0
000FFFC0
000FFF80
001FFF00
003FFE00
007FFC00
007FFC00
00FFF800
00FFF000
01FFF000
01FFE000
03FFC000
03FFC000
07FF8000
07FF8000
0FFF0000
0FFF0000
1FFE0000
1FFE0000
1FFE0000
3FFC0000
3FFC0000
3FFC0000
3FF80000
7FF80000
7FF80000
7FF80000
7FF80000
7FF00000
7FF00000
7FF00000
FFF00000
FFF00000
FFF00000
FFF00000
FFF00000
FFF00000
FFF00000
FFF00000
FFF00000
FFF00000
7FF00000
7FF00000
7FF80000
7FF80000
7FF80000
7FF80000
7FF80000
3FFC0000
3FFC0000
3FFC0000
3FFE0000
1FFE0000
1FFE0000
1FFF0000
0FFF0000
0FFF8000
07FF8000
07FFC000
07FFC000
03FFE000
03FFE000
01FFF000
00FFF800
00FFF800
007FFC00
007FFE00
003FFF00
001FFF00
000FFF80
000FFFC0
0007FFE0
0003FFF0
0001FFF8
0000FFFC
00007FFE
00003FFC
00001FF8
00000FF0
000007E0
000003C0
00000180
ENDCHAR
STARTCHAR 0029
ENCODING 41
SWIDTH 550 0
DWIDTH 55 0
BBX 31 93 11 -21
BITMAP
01000000
03800000
07C00000
0FE00000
1FF00000
3FF80000
7FFC0000
FFFE0000
7FFF0000
1FFF8000
0FFFC000
0FFFC000
07FFE000
03FFF000
01FFF800
00FFF800
007FFC00
007FFE00
003FFE00
001FFF00
001FFF00
000FFF80
0007FF80
0007FFC0
0003FFC0
0003FFE0
0001FFE0
0001FFF0
0000FFF0
0000FFF0
0000FFF8
00007FF8
00007FF8
00007FF8
00003FFC
00003FFC
00003FFC
00003FFC
00001FFC
00001FFC
00001FFE
00001FFE
00001FFE
00001FFE
00001FFE
00001FFE
00001FFE
00001FFE
00001FFE
00001FFE
00001FFE
00001FFE
00001FFE
00001FFC
00001FFC
00001FFC
00003FFC
00003FFC
00003FFC
00003FF8
00007FF8
00007FF8
00007FF8
0000FFF0
0000FFF0
0000FFF0
0001FFE0
0001FFE0
0003FFC0
0003FFC0
0007FFC0
0007FF80
000FFF80
000FFF00
001FFE00
003FFE00
003FFC00
007FFC00
00FFF800
01FFF000
03FFF000
07FFE000
07FFC000
0FFF8000
1FFF0000
3FFE0000
FFFC0000
7FFC0000
3FF80000
1FE00000
0FC00000
07800000
03000000
ENDCHAR
STARTCHAR 002A
ENCODING 42
SWIDTH 550 0
DWIDTH 55 0
BBX 41 42 7 27
BITMAP
0001FFC00000
0000FF800000
0000FF800000
0000FF800000
0000FF800000
0000FF800000
0800FF800800
0C00FF801800
1F00FF807C00
1F80FF80FC00
3FC0FF81FE00
7FF0FF87FE00
7FF87F0FFF00
FFFE7F3FFF80
FFFF7F7FFF80
7FFFFFFFFF00
1FFFFFFFFC00
07FFFFFFF000
00FFFFFF8000
003FFFFE0000
000FFFF80000
000FFFF80000
003FFFFE0000
00FFFFFF8000
03FFFFFFE000
0FFFFFFFF800
3FFFFFFFFE00
FFFF7F7FFF80
FFFE7F3FFF80
7FF87F0FFF00
7FF0FF87FF00
3FE0FF83FE00
1F80FF80FC00
1F00FF807C00
0C00FF801800
0800FF800800
0000FF800000
0000FF800000
0000FF800000
0000FF800000
0000FF800000
0001FFC00000
ENDCHAR
STARTCHAR 002B
ENCODING 43
SWIDTH 550 0
DWIDTH 55 0
BBX 47 47 4 3
BITMAP
00003FF80000
00003FF80000
00003FF80000
00003FF80000
00003FF80000
00003FF80000
00003FF80000
00003FF80000
00003FF80000
00003FF80000
00003FF80000
00003FF80000
00003FF80000
00003FF80000
00003FF80000
00003FF80000
00003FF80000
00003FF80000
00003FFFFFFE
FFFFFFFFFFFE
FFFFFFFFFFFE
FFFFFFFFFFFE
FFFFFFFFFFFE
FFFFFFFFFFFE
FFFFFFFFFFFE
FFFFFFFFFFFE
FFFFFFFFFFFE
FFFFFFFFFFFE
00003FF80000
00003FF80000
00003FF80000
00003FF80000
00003FF80000
00003FF80000
00003FF80000
00003FF80000
00003FF80000
00003FF80000
00003FF80000
00003FF80000
00003FF80000
00003FF80000
00003FF80000
00003FF80000
00003FF80000
00003FF80000
00003FF80000
ENDCHAR
STARTCHAR 002C
ENCODING 44
SWIDTH 550 0
DWIDTH 55 0
BBX 27 35 10 -17
BITMAP
0007F000
000FFC00
003FFE00
003FFF00
007FFF80
007FFF80
007FFFC0
007FFFC0
007FFFC0
007FFFC0
007FFFE0
007FFFE0
003FFFE0
001FFFE0
000FFFE0
0007FFE0
0007FFE0
0003FFC0
0003FFC0
0003FFC0
0003FFC0
0003FF80
0003FF80
0007FF00
000FFF00
001FFE00
00FFFC00
FFFFF800
FFFFF000
FFFFE000
FFFFC000
FFFF0000
FFFC0000
FFF00000
FF000000
ENDCHAR
STARTCHAR 002D
ENCODING 45
SWIDTH 550 0
DWIDTH 55 0
BBX 31 11 12 21
BITMAP
FFFFFFFE
FFFFFFFE
FFFFFFFE
FFFFFFFE
FFFFFFFE
FFFFFFFE
FFFFFFFE
FFFFFFFE
FFFFFFFE
FFFFFFFE
FFFFFFFE
ENDCHAR
STARTCHAR 002E
ENCODING 46
SWIDTH 550 0
DWIDTH 55 0
BBX 19 19 18 -1
BITMAP
03F000
0FFC00
1FFF00
3FFF80
7FFF80
7FFFC0
FFFFC0
FFFFE0
FFFFE0
FFFFE0
FFFFE0
FFFFE0
FFFFC0
7FFFC0
7FFF80
3FFF80
1FFF00
0FFE00
03F800
ENDCHAR
STARTCHAR 002F
ENCODING 47
SWIDTH 550 0
DWIDTH 55 0
BBX 45 79 4 -10
BITMAP
000000007FF8
000000007FF8
00000000FFF0
00000000FFF0
00000000FFE0
00000001FFE0
00000001FFC0
00000003FFC0
00000003FFC0
00000007FF80
00000007FF80
00000007FF00
0000000FFF00
0000000FFE00
0000001FFE00
0000001FFE00
0000003FFC00
0000003FFC00
0000003FF800
0000007FF800
0000007FF000
000000FFF000
000000FFF000
000001FFE000
000001FFE000
000001FFC000
000003FFC000
000003FF8000
000007FF8000
000007FF8000
00000FFF0000
00000FFF0000
00000FFE0000
00001FFE0000
00001FFC0000
00003FFC0000
00003FFC0000
00007FF80000
00007FF80000
00007FF00000
0000FFF00000
0000FFE00000
0001FFE00000
0001FFE00000
0003FFC00000
0003FFC00000
0003FF800000
0007FF800000
0007FF000000
000FFF000000
000FFF000000
001FFE000000
001FFE000000
001FFC000000
003FFC000000
003FF8000000
007FF8000000
007FF8000000
00FFF0000000
00FFF0000000
00FFE0000000
01FFE0000000
01FFC0000000
03FFC0000000
03FFC0000000
07FF80000000
07FF80000000
07FF00000000
0FFF00000000
0FFE00000000
1FFE00000000
1FFE00000000
3FFC00000000
3FFC00000000
3FF800000000
7FF800000000
7FF000000000
FFF000000000
FFF000000000
ENDCHAR
STARTCHAR 0030
ENCODING 48
SWIDTH 550 0
DWIDTH 55 0
BBX 49 66 3 -1
BITMAP
000007F8000000
0000FFFFC00000
0003FFFFF00000
000FFFFFFC0000
001FFFFFFE0000
007FFFFFFF0000
00FFFFFFFF8000
01FFFFFFFFC000
01FFFFFFFFE000
03FFFFFFFFF000
07FFF80FFFF000
07FFE003FFF800
0FFFC001FFF800
1FFF8000FFFC00
1FFF00007FFC00
1FFE00003FFE00
3FFE00003FFE00
3FFC00001FFE00
3FFC00001FFF00
7FFC00001FFF00
7FF800003FFF00
7FF800007FFF00
7FF80001FFFF80
FFF00003FFFF80
FFF0000FFFFF80
FFF0001FFFFF80
FFF0003FFFFF80
FFF000FFFFFF80
FFF001FFFFFF80
FFF007FFFFFF80
FFF00FFFF7FF80
FFF01FFFE7FF80
FFF07FFFC7FF80
FFF0FFFF07FF80
FFF1FFFE07FF80
FFF7FFFC07FF80
FFFFFFF007FF80
FFFFFFE007FF80
FFFFFF8007FF80
FFFFFF0007FF80
FFFFFE0007FF80
FFFFF80007FF80
FFFFF00007FF80
FFFFC0000FFF00
7FFF80000FFF00
7FFF00000FFF00
7FFC00000FFF00
7FFC00001FFF00
7FFC00001FFE00
3FFC00003FFE00
3FFE00003FFC00
3FFF00007FFC00
1FFF0000FFFC00
1FFF8000FFF800
0FFFC003FFF800
0FFFF007FFF000
07FFFFFFFFE000
03FFFFFFFFE000
03FFFFFFFFC000
01FFFFFFFF8000
00FFFFFFFF0000
007FFFFFFE0000
001FFFFFF80000
000FFFFFE00000
0001FFFF800000
00003FFC000000
ENDCHAR
STARTCHAR 0031
ENCODING 49
SWIDTH 550 0
DWIDTH 55 0
BBX 44 64 6 0
BITMAP
00001FFC0000
00007FFC0000
0001FFFC0000
0007FFFC0000
001FFFFC0000
007FFFFC0000
01FFFFFC0000
07FFFFFC0000
1FFFFFFC0000
7FFFFFFC0000
FFFFFFFC0000
FFFFFFFC0000
FFFFBFFC0000
7FFF3FFC0000
7FFC3FFC0000
3FF03FFC0000
3FC03FFC0000
3F003FFC0000
1E003FFC0000
18003FFC0000
00003FFC0000
00003FFC0000
00003FFC0000
00003FFC0000
00003FFC0000
00003FFC0000
00003FFC0000
00003FFC0000
00003FFC0000
00003FFC0000
00003FFC0000
00003FFC0000
00003FFC0000
00003FFC0000
00003FFC0000
00003FFC0000
00003FFC0000
00003FFC0000
00003FFC0000
00003FFC0000
00003FFC0000
00003FFC0000
00003FFC0000
00003FFC0000
00003FFC0000
00003FFC0000
00003FFC0000
00003FFC0000
00003FFC0000
00003FFC0000
00003FFC0000
00003FFC0000
00003FFC0000
7FFFFFFFFFF0
7FFFFFFFFFF0
7FFFFFFFFFF0
7FFFFFFFFFF0
7FFFFFFFFFF0
7FFFFFFFFFF0
7FFFFFFFFFF0
7FFFFFFFFFF0
7FFFFFFFFFF0
7FFFFFFFFFF0
7FFFFFFFFFF0
ENDCHAR
STARTCHAR 0032
ENCODING 50
SWIDTH 550 0
DWIDTH 55 0
BBX 44 65 6 0
BITMAP
0000FFC00000
000FFFFC0000
007FFFFF0000
01FFFFFFC000
07FFFFFFE000
0FFFFFFFF000
3FFFFFFFF800
7FFFFFFFFC00
FFFFFFFFFE00
7FFFFFFFFE00
7FFFFFFFFF00
3FFC01FFFF00
1FF0007FFF00
0FC0003FFF80
0780001FFF80
0700000FFF80
0200000FFF80
0000000FFF80
0000000FFF80
0000000FFF80
0000000FFF80
0000000FFF80
0000000FFF80
0000000FFF80
0000000FFF80
0000001FFF00
0000001FFF00
0000001FFF00
0000003FFE00
0000007FFE00
0000007FFC00
000000FFFC00
000001FFF800
000003FFF800
000003FFF000
000007FFE000
00000FFFC000
00001FFF8000
00003FFF8000
00007FFF0000
0000FFFE0000
0001FFFC0000
0003FFF80000
0007FFF00000
000FFFE00000
001FFFC00000
003FFF800000
007FFF000000
00FFFE000000
01FFF8000000
03FFF0000000
07FFE0000000
0FFFC0000000
1FFF80000000
3FFFFFFFFFF0
7FFFFFFFFFF0
FFFFFFFFFFF0
FFFFFFFFFFF0
FFFFFFFFFFF0
FFFFFFFFFFF0
FFFFFFFFFFF0
FFFFFFFFFFF0
FFFFFFFFFFF0
FFFFFFFFFFF0
FFFFFFFFFFF0
ENDCHAR
STARTCHAR 0033
ENCODING 51
SWIDTH 550 0
DWIDTH 55 0
BBX 43 66 7 -1
BITMAP
000FFF000000
03FFFFF00000
3FFFFFFE0000
7FFFFFFF8000
7FFFFFFFC000
7FFFFFFFE000
7FFFFFFFF000
7FFFFFFFF800
7FFFFFFFF800
7FFFFFFFFC00
7FE007FFFC00
7C0000FFFE00
4000007FFE00
0000003FFE00
0000003FFE00
0000001FFE00
0000001FFE00
0000001FFE00
0000001FFE00
0000001FFE00
0000001FFE00
0000003FFE00
0000003FFC00
0000007FFC00
0000007FF800
000001FFF800
000007FFF000
0003FFFFE000
01FFFFFFC000
01FFFFFF0000
01FFFFFE0000
01FFFFFE0000
01FFFFFFC000
01FFFFFFF000
01FFFFFFFC00
01FFFFFFFE00
01FFFFFFFF00
000001FFFF00
0000007FFF80
0000001FFFC0
0000000FFFC0
00000007FFC0
00000003FFE0
00000003FFE0
00000003FFE0
00000003FFE0
00000003FFE0
00000003FFE0
00000003FFE0
00000003FFC0
00000007FFC0
0000000FFFC0
0000000FFFC0
0000003FFF80
000000FFFF80
FC0007FFFF00
FFFFFFFFFF00
FFFFFFFFFE00
FFFFFFFFFC00
FFFFFFFFF800
FFFFFFFFF000
FFFFFFFFC000
FFFFFFFF0000
FFFFFFFC0000
FFFFFFE00000
0FFFF8000000
ENDCHAR
STARTCHAR 0034
ENCODING 52
SWIDTH 550 0
DWIDTH 55 0
BBX 51 64 2 0
BITMAP
0000007FFF8000
000000FFFF8000
000001FFFF8000
000001FFFF8000
000003FFFF8000
000003FFFF8000
000007FFFF8000
00000FFFFF8000
00000FFFFF8000
00001FFFFF8000
00003FFFFF8000
00003FFFFF8000
00007FFBFF8000
00007FFBFF8000
0000FFF3FF8000
0001FFE3FF8000
0001FFE3FF8000
0003FFC3FF8000
0003FF83FF8000
0007FF83FF8000
000FFF03FF8000
000FFF03FF8000
001FFE03FF8000
001FFC03FF8000
003FFC03FF8000
007FF803FF8000
007FF003FF8000
00FFF003FF8000
01FFE003FF8000
01FFE003FF8000
03FFC003FF8000
03FF8003FF8000
07FF8003FF8000
0FFF0003FF8000
0FFE0003FF8000
1FFE0003FF8000
1FFC0003FF8000
3FF80003FF8000
7FF80003FF8000
7FF00003FF8000
FFF00003FF8000
FFFFFFFFFFFFE0
FFFFFFFFFFFFE0
FFFFFFFFFFFFE0
FFFFFFFFFFFFE0
FFFFFFFFFFFFE0
FFFFFFFFFFFFE0
FFFFFFFFFFFFE0
FFFFFFFFFFFFE0
FFFFFFFFFFFFE0
FFFFFFFFFFFFE0
00000003FF8000
00000003FF8000
00000003FF8000
00000003FF8000
00000003FF8000
00000003FF8000
00000003FF8000
00000003FF8000
00000003FF8000
00000003FF8000
00000003FF8000
00000003FF8000
00000003FF8000
ENDCHAR
STARTCHAR 0035
ENCODING 53
SWIDTH 550 0
DWIDTH 55 0
BBX 41 65 8 -1
BITMAP
7FFFFFFFFC00
7FFFFFFFFC00
7FFFFFFFFC00
7FFFFFFFFC00
7FFFFFFFFC00
7FFFFFFFFC00
7FFFFFFFFC00
7FFFFFFFFC00
7FFFFFFFFC00
7FFFFFFFFC00
7FFFFFFFFC00
7FF000000000
7FF000000000
7FF000000000
7FF000000000
7FF000000000
7FF000000000
7FF000000000
7FF000000000
7FF000000000
7FF000000000
7FF000000000
7FF000000000
7FF000000000
7FFFE0000000
7FFFFFE00000
7FFFFFFC0000
7FFFFFFF0000
7FFFFFFFC000
7FFFFFFFE000
7FFFFFFFF000
7FFFFFFFF800
7FFFFFFFFC00
7FFFFFFFFE00
00003FFFFE00
000001FFFF00
0000007FFF00
0000003FFF00
0000001FFF80
0000001FFF80
0000000FFF80
0000000FFF80
0000000FFF80
0000000FFF80
0000000FFF80
0000000FFF80
0000000FFF80
0000000FFF80
0000000FFF80
0000001FFF00
0000003FFF00
0000007FFF00
000000FFFE00
000003FFFE00
FC001FFFFC00
FFFFFFFFF800
FFFFFFFFF000
FFFFFFFFE000
FFFFFFFFC000
FFFFFFFF8000
FFFFFFFE0000
FFFFFFFC0000
FFFFFFE00000
FFFFFF000000
07FFE0000000
ENDCHAR
STARTCHAR 0036
ENCODING 54
SWIDTH 550 0
DWIDTH 55 0
BBX 46 65 5 -1
BITMAP
0000001FFF80
000007FFFF80
00003FFFFF80
0000FFFFFF80
0003FFFFFF80
000FFFFFFF80
001FFFFFFF80
007FFFFFFF80
00FFFFFFFF80
01FFFFFFFF80
01FFFFF80000
03FFFE000000
07FFF8000000
07FFE0000000
0FFFC0000000
1FFF80000000
1FFF00000000
1FFE00000000
3FFE00000000
3FFC00000000
3FFC00000000
7FFC00000000
7FF800000000
7FF800000000
7FF807FC0000
7FF87FFFC000
FFFBFFFFF800
FFFFFFFFFE00
FFFFFFFFFF00
FFFFFFFFFF80
FFFFFFFFFFC0
FFFFFFFFFFE0
FFFFFFFFFFE0
FFFFFFFFFFF0
FFFFF01FFFF0
FFFF0007FFF8
FFFC0001FFF8
FFF00000FFF8
FFF00000FFFC
FFF800007FFC
FFF800007FFC
FFF800003FFC
FFF800003FFC
FFF800003FFC
FFF800003FFC
FFF800003FFC
7FF800003FFC
7FFC00007FFC
7FFC00007FFC
7FFC00007FFC
3FFE0000FFF8
3FFF0000FFF8
3FFF0001FFF0
1FFFC007FFF0
1FFFF01FFFE0
0FFFFFFFFFE0
0FFFFFFFFFC0
07FFFFFFFF80
03FFFFFFFF00
01FFFFFFFE00
00FFFFFFFC00
007FFFFFF800
001FFFFFE000
0007FFFF8000
00007FF80000
ENDCHAR
STARTCHAR 0037
ENCODING 55
SWIDTH 550 0
DWIDTH 55 0
BBX 45 64 5 0
BITMAP
FFFFFFFFFFF8
FFFFFFFFFFF8
FFFFFFFFFFF8
FFFFFFFFFFF8
FFFFFFFFFFF8
FFFFFFFFFFF8
FFFFFFFFFFF8
FFFFFFFFFFF8
FFFFFFFFFFF8
FFFFFFFFFFF8
FFFFFFFFFFF8
FFFFFFFFFFF0
00000003FFF0
00000003FFE0
00000007FFE0
00000007FFC0
0000000FFFC0
0000000FFF80
0000001FFF80
0000001FFF00
0000001FFF00
0000003FFE00
0000003FFE00
0000007FFC00
0000007FFC00
000000FFF800
000000FFF800
000001FFF000
000001FFF000
000003FFE000
000003FFE000
000007FFC000
000007FFC000
00000FFFC000
00000FFF8000
00001FFF8000
00001FFF0000
00003FFF0000
00003FFE0000
00007FFE0000
00007FFC0000
0000FFFC0000
0000FFF80000
0001FFF80000
0001FFF00000
0003FFF00000
0003FFE00000
0007FFE00000
0007FFC00000
000FFFC00000
000FFF800000
001FFF800000
001FFF000000
003FFF000000
003FFE000000
003FFE000000
007FFC000000
007FFC000000
00FFFC000000
00FFF8000000
01FFF8000000
01FFF0000000
03FFF0000000
03FFE0000000
ENDCHAR
STARTCHAR 0038
ENCODING 56
SWIDTH 550 0
DWIDTH 55 0
BBX 45 66 5 -1
BITMAP
00007FF00000
0007FFFF8000
001FFFFFE000
007FFFFFF800
01FFFFFFFE00
03FFFFFFFF00
07FFFFFFFF80
0FFFFFFFFF80
0FFFFFFFFFC0
1FFFF07FFFE0
1FFF0007FFE0
3FFE0003FFE0
3FFC0001FFE0
3FF80000FFF0
7FF80000FFF0
7FF80000FFF0
7FF80000FFF0
7FF80000FFF0
7FF80000FFE0
7FFC0001FFE0
3FFC0001FFE0
3FFE0003FFC0
3FFF0007FFC0
1FFFC00FFF80
1FFFF01FFF80
0FFFF83FFF00
0FFFFEFFFE00
07FFFFFFFC00
03FFFFFFF800
01FFFFFFF000
007FFFFFC000
003FFFFFC000
000FFFFFE000
001FFFFFF800
007FFFFFFC00
00FFFFFFFE00
03FFFFFFFF00
07FFFFFFFF80
0FFFE1FFFFC0
0FFFC07FFFE0
1FFF001FFFE0
3FFE000FFFF0
3FFC0003FFF0
7FFC0001FFF0
7FF80001FFF8
7FF80000FFF8
FFF000007FF8
FFF000007FF8
FFF000007FF8
FFF000007FF8
FFF000007FF8
FFF000007FF8
FFF80000FFF8
FFF80001FFF0
7FFC0003FFF0
7FFF0007FFF0
7FFFF8FFFFE0
3FFFFFFFFFC0
3FFFFFFFFFC0
1FFFFFFFFF80
0FFFFFFFFF00
07FFFFFFFE00
01FFFFFFF800
007FFFFFE000
001FFFFF8000
0001FFF80000
ENDCHAR
STARTCHAR 0039
ENCODING 57
SWIDTH 550 0
DWIDTH 55 0
BBX 46 65 4 0
BITMAP
00003FF00000
0003FFFF0000
001FFFFFC000
007FFFFFF000
00FFFFFFF800
01FFFFFFFE00
03FFFFFFFE00
07FFFFFFFF00
0FFFFFFFFF80
1FFFFFFFFFC0
3FFFE07FFFC0
3FFF800FFFE0
7FFE0007FFE0
7FFC0003FFF0
7FFC0001FFF0
FFF80001FFF0
FFF80000FFF0
FFF00000FFF8
FFF00000FFF8
FFF00000FFF8
FFF000007FF8
FFF000007FF8
FFF000007FFC
FFF000007FFC
FFF000007FFC
FFF800007FFC
FFF800007FFC
FFFC00007FFC
FFFE0000FFFC
7FFF0003FFFC
7FFFC01FFFFC
7FFFFFFFFFFC
3FFFFFFFFFFC
1FFFFFFFFFFC
1FFFFFFFFFFC
0FFFFFFFFFFC
07FFFFFFFFFC
01FFFFFFFFF8
00FFFFFF7FF8
001FFFFC7FF8
0001FFC07FF8
00000000FFF8
00000000FFF8
00000000FFF0
00000000FFF0
00000001FFF0
00000001FFE0
00000001FFE0
00000003FFE0
00000007FFC0
0000000FFFC0
0000001FFF80
0000007FFF80
000001FFFF00
00003FFFFE00
1FFFFFFFFE00
1FFFFFFFFC00
1FFFFFFFF800
1FFFFFFFE000
1FFFFFFFC000
1FFFFFFF8000
1FFFFFFE0000
1FFFFFF00000
1FFFFF800000
1FFFF0000000
ENDCHAR
STARTCHAR 003A
ENCODING 58
SWIDTH 550 0
DWIDTH 55 0
BBX 17 51 19 -1
BITMAP
07F000
1FFC00
3FFE00
7FFF00
7FFF00
FFFF80
FFFF80
FFFF80
FFFF80
FFFF80
FFFF80
FFFF80
7FFF00
7FFF00
3FFE00
1FFC00
0FF800
000000
000000
000000
000000
000000
000000
000000
000000
000000
000000
000000
000000
000000
000000
000000
000000
000000
0FF000
1FFC00
3FFE00
7FFF00
7FFF00
FFFF80
FFFF80
FFFF80
FFFF80
FFFF80
FFFF80
FFFF80
7FFF00
7FFF00
3FFE00
1FFC00
07F000
ENDCHAR
STARTCHAR 003B
ENCODING 59
SWIDTH 550 0
DWIDTH 55 0
BBX 26 67 11 -17
BITMAP
0007F000
001FFC00
003FFE00
007FFF00
007FFF00
00FFFF80
00FFFF80
00FFFF80
00FFFF80
00FFFF80
00FFFF80
00FFFF80
007FFF00
007FFF00
003FFE00
001FFC00
000FF800
00000000
00000000
00000000
00000000
00000000
00000000
00000000
00000000
00000000
00000000
00000000
00000000
00000000
00000000
00000000
0007F000
001FF800
003FFE00
007FFE00
007FFF00
00FFFF80
00FFFF80
00FFFF80
00FFFFC0
00FFFFC0
007FFFC0
007FFFC0
003FFFC0
001FFFC0
001FFFC0
000FFFC0
0007FFC0
0007FFC0
0003FFC0
0003FFC0
0003FF80
0003FF80
0007FF00
0007FF00
000FFE00
003FFE00
00FFFC00
FFFFF800
FFFFF000
FFFFE000
FFFFC000
FFFF0000
FFFC0000
FFE00000
FF000000
ENDCHAR
STARTCHAR 003C
ENCODING 60
SWIDTH 550 0
DWIDTH 55 0
BBX 40 55 5 -1
BITMAP
00000000C0
00000001E0
00000003F0
0000000FF8
0000001FFC
0000003FFE
0000007FFF
000000FFFF
000003FFFE
000007FFFC
00000FFFF8
00001FFFF0
00003FFFC0
0000FFFF80
0001FFFF00
0003FFFE00
0007FFF800
000FFFF000
001FFFE000
007FFFC000
00FFFF8000
01FFFE0000
03FFFC0000
07FFF80000
1FFFF00000
3FFFE00000
7FFF800000
FFFF800000
7FFFC00000
3FFFE00000
0FFFF00000
07FFF80000
03FFFE0000
01FFFF0000
00FFFF8000
003FFFC000
001FFFE000
000FFFF800
0007FFFC00
0003FFFE00
0000FFFF00
00007FFF80
00003FFFE0
00001FFFF0
00000FFFF8
000007FFFC
000001FFFE
000000FFFF
0000007FFE
0000003FFC
0000001FF8
00000007F0
00000003E0
00000001E0
00000000C0
ENDCHAR
STARTCHAR 003D
ENCODING 61
SWIDTH 550 0
DWIDTH 55 0
BBX 41 29 7 12
BITMAP
FFFFFFFFFF80
FFFFFFFFFF80
FFFFFFFFFF80
FFFFFFFFFF80
FFFFFFFFFF80
FFFFFFFFFF80
FFFFFFFFFF80
FFFFFFFFFF80
FFFFFFFFFF80
000000000000
000000000000
000000000000
000000000000
000000000000
000000000000
000000000000
000000000000
000000000000
000000000000
FFFFFFFFFF80
FFFFFFFFFF80
FFFFFFFFFF80
FFFFFFFFFF80
FFFFFFFFFF80
FFFFFFFFFF80
FFFFFFFFFF80
FFFFFFFFFF80
FFFFFFFFFF80
FFFFFFFFFF80
ENDCHAR
STARTCHAR 003E
ENCODING 62
SWIDTH 550 0
DWIDTH 55 0
BBX 40 55 10 -1
BITMAP
0300000000
0780000000
0FC0000000
1FF0000000
3FF8000000
7FFC000000
FFFE000000
FFFF000000
7FFFC00000
3FFFE00000
1FFFF00000
0FFFF80000
03FFFC0000
01FFFE0000
00FFFF8000
007FFFC000
003FFFE000
000FFFF000
0007FFF800
0003FFFE00
0001FFFF00
0000FFFF80
00003FFFC0
00001FFFE0
00000FFFF8
000007FFFC
000003FFFE
000000FFFF
000003FFFE
000007FFFC
00000FFFF0
00001FFFE0
00003FFFC0
0000FFFF80
0001FFFF00
0003FFFC00
0007FFF800
000FFFF000
003FFFE000
007FFFC000
00FFFF0000
01FFFE0000
07FFFC0000
0FFFF80000
1FFFF00000
3FFFE00000
7FFF800000
FFFF000000
7FFE000000
3FFC000000
1FF8000000
0FE0000000
07C0000000
0380000000
0300000000
ENDCHAR
STARTCHAR 003F
ENCODING 63
SWIDTH 550 0
DWIDTH 55 0
BBX 33 70 14 -1
BITMAP
FFC0000000
FFFE000000
FFFFC00000
FFFFF80000
FFFFFE0000
FFFFFF0000
FFFFFFC000
FFFFFFE000
FFFFFFF000
FFFFFFF800
FFFFFFF800
00FFFFFC00
000FFFFE00
0003FFFE00
0000FFFF00
00007FFF00
00003FFF00
00001FFF80
00001FFF80
00000FFF80
00000FFF80
00000FFF80
00000FFF80
00000FFF80
00000FFF80
00001FFF80
00001FFF80
00003FFF00
00003FFF00
0000FFFE00
0003FFFE00
0FFFFFFC00
0FFFFFFC00
0FFFFFF800
0FFFFFF000
0FFFFFE000
0FFFFF8000
0FFFFF0000
0FFFFC0000
0FFFC00000
0FFE000000
0FFE000000
0FFE000000
0FFE000000
0FFE000000
07FE000000
07FE000000
07FE000000
07FE000000
0000000000
0000000000
0000000000
0000000000
0000000000
0000000000
03FC000000
07FE000000
0FFF000000
1FFF800000
3FFF800000
3FFFC00000
3FFFC00000
3FFFC00000
3FFFC00000
3FFFC00000
1FFF800000
1FFF800000
0FFF000000
07FE000000
01F8000000
ENDCHAR
STARTCHAR 0040
ENCODING 64
SWIDTH 550 0
DWIDTH 55 0
BBX 55 91 0 -21
BITMAP
0000001FF80000
000001FFFF0000
000007FFFFC000
00000FFFFFF000
00003FFFFFF800
00007FFFFFFC00
0000FFFFFFFE00
0001FFFFFFFF00
0003FFFFFFFF00
0007FFE00FFF80
000FFF8003FFC0
000FFF0001FFC0
001FFE0000FFE0
003FFC00007FE0
003FF800007FE0
007FF000003FF0
00FFE000003FF0
00FFE000001FF0
01FFC000001FF8
01FF8000001FF8
03FF8000001FF8
03FF0000000FF8
03FF0000000FF8
07FE0000004FFC
07FE00FFCFCFFC
07FE03FFFFCFFC
0FFC07FFFFCFFC
0FFC0FFFFFC7FC
0FFC1FFFFFC7FC
1FF83FFFFF87FC
1FF83FFFFF87FC
1FF87FFFFF87FC
1FF07FFFFF87FC
3FF0FFE1FF87FC
3FF0FFC1FF87FC
3FF0FFC1FF87FE
3FF1FFC1FF87FC
3FE1FF81FF87FC
7FE1FF81FF87FC
7FE1FF83FF07FC
7FE3FF03FF07FC
7FE3FF03FF07FC
7FE3FF03FF07FC
7FC3FF03FF07FC
7FC3FF03FF07FC
7FC3FF03FF07FC
7FC3FF03FF07FC
7FC3FF03FF07FC
7FC3FF03FF0FFC
FFC3FF03FE0FFC
FFC3FF07FE0FF8
FFC3FF07FE0FF8
FFC3FF07FE0FF8
FFC3FF07FE0FF8
FFC3FF07FE1FF8
7FC3FF0FFE1FF0
7FC3FF0FFE1FF0
7FC3FF1FFE3FF0
7FC3FFBFFF7FE0
7FC3FFFFFFFFE0
7FC1FFFFFFFFC0
7FC1FFFFFFFFC0
7FE1FFFFFFFF80
7FE0FFFEFFFF80
7FE07FFC7FFF00
7FE07FF83FFC00
7FE01FF01FF800
3FF00780038000
3FF00000000000
3FF00000000000
3FF80000000000
1FF80000000000
1FF80000000000
1FFC0000000000
1FFC0000000000
0FFE0000000000
0FFF0000000000
07FF0000000000
07FF800000C000
03FFE00003C000
03FFF0001FC000
01FFFE01FFC000
00FFFFFFFFC000
00FFFFFFFFC000
007FFFFFFFC000
003FFFFFFFC000
000FFFFFFFC000
0007FFFFFF0000
0001FFFFFC0000
00003FFFC00000
00000040000000
ENDCHAR
STARTCHAR 0041
ENCODING 65
SWIDTH 550 0
DWIDTH 55 0
BBX 55 64 0 0
BITMAP
00001FFFF00000
00001FFFF00000
00003FFFF80000
00003FFFF80000
00003FFFF80000
00007FFFF80000
00007FFFFC0000
00007FFFFC0000
00007FFFFC0000
0000FFFFFE0000
0000FFFFFE0000
0000FFFFFE0000
0001FFFFFF0000
0001FFFFFF0000
0001FFCFFF0000
0001FFCFFF0000
0003FFCFFF8000
0003FF87FF8000
0003FF87FF8000
0007FF87FFC000
0007FF87FFC000
0007FF03FFC000
000FFF03FFC000
000FFF03FFE000
000FFE01FFE000
000FFE01FFE000
001FFE01FFF000
001FFE01FFF000
001FFC00FFF000
003FFC00FFF800
003FFC00FFF800
003FF800FFF800
003FF8007FF800
007FF8007FFC00
007FF8007FFC00
007FF0003FFC00
00FFF0003FFE00
00FFF0003FFE00
00FFE0003FFE00
01FFE0001FFF00
01FFE0001FFF00
01FFE0001FFF00
01FFFFFFFFFF00
03FFFFFFFFFF80
03FFFFFFFFFF80
03FFFFFFFFFF80
07FFFFFFFFFFC0
07FFFFFFFFFFC0
07FFFFFFFFFFC0
0FFFFFFFFFFFC0
0FFFFFFFFFFFE0
0FFF000003FFE0
0FFE000003FFE0
1FFE000001FFF0
1FFE000001FFF0
1FFE000001FFF0
3FFC000001FFF8
3FFC000000FFF8
3FFC000000FFF8
3FF8000000FFF8
7FF80000007FFC
7FF80000007FFC
7FF80000007FFC
FFF00000007FFE
ENDCHAR
STARTCHAR 0042
ENCODING 66
SWIDTH 550 0
DWIDTH 55 0
BBX 45 64 6 0
BITMAP
FFFFFFC00000
FFFFFFFF0000
FFFFFFFFC000
FFFFFFFFF000
FFFFFFFFFC00
FFFFFFFFFE00
FFFFFFFFFF00
FFFFFFFFFF80
FFFFFFFFFF80
FFFFFFFFFFC0
FFF0007FFFC0
FFF0001FFFC0
FFF0000FFFC0
FFF00007FFE0
FFF00003FFE0
FFF00003FFE0
FFF00003FFE0
FFF00003FFE0
FFF00003FFC0
FFF00003FFC0
FFF00003FFC0
FFF00007FFC0
FFF00007FF80
FFF0000FFF80
FFF0001FFF00
FFF0007FFF00
FFF007FFFE00
FFFFFFFFFC00
FFFFFFFFF000
FFFFFFFFE000
FFFFFFFFE000
FFFFFFFFFC00
FFFFFFFFFE00
FFFFFFFFFF80
FFFFFFFFFFC0
FFFFFFFFFFC0
FFF0003FFFE0
FFF0000FFFF0
FFF00003FFF0
FFF00001FFF0
FFF00001FFF8
FFF00000FFF8
FFF00000FFF8
FFF00000FFF8
FFF00000FFF8
FFF00000FFF8
FFF00000FFF8
FFF00000FFF8
FFF00001FFF8
FFF00001FFF8
FFF00003FFF0
FFF00007FFF0
FFF0000FFFF0
FFF0007FFFE0
FFFFFFFFFFE0
FFFFFFFFFFC0
FFFFFFFFFF80
FFFFFFFFFF00
FFFFFFFFFE00
FFFFFFFFFC00
FFFFFFFFF800
FFFFFFFFC000
FFFFFFFF0000
FFFFFFE00000
ENDCHAR
STARTCHAR 0043
ENCODING 67
SWIDTH 550 0
DWIDTH 55 0
BBX 45 66 4 -1
BITMAP
0000003FE000
00000FFFFF80
00007FFFFFF8
0001FFFFFFF8
0007FFFFFFF8
000FFFFFFFF8
001FFFFFFFF8
003FFFFFFFF8
007FFFFFFFF8
00FFFFFFFFF8
01FFFFFFFFF8
03FFFF800FF8
07FFFE0000F8
07FFF8000018
0FFFF0000000
0FFFE0000000
1FFFC0000000
1FFF80000000
3FFF00000000
3FFF00000000
3FFE00000000
7FFE00000000
7FFE00000000
7FFC00000000
7FFC00000000
7FFC00000000
FFFC00000000
FFFC00000000
FFF800000000
FFF800000000
FFF800000000
FFF800000000
FFF800000000
FFF800000000
FFF800000000
FFF800000000
FFF800000000
FFF800000000
FFF800000000
FFFC00000000
FFFC00000000
FFFC00000000
7FFC00000000
7FFC00000000
7FFE00000000
7FFE00000000
7FFF00000000
3FFF00000000
3FFF80000000
3FFF80000000
1FFFC0000000
1FFFE0000000
0FFFF8000038
0FFFFC0001F8
07FFFF801FF8
03FFFFFFFFF8
03FFFFFFFFF8
01FFFFFFFFF8
00FFFFFFFFF8
007FFFFFFFF8
003FFFFFFFF8
000FFFFFFFF8
0007FFFFFFF8
0001FFFFFFC0
00003FFFFE00
000001FFC000
ENDCHAR
STARTCHAR 0044
ENCODING 68
SWIDTH 550 0
DWIDTH 55 0
BBX 48 64 4 0
BITMAP
FFFFFF000000
FFFFFFFC0000
FFFFFFFF8000
FFFFFFFFE000
FFFFFFFFF800
FFFFFFFFFE00
FFFFFFFFFF00
FFFFFFFFFF80
FFFFFFFFFFC0
FFFFFFFFFFE0
FFF003FFFFE0
FFF0003FFFF0
FFF0000FFFF8
FFF00003FFF8
FFF00001FFFC
FFF00001FFFC
FFF00000FFFC
FFF000007FFE
FFF000007FFE
FFF000003FFE
FFF000003FFE
FFF000003FFF
FFF000001FFF
FFF000001FFF
FFF000001FFF
FFF000001FFF
FFF000001FFF
FFF000001FFF
FFF000001FFF
FFF000001FFF
FFF000001FFF
FFF000001FFF
FFF000001FFF
FFF000001FFF
FFF000001FFF
FFF000001FFF
FFF000001FFF
FFF000001FFF
FFF000001FFF
FFF000001FFF
FFF000001FFF
FFF000003FFE
FFF000003FFE
FFF000003FFE
FFF000007FFE
FFF000007FFC
FFF00000FFFC
FFF00000FFFC
FFF00001FFF8
FFF00003FFF8
FFF00007FFF0
FFF0000FFFF0
FFF0003FFFE0
FFF003FFFFC0
FFFFFFFFFF80
FFFFFFFFFF00
FFFFFFFFFE00
FFFFFFFFFC00
FFFFFFFFF800
FFFFFFFFE000
FFFFFFFFC000
FFFFFFFE0000
FFFFFFF00000
FFFFFF000000
ENDCHAR
STARTCHAR 0045
ENCODING 69
SWIDTH 550 0
DWIDTH 55 0
BBX 38 64 9 0
BITMAP
FFFFFFFFFC
FFFFFFFFFC
FFFFFFFFFC
FFFFFFFFFC
FFFFFFFFFC
FFFFFFFFFC
FFFFFFFFFC
FFFFFFFFFC
FFFFFFFFFC
FFFFFFFFFC
FFF0000000
FFF0000000
FFF0000000
FFF0000000
FFF0000000
FFF0000000
FFF0000000
FFF0000000
FFF0000000
FFF0000000
FFF0000000
FFF0000000
FFF0000000
FFF0000000
FFF0000000
FFF0000000
FFFFFFFFF8
FFFFFFFFF8
FFFFFFFFF8
FFFFFFFFF8
FFFFFFFFF8
FFFFFFFFF8
FFFFFFFFF8
FFFFFFFFF8
FFFFFFFFF8
FFFFFFFFF8
FFF0000000
FFF0000000
FFF0000000
FFF0000000
FFF0000000
FFF0000000
FFF0000000
FFF0000000
FFF0000000
FFF0000000
FFF0000000
FFF0000000
FFF0000000
FFF0000000
FFF0000000
FFF0000000
FFF0000000
FFF0000000
FFFFFFFFFC
FFFFFFFFFC
FFFFFFFFFC
FFFFFFFFFC
FFFFFFFFFC
FFFFFFFFFC
FFFFFFFFFC
FFFFFFFFFC
FFFFFFFFFC
FFFFFFFFFC
ENDCHAR
STARTCHAR 0046
ENCODING 70
SWIDTH 550 0
DWIDTH 55 0
BBX 38 64 9 0
BITMAP
FFFFFFFFFC
FFFFFFFFFC
FFFFFFFFFC
FFFFFFFFFC
FFFFFFFFFC
FFFFFFFFFC
FFFFFFFFFC
FFFFFFFFFC
FFFFFFFFFC
FFFFFFFFFC
FFF0000000
FFF0000000
FFF0000000
FFF0000000
FFF0000000
FFF0000000
FFF0000000
FFF0000000
FFF0000000
FFF0000000
FFF0000000
FFF0000000
FFF0000000
FFF0000000
FFF0000000
FFF0000000
FFF0000000
FFF0000000
FFFFFFFFF0
FFFFFFFFF0
FFFFFFFFF0
FFFFFFFFF0
FFFFFFFFF0
FFFFFFFFF0
FFFFFFFFF0
FFFFFFFFF0
FFFFFFFFF0
FFFFFFFFF0
FFF0000000
FFF0000000
FFF0000000
FFF0000000
FFF0000000
FFF0000000
FFF0000000
FFF0000000
FFF0000000
FFF0000000
FFF0000000
FFF0000000
FFF0000000
FFF0000000
FFF0000000
FFF0000000
FFF0000000
FFF0000000
FFF0000000
FFF0000000
FFF0000000
FFF0000000
FFF0000000
FFF0000000
FFF0000000
FFF0000000
ENDCHAR
STARTCHAR 0047
ENCODING 71
SWIDTH 550 0
DWIDTH 55 0
BBX 48 66 2 -1
BITMAP
0000003FF800
000007FFFFE0
00003FFFFFFE
0000FFFFFFFF
0003FFFFFFFF
000FFFFFFFFF
001FFFFFFFFF
003FFFFFFFFF
007FFFFFFFFF
00FFFFFFFFFF
01FFFFFFFFFF
03FFFFC003FF
03FFFE00003F
07FFFC000007
07FFF0000000
0FFFE0000000
0FFFC0000000
1FFF80000000
1FFF80000000
3FFF00000000
3FFF00000000
3FFE00000000
3FFE00000000
7FFC00000000
7FFC00000000
7FFC00000000
7FFC00000000
7FFC00000000
7FF8003FFFFF
FFF8003FFFFF
FFF8003FFFFF
FFF8003FFFFF
FFF8003FFFFF
FFF8003FFFFF
FFF8003FFFFF
FFF8003FFFFF
FFF8003FFFFF
FFF8003FFFFF
FFF8000007FF
7FF8000007FF
7FFC000007FF
7FFC000007FF
7FFC000007FF
7FFC000007FF
7FFE000007FF
3FFE000007FF
3FFE000007FF
3FFF000007FF
3FFF000007FF
1FFF800007FF
1FFFC00007FF
0FFFE00007FF
0FFFF00007FF
07FFFC0007FF
07FFFF000FFF
03FFFFFFFFFF
01FFFFFFFFFF
00FFFFFFFFFF
00FFFFFFFFFF
007FFFFFFFFF
001FFFFFFFFF
000FFFFFFFFF
0003FFFFFFFF
0000FFFFFFF8
00003FFFFFC0
000003FFF800
ENDCHAR
STARTCHAR 0048
ENCODING 72
SWIDTH 550 0
DWIDTH 55 0
BBX 45 64 5 0
BITMAP
FFF000007FF8
FFF000007FF8
FFF000007FF8
FFF000007FF8
FFF000007FF8
FFF000007FF8
FFF000007FF8
FFF000007FF8
FFF000007FF8
FFF000007FF8
FFF000007FF8
FFF000007FF8
FFF000007FF8
FFF000007FF8
FFF000007FF8
FFF000007FF8
FFF000007FF8
FFF000007FF8
FFF000007FF8
FFF000007FF8
FFF000007FF8
FFF000007FF8
FFF000007FF8
FFF000007FF8
FFF000007FF8
FFF000007FF8
FFFFFFFFFFF8
FFFFFFFFFFF8
FFFFFFFFFFF8
FFFFFFFFFFF8
FFFFFFFFFFF8
FFFFFFFFFFF8
FFFFFFFFFFF8
FFFFFFFFFFF8
FFFFFFFFFFF8
FFFFFFFFFFF8
FFF000007FF8
FFF000007FF8
FFF000007FF8
FFF000007FF8
FFF000007FF8
FFF000007FF8
FFF000007FF8
FFF000007FF8
FFF000007FF8
FFF000007FF8
FFF000007FF8
FFF000007FF8
FFF000007FF8
FFF000007FF8
FFF000007FF8
FFF000007FF8
FFF000007FF8
FFF000007FF8
FFF000007FF8
FFF000007FF8
FFF000007FF8
FFF000007FF8
FFF000007FF8
FFF000007FF8
FFF000007FF8
FFF000007FF8
FFF000007FF8
FFF000007FF8
ENDCHAR
STARTCHAR 0049
ENCODING 73
SWIDTH 550 0
DWIDTH 55 0
BBX 41 64 7 0
BITMAP
FFFFFFFFFF80
FFFFFFFFFF80
FFFFFFFFFF80
FFFFFFFFFF80
FFFFFFFFFF80
FFFFFFFFFF80
FFFFFFFFFF80
FFFFFFFFFF80
FFFFFFFFFF80
FFFFFFFFFF80
0003FFE00000
0003FFE00000
0003FFE00000
0003FFE00000
0003FFE00000
0003FFE00000
0003FFE00000
0003FFE00000
0003FFE00000
0003FFE00000
0003FFE00000
0003FFE00000
0003FFE00000
0003FFE00000
0003FFE00000
0003FFE00000
0003FFE00000
0003FFE00000
0003FFE00000
0003FFE00000
0003FFE00000
0003FFE00000
0003FFE00000
0003FFE00000
0003FFE00000
0003FFE00000
0003FFE00000
0003FFE00000
0003FFE00000
0003FFE00000
0003FFE00000
0003FFE00000
0003FFE00000
0003FFE00000
0003FFE00000
0003FFE00000
0003FFE00000
0003FFE00000
0003FFE00000
0003FFE00000
0003FFE00000
0003FFE00000
0003FFE00000
0003FFE00000
FFFFFFFFFF80
FFFFFFFFFF80
FFFFFFFFFF80
FFFFFFFFFF80
FFFFFFFFFF80
FFFFFFFFFF80
FFFFFFFFFF80
FFFFFFFFFF80
FFFFFFFFFF80
FFFFFFFFFF80
ENDCHAR
STARTCHAR 004A
ENCODING 74
SWIDTH 550 0
DWIDTH 55 0
BBX 36 65 8 -1
BITMAP
7FFFFFFFF0
7FFFFFFFF0
7FFFFFFFF0
7FFFFFFFF0
7FFFFFFFF0
7FFFFFFFF0
7FFFFFFFF0
7FFFFFFFF0
7FFFFFFFF0
7FFFFFFFF0
000000FFF0
000000FFF0
000000FFF0
000000FFF0
000000FFF0
000000FFF0
000000FFF0
000000FFF0
000000FFF0
000000FFF0
000000FFF0
000000FFF0
000000FFF0
000000FFF0
000000FFF0
000000FFF0
000000FFF0
000000FFF0
000000FFF0
000000FFF0
000000FFF0
000000FFF0
000000FFF0
000000FFF0
000000FFF0
000000FFF0
000000FFF0
000000FFF0
000000FFF0
000000FFF0
000000FFF0
000000FFF0
000000FFF0
000000FFF0
000000FFF0
000000FFF0
000000FFF0
000001FFF0
000001FFF0
000001FFF0
800003FFF0
C00003FFE0
F00007FFE0
FE001FFFE0
FFC07FFFC0
FFFFFFFFC0
FFFFFFFF80
FFFFFFFF00
FFFFFFFF00
FFFFFFFE00
FFFFFFF800
FFFFFFF000
3FFFFFC000
07FFFF0000
007FF00000
ENDCHAR
STARTCHAR 004B
ENCODING 75
SWIDTH 550 0
DWIDTH 55 0
BBX 47 64 6 0
BITMAP
FFF80001FFFC
FFF80001FFF8
FFF80003FFF0
FFF80007FFF0
FFF80007FFE0
FFF8000FFFC0
FFF8001FFFC0
FFF8001FFF80
FFF8003FFF00
FFF8007FFE00
FFF8007FFE00
FFF800FFFC00
FFF801FFF800
FFF801FFF800
FFF803FFF000
FFF803FFE000
FFF807FFC000
FFF80FFFC000
FFF80FFF8000
FFF81FFF0000
FFF83FFF0000
FFF83FFE0000
FFF87FFC0000
FFF8FFF80000
FFF8FFF80000
FFF9FFF00000
FFFBFFE00000
FFFBFFE00000
FFFFFFC00000
FFFFFF800000
FFFFFF800000
FFFFFF800000
FFFFFFC00000
FFFFFFC00000
FFFFFFE00000
FFFBFFF00000
FFF9FFF00000
FFF9FFF80000
FFF8FFFC0000
FFF8FFFE0000
FFF87FFE0000
FFF83FFF0000
FFF83FFF8000
FFF81FFF8000
FFF80FFFC000
FFF80FFFE000
FFF807FFE000
FFF807FFF000
FFF803FFF800
FFF801FFF800
FFF801FFFC00
FFF800FFFE00
FFF8007FFE00
FFF8007FFF00
FFF8003FFF80
FFF8003FFF80
FFF8001FFFC0
FFF8000FFFE0
FFF8000FFFE0
FFF80007FFF0
FFF80003FFF8
FFF80003FFFC
FFF80001FFFC
FFF80001FFFE
ENDCHAR
STARTCHAR 004C
ENCODING 76
SWIDTH 550 0
DWIDTH 55 0
BBX 39 64 10 0
BITMAP
FFF0000000
FFF0000000
FFF0000000
FFF0000000
FFF0000000
FFF0000000
FFF0000000
FFF0000000
FFF0000000
FFF0000000
FFF0000000
FFF0000000
FFF0000000
FFF0000000
FFF0000000
FFF0000000
FFF0000000
FFF0000000
FFF0000000
FFF0000000
FFF0000000
FFF0000000
FFF0000000
FFF0000000
FFF0000000
FFF0000000
FFF0000000
FFF0000000
FFF0000000
FFF0000000
FFF0000000
FFF0000000
FFF0000000
FFF0000000
FFF0000000
FFF0000000
FFF0000000
FFF0000000
FFF0000000
FFF0000000
FFF0000000
FFF0000000
FFF0000000
FFF0000000
FFF0000000
FFF0000000
FFF0000000
FFF0000000
FFF0000000
FFF0000000
FFF0000000
FFF0000000
FFF0000000
FFF0000000
FFFFFFFFFE
FFFFFFFFFE
FFFFFFFFFE
FFFFFFFFFE
FFFFFFFFFE
FFFFFFFFFE
FFFFFFFFFE
FFFFFFFFFE
FFFFFFFFFE
FFFFFFFFFE
ENDCHAR
STARTCHAR 004D
ENCODING 77
SWIDTH 550 0
DWIDTH 55 0
BBX 51 64 2 0
BITMAP
1FFF80003FFF00
1FFF80007FFF00
1FFFC0007FFF00
1FFFC0007FFF00
1FFFC000FFFF00
1FFFE000FFFF00
1FFFE000FFFF00
1FFFE001FFFF00
1FFFE001FFFF00
1FFFF001FFFF00
1FFFF001FFFF00
1FFFF003FFFF00
1FFFF803FFFF00
1FFFF803FFFF00
1FFFF807FDFF00
1FFFFC07FDFF00
1FF7FC07FDFF00
3FF7FC0FF9FF00
3FF7FE0FF9FF80
3FF7FE0FF9FF80
3FF3FE1FF1FF80
3FF3FE1FF1FF80
3FF3FF1FF1FF80
3FF1FF1FE1FF80
3FF1FF3FE1FF80
3FF1FF3FE1FF80
3FF1FFBFC1FF80
3FF0FFFFC1FF80
3FE0FFFFC1FF80
3FE0FFFF81FF80
3FE07FFF81FF80
3FE07FFF81FF80
3FE07FFF81FF80
3FE03FFF01FF80
3FE03FFF01FF80
3FE03FFF01FF80
3FE03FFE01FF80
7FE01FFE01FF80
7FE01FFE01FFC0
7FE01FFC01FFC0
7FE00FFC01FFC0
7FE00FFC01FFC0
7FE00FF801FFC0
7FE00FF800FFC0
7FE007F800FFC0
7FE0000000FFC0
7FE0000000FFC0
7FE0000000FFC0
7FE0000000FFC0
7FE0000000FFC0
7FE0000000FFC0
7FE0000000FFC0
7FE0000000FFC0
7FE0000000FFC0
7FE0000000FFC0
7FE0000000FFC0
7FE0000000FFC0
7FE0000000FFC0
FFE0000000FFE0
FFE0000000FFE0
FFE0000000FFE0
FFC0000000FFE0
FFC0000000FFE0
FFC0000000FFE0
ENDCHAR
STARTCHAR 004E
ENCODING 78
SWIDTH 550 0
DWIDTH 55 0
BBX 46 64 5 0
BITMAP
FFFC00001FFC
FFFE00001FFC
FFFE00001FFC
FFFF00001FFC
FFFF00001FFC
FFFF80001FFC
FFFF80001FFC
FFFFC0001FFC
FFFFC0001FFC
FFFFE0001FFC
FFFFE0001FFC
FFFFE0001FFC
FFFFF0001FFC
FFFFF0001FFC
FFFFF8001FFC
FFFFF8001FFC
FFFFFC001FFC
FFFFFC001FFC
FFFFFE001FFC
FFFFFE001FFC
FFEFFF001FFC
FFEFFF001FFC
FFE7FF001FFC
FFE7FF801FFC
FFE7FF801FFC
FFE3FFC01FFC
FFE3FFC01FFC
FFE1FFE01FFC
FFE1FFE01FFC
FFE0FFF01FFC
FFE0FFF01FFC
FFE07FF81FFC
FFE07FF81FFC
FFE07FF81FFC
FFE03FFC1FFC
FFE03FFC1FFC
FFE01FFE1FFC
FFE01FFE1FFC
FFE00FFF1FFC
FFE00FFF1FFC
FFE007FF9FFC
FFE007FF9FFC
FFE007FF9FFC
FFE003FFDFFC
FFE003FFDFFC
FFE001FFFFFC
FFE001FFFFFC
FFE000FFFFFC
FFE000FFFFFC
FFE0007FFFFC
FFE0007FFFFC
FFE0003FFFFC
FFE0003FFFFC
FFE0003FFFFC
FFE0001FFFFC
FFE0001FFFFC
FFE0000FFFFC
FFE0000FFFFC
FFE00007FFFC
FFE00007FFFC
FFE00003FFFC
FFE00003FFFC
FFE00003FFFC
FFE00001FFFC
ENDCHAR
STARTCHAR 004F
ENCODING 79
SWIDTH 550 0
DWIDTH 55 0
BBX 51 66 2 -1
BITMAP
000007FE000000
00007FFFE00000
0001FFFFFC0000
0007FFFFFE0000
001FFFFFFF8000
003FFFFFFFC000
007FFFFFFFE000
00FFFFFFFFF000
01FFFFFFFFF800
03FFFFFFFFFC00
03FFFFFFFFFC00
07FFFC07FFFE00
0FFFE000FFFE00
0FFFC0007FFF00
1FFF80003FFF00
1FFF00001FFF80
3FFF00001FFF80
3FFE00000FFF80
3FFE00000FFF80
7FFC000007FFC0
7FFC000007FFC0
7FFC000007FFC0
7FF8000003FFC0
7FF8000003FFE0
FFF8000003FFE0
FFF8000003FFE0
FFF8000003FFE0
FFF8000003FFE0
FFF8000003FFE0
FFF8000003FFE0
FFF8000003FFE0
FFF8000003FFE0
FFF8000003FFE0
FFF8000003FFE0
FFF8000003FFE0
FFF8000003FFE0
FFF8000003FFE0
FFF8000003FFE0
FFF8000003FFE0
FFF8000003FFE0
FFF8000003FFE0
FFF8000003FFE0
FFF8000003FFC0
7FF8000003FFC0
7FFC000007FFC0
7FFC000007FFC0
7FFC000007FFC0
7FFE00000FFF80
3FFE00000FFF80
3FFE00000FFF80
3FFF00001FFF00
1FFF80003FFF00
1FFFC0007FFE00
0FFFE000FFFE00
0FFFF803FFFC00
07FFFFFFFFFC00
07FFFFFFFFF800
03FFFFFFFFF000
01FFFFFFFFE000
00FFFFFFFFC000
007FFFFFFF8000
003FFFFFFF0000
001FFFFFFE0000
0007FFFFF80000
0001FFFFC00000
00001FFE000000
ENDCHAR
STARTCHAR 0050
ENCODING 80
SWIDTH 550 0
DWIDTH 55 0
BBX 44 64 7 0
BITMAP
FFFFFF000000
FFFFFFF80000
FFFFFFFF0000
FFFFFFFFC000
FFFFFFFFF000
FFFFFFFFF800
FFFFFFFFFC00
FFFFFFFFFE00
FFFFFFFFFF00
FFFFFFFFFF80
FFF003FFFFC0
FFF0007FFFC0
FFF0001FFFC0
FFF0000FFFE0
FFF00007FFE0
FFF00003FFE0
FFF00003FFF0
FFF00001FFF0
FFF00001FFF0
FFF00001FFF0
FFF00001FFF0
FFF00001FFF0
FFF00001FFF0
FFF00001FFF0
FFF00001FFF0
FFF00001FFE0
FFF00003FFE0
FFF00003FFE0
FFF00007FFE0
FFF00007FFC0
FFF0000FFFC0
FFF0003FFF80
FFF000FFFF80
FFF01FFFFF00
FFFFFFFFFF00
FFFFFFFFFE00
FFFFFFFFFC00
FFFFFFFFF800
FFFFFFFFF000
FFFFFFFFC000
FFFFFFFF0000
FFFFFFFC0000
FFFFFFE00000
FFF000000000
FFF000000000
FFF000000000
FFF000000000
FFF000000000
FFF000000000
FFF000000000
FFF000000000
FFF000000000
FFF000000000
FFF000000000
FFF000000000
FFF000000000
FFF000000000
FFF000000000
FFF000000000
FFF000000000
FFF000000000
FFF000000000
FFF000000000
FFF000000000
ENDCHAR
STARTCHAR 0051
ENCODING 81
SWIDTH 550 0
DWIDTH 55 0
BBX 53 83 2 -18
BITMAP
000007FE000000
00007FFFE00000
0001FFFFFC0000
0007FFFFFE0000
001FFFFFFF8000
003FFFFFFFC000
007FFFFFFFE000
00FFFFFFFFF000
01FFFFFFFFF800
03FFFFFFFFFC00
03FFFFFFFFFC00
07FFFC07FFFE00
0FFFF000FFFE00
0FFFC0007FFF00
1FFF80003FFF00
1FFF00001FFF80
1FFF00001FFF80
3FFE00000FFF80
3FFE00000FFFC0
3FFC000007FFC0
7FFC000007FFC0
7FFC000007FFC0
7FF8000003FFC0
7FF8000003FFE0
FFF8000003FFE0
FFF8000003FFE0
FFF8000003FFE0
FFF8000003FFE0
FFF8000003FFE0
FFF8000003FFE0
FFF8000003FFE0
FFF8000003FFE0
FFF8000003FFE0
FFF8000003FFE0
FFF8000003FFE0
FFF8000003FFE0
FFF8000003FFE0
FFF8000003FFE0
FFF8000003FFE0
FFF8000003FFE0
FFF8000003FFE0
FFF8000003FFE0
FFF8000003FFC0
7FF8000003FFC0
7FFC000007FFC0
7FFC000007FFC0
7FFC000007FF80
7FFE00000FFF80
3FFE00000FFF80
3FFE00000FFF00
3FFF00001FFF00
1FFF80003FFF00
1FFFC0007FFE00
1FFFE000FFFE00
0FFFF803FFFC00
07FFFFFFFFF800
07FFFFFFFFF800
03FFFFFFFFF000
01FFFFFFFFE000
00FFFFFFFFC000
007FFFFFFF8000
003FFFFFFF0000
001FFFFFFC0000
0007FFFFF00000
0001FFFFC00000
00001FFE000000
00001FFE000000
00001FFE000000
00000FFF000000
00000FFF000000
00000FFF800100
00000FFFC00380
00000FFFE00FC0
000007FFFFFFC0
000007FFFFFFE0
000003FFFFFFF0
000003FFFFFFF0
000001FFFFFFF8
000000FFFFFFF8
0000007FFFFFF0
0000001FFFFFC0
00000007FFFF00
00000001FFFC00
ENDCHAR
STARTCHAR 0052
ENCODING 82
SWIDTH 550 0
DWIDTH 55 0
BBX 46 64 6 0
BITMAP
FFFFFF800000
FFFFFFFC0000
FFFFFFFF8000
FFFFFFFFE000
FFFFFFFFF000
FFFFFFFFF800
FFFFFFFFFC00
FFFFFFFFFE00
FFFFFFFFFF00
FFFFFFFFFF00
FFF007FFFF80
FFF0007FFF80
FFF0001FFF80
FFF0000FFFC0
FFF00007FFC0
FFF00007FFC0
FFF00007FFC0
FFF00007FFC0
FFF00007FFC0
FFF00007FFC0
FFF00007FFC0
FFF00007FFC0
FFF00007FFC0
FFF0000FFF80
FFF0000FFF80
FFF0001FFF00
FFF0007FFF00
FFF001FFFE00
FFFFFFFFFC00
FFFFFFFFF800
FFFFFFFFF000
FFFFFFFFE000
FFFFFFFF8000
FFFFFFF80000
FFFFFFFC0000
FFFFFFFF0000
FFFFFFFF8000
FFFFFFFF8000
FFF01FFFC000
FFF007FFE000
FFF003FFE000
FFF003FFF000
FFF001FFF000
FFF000FFF800
FFF000FFF800
FFF000FFFC00
FFF0007FFC00
FFF0007FFE00
FFF0003FFE00
FFF0003FFF00
FFF0001FFF00
FFF0001FFF80
FFF0001FFF80
FFF0000FFFC0
FFF0000FFFC0
FFF00007FFE0
FFF00007FFE0
FFF00003FFE0
FFF00003FFF0
FFF00001FFF0
FFF00001FFF8
FFF00001FFF8
FFF00000FFFC
FFF00000FFFC
ENDCHAR
STARTCHAR 0053
ENCODING 83
SWIDTH 550 0
DWIDTH 55 0
BBX 45 66 5 -1
BITMAP
00001FFE0000
0003FFFFF800
001FFFFFFF00
007FFFFFFF00
01FFFFFFFF00
03FFFFFFFF00
07FFFFFFFF00
0FFFFFFFFF00
1FFFFFFFFF00
1FFFFFFFFF00
3FFFFE1FFF00
3FFFC0003F00
7FFF00000300
7FFE00000000
7FFC00000000
7FFC00000000
7FF800000000
FFF800000000
FFF800000000
FFFC00000000
FFFC00000000
7FFE00000000
7FFF80000000
7FFFC0000000
7FFFF0000000
3FFFFE000000
3FFFFFC00000
1FFFFFF00000
1FFFFFFE0000
0FFFFFFF8000
07FFFFFFE000
03FFFFFFF800
00FFFFFFFC00
007FFFFFFE00
001FFFFFFF00
0007FFFFFF80
0000FFFFFFC0
00003FFFFFE0
000007FFFFE0
000000FFFFF0
0000003FFFF0
0000000FFFF0
00000007FFF8
00000003FFF8
00000001FFF8
00000001FFF8
00000000FFF8
00000000FFF8
00000000FFF8
00000001FFF8
00000001FFF0
00000001FFF0
C0000003FFF0
FC00000FFFE0
FFC0003FFFE0
FFFFFFFFFFE0
FFFFFFFFFFC0
FFFFFFFFFF80
FFFFFFFFFF00
FFFFFFFFFE00
FFFFFFFFFC00
FFFFFFFFF800
FFFFFFFFE000
FFFFFFFF8000
1FFFFFFE0000
007FFFC00000
ENDCHAR
STARTCHAR 0054
ENCODING 84
SWIDTH 550 0
DWIDTH 55 0
BBX 47 64 4 0
BITMAP
FFFFFFFFFFFE
FFFFFFFFFFFE
FFFFFFFFFFFE
FFFFFFFFFFFE
FFFFFFFFFFFE
FFFFFFFFFFFE
FFFFFFFFFFFE
FFFFFFFFFFFE
FFFFFFFFFFFE
FFFFFFFFFFFE
00007FFC0000
00007FFC0000
00007FFC0000
00007FFC0000
00007FFC0000
00007FFC0000
00007FFC0000
00007FFC0000
00007FFC0000
00007FFC0000
00007FFC0000
00007FFC0000
00007FFC0000
00007FFC0000
00007FFC0000
00007FFC0000
00007FFC0000
00007FFC0000
00007FFC0000
00007FFC0000
00007FFC0000
00007FFC0000
00007FFC0000
00007FFC0000
00007FFC0000
00007FFC0000
00007FFC0000
00007FFC0000
00007FFC0000
00007FFC0000
00007FFC0000
00007FFC0000
00007FFC0000
00007FFC0000
00007FFC0000
00007FFC0000
00007FFC0000
00007FFC0000
00007FFC0000
00007FFC0000
00007FFC0000
00007FFC0000
00007FFC0000
00007FFC0000
00007FFC0000
00007FFC0000
00007FFC0000
00007FFC0000
00007FFC0000
00007FFC0000
00007FFC0000
00007FFC0000
00007FFC0000
00007FFC0000
ENDCHAR
STARTCHAR 0055
ENCODING 85
SWIDTH 550 0
DWIDTH 55 0
BBX 47 65 4 -1
BITMAP
FFF000001FFE
FFF000001FFE
FFF000001FFE
FFF000001FFE
FFF000001FFE
FFF000001FFE
FFF000001FFE
FFF000001FFE
FFF000001FFE
FFF000001FFE
FFF000001FFE
FFF000001FFE
FFF000001FFE
FFF000001FFE
FFF000001FFE
FFF000001FFE
FFF000001FFE
FFF000001FFE
FFF000001FFE
FFF000001FFE
FFF000001FFE
FFF000001FFE
FFF000001FFE
FFF000001FFE
FFF000001FFE
FFF000001FFE
FFF000001FFE
FFF000001FFE
FFF000001FFE
FFF000001FFE
FFF000001FFE
FFF000001FFE
FFF000001FFE
FFF000001FFE
FFF000001FFE
FFF000001FFE
FFF000001FFE
FFF000001FFE
FFF000001FFE
FFF000001FFE
FFF000001FFE
FFF000001FFE
FFF000001FFE
FFF000001FFE
FFF000001FFE
FFF000003FFC
FFF800003FFC
7FF800003FFC
7FF800003FFC
7FF800007FFC
7FFC00007FF8
7FFE0000FFF8
3FFE0000FFF8
3FFF8003FFF0
3FFFE00FFFF0
1FFFFFFFFFE0
1FFFFFFFFFC0
0FFFFFFFFFC0
07FFFFFFFF80
03FFFFFFFF00
01FFFFFFFE00
00FFFFFFF800
003FFFFFE000
000FFFFF8000
0000FFF80000
ENDCHAR
STARTCHAR 0056
ENCODING 86
SWIDTH 550 0
DWIDTH 55 0
BBX 55 64 0 0
BITMAP
FFFC0000003FFE
FFFC0000003FFE
7FFC0000003FFC
7FFE0000007FFC
7FFE0000007FFC
3FFE0000007FF8
3FFE000000FFF8
3FFF000000FFF8
1FFF000000FFF0
1FFF000000FFF0
1FFF800001FFF0
1FFF800001FFF0
0FFF800001FFE0
0FFF800003FFE0
0FFFC00003FFE0
07FFC00003FFC0
07FFC00003FFC0
07FFC00007FFC0
03FFE00007FF80
03FFE00007FF80
03FFE0000FFF80
01FFF0000FFF00
01FFF0000FFF00
01FFF0000FFF00
01FFF0001FFF00
00FFF8001FFE00
00FFF8001FFE00
00FFF8003FFE00
007FFC003FFC00
007FFC003FFC00
007FFC003FFC00
003FFC007FF800
003FFE007FF800
003FFE007FF800
003FFE00FFF000
001FFF00FFF000
001FFF00FFF000
001FFF00FFF000
000FFF01FFE000
000FFF81FFE000
000FFF81FFE000
0007FF83FFC000
0007FF83FFC000
0007FFC3FFC000
0003FFC3FF8000
0003FFC7FF8000
0003FFE7FF8000
0003FFE7FF0000
0001FFE7FF0000
0001FFEFFF0000
0001FFFFFF0000
0000FFFFFE0000
0000FFFFFE0000
0000FFFFFE0000
00007FFFFC0000
00007FFFFC0000
00007FFFFC0000
00007FFFF80000
00003FFFF80000
00003FFFF80000
00003FFFF00000
00001FFFF00000
00001FFFF00000
00001FFFF00000
ENDCHAR
STARTCHAR 0057
ENCODING 87
SWIDTH 550 0
DWIDTH 55 0
BBX 51 64 2 0
BITMAP
FFC00000007FE0
FFC00000007FE0
FFC00000007FE0
FFC00000007FE0
FFC00000007FE0
FFC00000007FE0
FFC00000007FE0
FFC00000007FE0
FFE00000007FE0
FFE00000007FE0
FFE00000007FE0
FFE00000007FE0
FFE00000007FE0
FFE00000007FE0
FFE00000007FE0
FFE00000007FE0
7FE00000007FE0
7FE00000007FC0
7FE00000007FC0
7FE0000000FFC0
7FE003FC00FFC0
7FE007FC00FFC0
7FE007FC00FFC0
7FE007FE00FFC0
7FE00FFE00FFC0
7FE00FFE00FFC0
7FE00FFF00FFC0
7FE00FFF00FFC0
7FE01FFF00FFC0
7FE01FFF80FFC0
7FE01FFF80FFC0
7FE03FFF80FFC0
7FE03FFFC0FFC0
7FE03FFFC0FFC0
3FE07FFFC0FF80
3FF07FFFC0FF80
3FF07FFFE0FF80
3FF0FFFFE0FF80
3FF0FFBFE0FF80
3FF0FF3FF0FF80
3FF0FF3FF0FF80
3FF1FF1FF0FF80
3FF1FE1FF8FF80
3FF1FE1FF8FF80
3FF3FE1FF8FF80
3FF3FE0FFCFF80
3FF3FC0FFCFF80
3FF7FC0FFDFF80
3FF7FC07FDFF80
3FF7F807FFFF80
3FF7F807FFFF80
3FFFF803FFFF80
1FFFF003FFFF00
1FFFF003FFFF00
1FFFF001FFFF00
1FFFE001FFFF00
1FFFE001FFFF00
1FFFE000FFFF00
1FFFC000FFFF00
1FFFC000FFFF00
1FFFC0007FFF00
1FFFC0007FFF00
1FFF80007FFF00
1FFF80003FFF00
ENDCHAR
STARTCHAR 0058
ENCODING 88
SWIDTH 550 0
DWIDTH 55 0
BBX 53 64 1 0
BITMAP
7FFE000007FFE0
7FFE000007FFE0
3FFF00000FFFC0
3FFF00000FFFC0
1FFF80001FFF80
0FFF80001FFF80
0FFFC0003FFF00
07FFE0003FFF00
07FFE0007FFE00
03FFF0007FFC00
03FFF000FFFC00
01FFF800FFF800
01FFF801FFF800
00FFFC01FFF000
007FFC03FFF000
007FFE03FFE000
003FFE07FFE000
003FFF07FFC000
001FFF0FFFC000
001FFF8FFF8000
000FFF9FFF0000
000FFFDFFF0000
0007FFFFFE0000
0007FFFFFE0000
0003FFFFFC0000
0001FFFFFC0000
0001FFFFF80000
0000FFFFF80000
0000FFFFF00000
00007FFFE00000
00007FFFE00000
00003FFFE00000
00007FFFE00000
00007FFFF00000
0000FFFFF00000
0001FFFFF80000
0001FFFFFC0000
0003FFFFFC0000
0003FFFFFE0000
0007FFFFFE0000
0007FFFFFF0000
000FFFDFFF0000
001FFF9FFF8000
001FFF0FFFC000
003FFF0FFFC000
003FFE07FFE000
007FFE07FFE000
007FFC03FFF000
00FFFC03FFF800
00FFF801FFF800
01FFF801FFFC00
03FFF000FFFC00
03FFF000FFFE00
07FFE0007FFE00
07FFE0007FFF00
0FFFC0003FFF80
0FFFC0003FFF80
1FFF80001FFFC0
3FFF80001FFFC0
3FFF00000FFFE0
7FFF00000FFFF0
7FFE000007FFF0
FFFE000003FFF8
FFFC000003FFF8
ENDCHAR
STARTCHAR 0059
ENCODING 89
SWIDTH 550 0
DWIDTH 55 0
BBX 53 64 1 0
BITMAP
FFF8000000FFF8
FFF8000000FFF8
7FFC000001FFF0
7FFC000001FFF0
3FFE000003FFE0
3FFE000003FFE0
1FFF000007FFC0
1FFF000007FFC0
0FFF80000FFF80
0FFF80000FFF80
07FFC0001FFF00
07FFC0001FFF00
03FFE0003FFE00
03FFE0003FFE00
01FFF0007FFC00
01FFF0007FFC00
00FFF800FFF800
00FFF800FFF800
007FFC01FFF000
007FFC01FFF000
003FFC03FFE000
003FFE03FFE000
001FFE03FFC000
001FFF07FFC000
000FFF07FF8000
000FFF8FFF8000
0007FF8FFF0000
0007FFDFFF0000
0003FFDFFE0000
0003FFDFFE0000
0001FFFFFC0000
0001FFFFF80000
0000FFFFF80000
0000FFFFF00000
00007FFFF00000
00007FFFE00000
00003FFFE00000
00003FFFC00000
00001FFFC00000
00001FFF800000
00000FFF800000
00000FFF000000
00000FFF000000
00000FFF000000
00000FFF000000
00000FFF000000
00000FFF000000
00000FFF000000
00000FFF000000
00000FFF000000
00000FFF000000
00000FFF000000
00000FFF000000
00000FFF000000
00000FFF000000
00000FFF000000
00000FFF000000
00000FFF000000
00000FFF000000
00000FFF000000
00000FFF000000
00000FFF000000
00000FFF000000
00000FFF000000
ENDCHAR
STARTCHAR 005A
ENCODING 90
SWIDTH 550 0
DWIDTH 55 0
BBX 45 64 5 0
BITMAP
7FFFFFFFFFF8
7FFFFFFFFFF8
7FFFFFFFFFF8
7FFFFFFFFFF8
7FFFFFFFFFF8
7FFFFFFFFFF8
7FFFFFFFFFF8
7FFFFFFFFFF8
7FFFFFFFFFF8
7FFFFFFFFFF8
7FFFFFFFFFF0
00000007FFE0
0000000FFFE0
0000000FFFC0
0000001FFF80
0000003FFF80
0000003FFF00
0000007FFE00
000000FFFE00
000000FFFC00
000001FFF800
000003FFF800
000003FFF000
000007FFE000
00000FFFE000
00000FFFC000
00001FFF8000
00003FFF8000
00003FFF0000
00007FFE0000
0000FFFE0000
0000FFFC0000
0001FFF80000
0003FFF00000
0003FFF00000
0007FFE00000
000FFFC00000
000FFFC00000
001FFF800000
003FFF000000
003FFF000000
007FFE000000
00FFFC000000
00FFFC000000
01FFF8000000
03FFF0000000
03FFF0000000
07FFE0000000
0FFFC0000000
0FFFC0000000
1FFF80000000
3FFF00000000
3FFF00000000
7FFFFFFFFFF8
FFFFFFFFFFF8
FFFFFFFFFFF8
FFFFFFFFFFF8
FFFFFFFFFFF8
FFFFFFFFFFF8
FFFFFFFFFFF8
FFFFFFFFFFF8
FFFFFFFFFFF8
FFFFFFFFFFF8
FFFFFFFFFFF8
ENDCHAR
STARTCHAR 005B
ENCODING 91
SWIDTH 550 0
DWIDTH 55 0
BBX 26 90 15 -19
BITMAP
FFFFFFC0
FFFFFFC0
FFFFFFC0
FFFFFFC0
FFFFFFC0
FFFFFFC0
FFFFFFC0
FFFFFFC0
FFFFFFC0
FFE00000
FFE00000
FFE00000
FFE00000
FFE00000
FFE00000
FFE00000
FFE00000
FFE00000
FFE00000
FFE00000
FFE00000
FFE00000
FFE00000
FFE00000
FFE00000
FFE00000
FFE00000
FFE00000
FFE00000
FFE00000
FFE00000
FFE00000
FFE00000
FFE00000
FFE00000
FFE00000
FFE00000
FFE00000
FFE00000
FFE00000
FFE00000
FFE00000
FFE00000
FFE00000
FFE00000
FFE00000
FFE00000
FFE00000
FFE00000
FFE00000
FFE00000
FFE00000
FFE00000
FFE00000
FFE00000
FFE00000
FFE00000
FFE00000
FFE00000
FFE00000
FFE00000
FFE00000
FFE00000
FFE00000
FFE00000
FFE00000
FFE00000
FFE00000
FFE00000
FFE00000
FFE00000
FFE00000
FFE00000
FFE00000
FFE00000
FFE00000
FFE00000
FFE00000
FFE00000
FFE00000
FFE00000
FFFFFFC0
FFFFFFC0
FFFFFFC0
FFFFFFC0
FFFFFFC0
FFFFFFC0
FFFFFFC0
FFFFFFC0
FFFFFFC0
ENDCHAR
STARTCHAR 005C
ENCODING 92
SWIDTH 550 0
DWIDTH 55 0
BBX 45 79 6 -10
BITMAP
FFF000000000
FFF000000000
7FF000000000
7FF800000000
3FF800000000
3FFC00000000
1FFC00000000
1FFE00000000
1FFE00000000
0FFE00000000
0FFF00000000
07FF00000000
07FF80000000
03FF80000000
03FFC0000000
03FFC0000000
01FFC0000000
01FFE0000000
00FFE0000000
00FFF0000000
007FF0000000
007FF8000000
007FF8000000
003FF8000000
003FFC000000
001FFC000000
001FFE000000
000FFE000000
000FFF000000
000FFF000000
0007FF000000
0007FF800000
0003FF800000
0003FFC00000
0001FFC00000
0001FFE00000
0001FFE00000
0000FFE00000
0000FFF00000
00007FF00000
00007FF80000
00003FF80000
00003FFC0000
00003FFC0000
00001FFC0000
00001FFE0000
00000FFE0000
00000FFF0000
000007FF0000
000007FF8000
000007FF8000
000003FFC000
000003FFC000
000001FFC000
000001FFE000
000000FFE000
000000FFF000
000000FFF000
0000007FF800
0000007FF800
0000003FF800
0000003FFC00
0000001FFC00
0000001FFE00
0000001FFE00
0000000FFF00
0000000FFF00
00000007FF00
00000007FF80
00000003FF80
00000003FFC0
00000003FFC0
00000001FFE0
00000001FFE0
00000000FFE0
00000000FFF0
000000007FF0
000000007FF8
000000007FF8
ENDCHAR
STARTCHAR 005D
ENCODING 93
SWIDTH 550 0
DWIDTH 55 0
BBX 25 90 13 -19
BITMAP
FFFFFF80
FFFFFF80
FFFFFF80
FFFFFF80
FFFFFF80
FFFFFF80
FFFFFF80
FFFFFF80
FFFFFF80
0003FF80
0003FF80
0003FF80
0003FF80
0003FF80
0003FF80
0003FF80
0003FF80
0003FF80
0003FF80
0003FF80
0003FF80
0003FF80
0003FF80
0003FF80
0003FF80
0003FF80
0003FF80
0003FF80
0003FF80
0003FF80
0003FF80
0003FF80
0003FF80
0003FF80
0003FF80
0003FF80
0003FF80
0003FF80
0003FF80
0003FF80
0003FF80
0003FF80
0003FF80
0003FF80
0003FF80
0003FF80
0003FF80
0003FF80
0003FF80
0003FF80
0003FF80
0003FF80
0003FF80
0003FF80
0003FF80
0003FF80
0003FF80
0003FF80
0003FF80
0003FF80
0003FF80
0003FF80
0003FF80
0003FF80
0003FF80
0003FF80
0003FF80
0003FF80
0003FF80
0003FF80
0003FF80
0003FF80
0003FF80
0003FF80
0003FF80
0003FF80
0003FF80
0003FF80
0003FF80
0003FF80
0003FF80
FFFFFF80
FFFFFF80
FFFFFF80
FFFFFF80
FFFFFF80
FFFFFF80
FFFFFF80
FFFFFF80
FFFFFF80
ENDCHAR
STARTCHAR 005E
ENCODING 94
SWIDTH 550 0
DWIDTH 55 0
BBX 45 31 5 33
BITMAP
00007FE00000
00007FF00000
0000FFF00000
0000FFF80000
0001FFF80000
0003FFFC0000
0003FFFE0000
0007FFFE0000
0007FFFF0000
000FFFFF0000
000FF9FF8000
001FF1FFC000
003FF0FFC000
003FE07FE000
007FE07FE000
007FC03FF000
00FFC03FF800
01FF801FF800
01FF801FFC00
03FF000FFE00
03FE0007FE00
07FE0007FF00
0FFC0003FF00
0FFC0003FF80
1FF80001FFC0
1FF80001FFC0
3FF00000FFE0
7FF000007FE0
7FE000007FF0
FFC000003FF8
FFC000003FF8
ENDCHAR
STARTCHAR 005F
ENCODING 95
SWIDTH 550 0
DWIDTH 55 0
BBX 55 9 0 -20
BITMAP
FFFFFFFFFFFFFE
FFFFFFFFFFFFFE
FFFFFFFFFFFFFE
FFFFFFFFFFFFFE
FFFFFFFFFFFFFE
FFFFFFFFFFFFFE
FFFFFFFFFFFFFE
FFFFFFFFFFFFFE
FFFFFFFFFFFFFE
ENDCHAR
STARTCHAR 0060
ENCODING 96
SWIDTH 550 0
DWIDTH 55 0
BBX 28 13 5 50
BITMAP
FFFF0000
7FFF8000
1FFFC000
0FFFE000
07FFF000
01FFF800
00FFFC00
007FFE00
001FFF00
000FFF80
0007FFC0
0001FFE0
0000FFF0
ENDCHAR
STARTCHAR 0061
ENCODING 97
SWIDTH 550 0
DWIDTH 55 0
BBX 43 52 5 -1
BITMAP
00003FC00000
001FFFFF0000
01FFFFFFE000
0FFFFFFFF800
0FFFFFFFFC00
0FFFFFFFFE00
0FFFFFFFFF00
0FFFFFFFFF80
0FFFFFFFFF80
0FFFC0FFFFC0
0FF0001FFFC0
0F000007FFC0
0C000003FFE0
00000003FFE0
00000001FFE0
00000001FFE0
00000001FFE0
00000001FFE0
00000001FFE0
00000001FFE0
00000001FFE0
0001FFFFFFE0
000FFFFFFFE0
007FFFFFFFE0
01FFFFFFFFE0
03FFFFFFFFE0
07FFFFFFFFE0
0FFFFFFFFFE0
1FFFFFFFFFE0
3FFFF001FFE0
3FFF8001FFE0
7FFE0001FFE0
7FFC0001FFE0
7FFC0001FFE0
FFF80001FFE0
FFF80001FFE0
FFF80003FFE0
FFF80007FFE0
FFF8000FFFE0
FFF8001FFFE0
7FFC003FFFE0
7FFE00FFFFE0
7FFFE7FFFFE0
7FFFFFFFFFE0
3FFFFFFFFFE0
3FFFFFFF7FE0
1FFFFFFE7FE0
0FFFFFF87FE0
07FFFFF07FE0
03FFFFC07FE0
00FFFF007FE0
001FF8000000
ENDCHAR
STARTCHAR 0062
ENCODING 98
SWIDTH 550 0
DWIDTH 55 0
BBX 44 70 7 -1
BITMAP
FFF000000000
FFF000000000
FFF000000000
FFF000000000
FFF000000000
FFF000000000
FFF000000000
FFF000000000
FFF000000000
FFF000000000
FFF000000000
FFF000000000
FFF000000000
FFF000000000
FFF000000000
FFF000000000
FFF000000000
FFF000000000
FFF001F00000
FFF01FFF8000
FFF07FFFE000
FFE0FFFFF000
FFE1FFFFF800
FFE7FFFFFC00
FFEFFFFFFE00
FFEFFFFFFF00
FFFFFFFFFF80
FFFFFFFFFF80
FFFFFFFFFFC0
FFFFF01FFFC0
FFFFC00FFFC0
FFFF8007FFE0
FFFF0003FFE0
FFFE0003FFE0
FFFC0001FFF0
FFF80001FFF0
FFF80001FFF0
FFF00001FFF0
FFF00000FFF0
FFF00000FFF0
FFF00000FFF0
FFF00000FFF0
FFF00000FFF0
FFF00000FFF0
FFF00000FFF0
FFF00000FFF0
FFF00000FFF0
FFF00000FFF0
FFF00000FFF0
FFF00001FFF0
FFF00001FFF0
FFF00001FFF0
FFF00003FFE0
FFF00003FFE0
FFF00007FFE0
FFF00007FFC0
FFF0000FFFC0
FFF0001FFF80
FFF0003FFF80
FFF000FFFF00
FFFFFFFFFF00
FFFFFFFFFE00
FFFFFFFFFC00
FFFFFFFFF800
FFFFFFFFF000
FFFFFFFFE000
FFFFFFFF8000
3FFFFFFE0000
03FFFFF00000
000FFF000000
ENDCHAR
STARTCHAR 0063
ENCODING 99
SWIDTH 550 0
DWIDTH 55 0
BBX 40 51 7 -1
BITMAP
00003FFFF0
0001FFFFFF
0007FFFFFF
001FFFFFFF
007FFFFFFF
00FFFFFFFF
01FFFFFFFF
03FFFFFFFF
07FFFFFFFF
0FFFFFFFFF
0FFFFC00FF
1FFFE0000F
3FFFC00001
3FFF800000
3FFF000000
7FFE000000
7FFC000000
7FFC000000
FFF8000000
FFF8000000
FFF8000000
FFF8000000
FFF0000000
FFF0000000
FFF0000000
FFF0000000
FFF0000000
FFF0000000
FFF8000000
FFF8000000
FFF8000000
FFF8000000
FFFC000000
FFFC000000
7FFE000000
7FFE000000
7FFF000000
3FFF800000
3FFFE00007
3FFFF8003F
1FFFFFFFFF
0FFFFFFFFF
0FFFFFFFFF
07FFFFFFFF
03FFFFFFFF
01FFFFFFFF
007FFFFFFF
003FFFFFFF
000FFFFFFE
0001FFFFF0
00001FFE00
ENDCHAR
STARTCHAR 0064
ENCODING 100
SWIDTH 550 0
DWIDTH 55 0
BBX 44 70 4 -1
BITMAP
00000000FFF0
00000000FFF0
00000000FFF0
00000000FFF0
00000000FFF0
00000000FFF0
00000000FFF0
00000000FFF0
00000000FFF0
00000000FFF0
00000000FFF0
00000000FFF0
00000000FFF0
00000000FFF0
00000000FFF0
00000000FFF0
00000000FFF0
00000000FFF0
00000000FFF0
00007FFFFFF0
0003FFFFFFF0
000FFFFFFFF0
003FFFFFFFF0
007FFFFFFFF0
01FFFFFFFFF0
03FFFFFFFFF0
03FFFFFFFFF0
07FFFFFFFFF0
0FFFF803FFF0
1FFFE000FFF0
1FFF8000FFF0
3FFF0000FFF0
3FFF0000FFF0
3FFE0000FFF0
7FFC0000FFF0
7FFC0000FFF0
7FF80000FFF0
FFF80000FFF0
FFF80000FFF0
FFF80000FFF0
FFF80000FFF0
FFF00000FFF0
FFF00000FFF0
FFF00000FFF0
FFF00000FFF0
FFF00000FFF0
FFF00000FFF0
FFF00000FFF0
FFF00000FFF0
FFF00000FFF0
FFF80000FFF0
FFF80000FFF0
FFF80001FFF0
FFF80003FFF0
7FFC0007FFF0
7FFC0007FFF0
7FFE000FFFF0
3FFE001FFFF0
3FFF007FFFF0
3FFFC1FFFFF0
1FFFFFFFFFF0
1FFFFFFFFFF0
0FFFFFFFBFF0
07FFFFFF3FF0
07FFFFFE3FF0
03FFFFFC3FF0
01FFFFF83FF0
007FFFE03FF0
003FFFC03FF0
0007FE000000
ENDCHAR
STARTCHAR 0065
ENCODING 101
SWIDTH 550 0
DWIDTH 55 0
BBX 45 52 5 -1
BITMAP
000007C00000
0000FFFE0000
0007FFFFC000
001FFFFFF000
003FFFFFF800
007FFFFFFC00
01FFFFFFFE00
01FFFFFFFF00
03FFFFFFFF80
07FFF03FFFC0
0FFFC00FFFC0
0FFF0007FFE0
1FFE0003FFE0
1FFE0001FFF0
3FFC0000FFF0
3FFC0000FFF0
3FF80000FFF0
7FF800007FF8
7FF800007FF8
7FF000007FF8
7FF000007FF8
FFFFFFFFFFF8
FFFFFFFFFFF8
FFFFFFFFFFF8
FFFFFFFFFFF8
FFFFFFFFFFF8
FFFFFFFFFFF8
FFFFFFFFFFF8
FFFFFFFFFFF8
FFF000000000
FFF000000000
FFF000000000
FFF000000000
FFF800000000
7FF800000000
7FF800000000
7FFC00000000
7FFC00000000
3FFE00000000
3FFF00000000
1FFFC0000040
1FFFF00007C0
0FFFFF87FFC0
0FFFFFFFFFC0
07FFFFFFFFC0
03FFFFFFFFC0
01FFFFFFFFC0
00FFFFFFFFC0
003FFFFFFFC0
000FFFFFFFC0
0003FFFFFE00
00003FFF8000
ENDCHAR
STARTCHAR 0066
ENCODING 102
SWIDTH 550 0
DWIDTH 55 0
BBX 47 70 4 0
BITMAP
00000003FFC0
0000003FFFFE
000000FFFFFE
000003FFFFFE
00000FFFFFFE
00001FFFFFFE
00003FFFFFFE
00003FFFFFFE
00007FFFFFFE
0000FFFFFFFE
0000FFFE0006
0000FFFC0000
0001FFF80000
0001FFF00000
0001FFE00000
0001FFE00000
0003FFE00000
0003FFC00000
0003FFC00000
0003FFC00000
0003FFC00000
0003FFC00000
0003FFC00000
0003FFC00000
0003FFC00000
0003FFC00000
0003FFC00000
0003FFC00000
FFFFFFFFFFFC
FFFFFFFFFFFC
FFFFFFFFFFFC
FFFFFFFFFFFC
FFFFFFFFFFFC
FFFFFFFFFFFC
FFFFFFFFFFFC
FFFFFFFFFFFC
FFFFFFFFFFFC
0003FFC00000
0003FFC00000
0003FFC00000
0003FFC00000
0003FFC00000
0003FFC00000
0003FFC00000
0003FFC00000
0003FFC00000
0003FFC00000
0003FFC00000
0003FFC00000
0003FFC00000
0003FFC00000
0003FFC00000
0003FFC00000
0003FFC00000
0003FFC00000
0003FFC00000
0003FFC00000
0003FFC00000
0003FFC00000
0003FFC00000
0003FFC00000
0003FFC00000
0003FFC00000
0003FFC00000
0003FFC00000
0003FFC00000
0003FFC00000
0003FFC00000
0003FFC00000
0003FFC00000
ENDCHAR
STARTCHAR 0067
ENCODING 103
SWIDTH 550 0
DWIDTH 55 0
BBX 48 72 4 -21
BITMAP
000007000000
0001FFFFFFFF
000FFFFFFFFF
003FFFFFFFFF
007FFFFFFFFF
00FFFFFFFFFF
01FFFFFFFFFF
03FFFFFFFFFF
07FFFFFFFFFF
07FFE01FFFFF
0FFF800FFF00
0FFF0007FF80
0FFE0003FF80
1FFE0001FFC0
1FFC0001FFC0
1FFC0001FFC0
1FFC0001FFC0
1FFC0001FFC0
1FFC0001FFC0
1FFC0001FFC0
1FFC0001FFC0
1FFE0001FFC0
1FFE0003FFC0
0FFF0007FFC0
0FFF800FFF80
07FFC01FFF80
07FFFFFFFF00
03FFFFFFFF00
01FFFFFFFE00
03FFFFFFFC00
07FFFFFFF800
07FFFFFFE000
0FFFFFFF8000
1FFCFFFC0000
1FF800000000
1FF800000000
3FF800000000
3FF800000000
3FF800000000
3FFC00000000
3FFE00000000
3FFFFF000000
3FFFFFFFF000
1FFFFFFFFE00
1FFFFFFFFF80
0FFFFFFFFFE0
07FFFFFFFFF0
01FFFFFFFFF8
07FFFFFFFFFC
0FFFFFFFFFFC
1FFF07FFFFFE
3FFE0000FFFE
3FFC00003FFE
7FF800001FFE
FFF800001FFF
FFF000001FFF
FFF000001FFE
FFF000001FFE
FFF000001FFE
FFF000003FFE
FFF800007FFC
FFFC0001FFFC
FFFF8007FFF8
7FFFFFFFFFF8
7FFFFFFFFFF0
3FFFFFFFFFE0
1FFFFFFFFF80
0FFFFFFFFF00
03FFFFFFFC00
00FFFFFFF000
000FFFFF0000
000002000000
ENDCHAR
STARTCHAR 0068
ENCODING 104
SWIDTH 550 0
DWIDTH 55 0
BBX 41 69 7 0
BITMAP
FFF000000000
FFF000000000
FFF000000000
FFF000000000
FFF000000000
FFF000000000
FFF000000000
FFF000000000
FFF000000000
FFF000000000
FFF000000000
FFF000000000
FFF000000000
FFF000000000
FFF000000000
FFF000000000
FFF000000000
FFF000000000
FFF001F00000
FFF01FFF8000
FFE07FFFC000
FFE0FFFFF000
FFE3FFFFF800
FFE7FFFFFC00
FFEFFFFFFC00
FFEFFFFFFE00
FFFFFFFFFF00
FFFFFFFFFF00
FFFFFFFFFF00
FFFFF01FFF80
FFFFC00FFF80
FFFF800FFF80
FFFF0007FF80
FFFE0007FF80
FFFC0007FF80
FFF80007FF80
FFF80007FF80
FFF00007FF80
FFF00007FF80
FFF00007FF80
FFF00007FF80
FFF00007FF80
FFF00007FF80
FFF00007FF80
FFF00007FF80
FFF00007FF80
FFF00007FF80
FFF00007FF80
FFF00007FF80
FFF00007FF80
FFF00007FF80
FFF00007FF80
FFF00007FF80
FFF00007FF80
FFF00007FF80
FFF00007FF80
FFF00007FF80
FFF00007FF80
FFF00007FF80
FFF00007FF80
FFF00007FF80
FFF00007FF80
FFF00007FF80
FFF00007FF80
FFF00007FF80
FFF00007FF80
FFF00007FF80
FFF00007FF80
FFF00007FF80
ENDCHAR
STARTCHAR 0069
ENCODING 105
SWIDTH 550 0
DWIDTH 55 0
BBX 42 71 7 0
BITMAP
00003F000000
00007FC00000
0001FFE00000
0001FFF00000
0003FFF00000
0003FFF80000
0007FFF80000
0007FFF80000
0007FFF80000
0003FFF80000
0003FFF80000
0003FFF00000
0001FFE00000
0000FFE00000
00007F800000
00000C000000
000000000000
000000000000
000000000000
000000000000
000000000000
3FFFFFF00000
3FFFFFF00000
3FFFFFF00000
3FFFFFF00000
3FFFFFF00000
3FFFFFF00000
3FFFFFF00000
3FFFFFF00000
3FFFFFF00000
3FFFFFF00000
0000FFF00000
0000FFF00000
0000FFF00000
0000FFF00000
0000FFF00000
0000FFF00000
0000FFF00000
0000FFF00000
0000FFF00000
0000FFF00000
0000FFF00000
0000FFF00000
0000FFF00000
0000FFF00000
0000FFF00000
0000FFF00000
0000FFF00000
0000FFF00000
0000FFF00000
0000FFF00000
0000FFF00000
0000FFF00000
0000FFF00000
0000FFF00000
0000FFF00000
0000FFF00000
0000FFF00000
0000FFF00000
0000FFF00000
0000FFF00000
0000FFF00000
FFFFFFFFFFC0
FFFFFFFFFFC0
FFFFFFFFFFC0
FFFFFFFFFFC0
FFFFFFFFFFC0
FFFFFFFFFFC0
FFFFFFFFFFC0
FFFFFFFFFFC0
FFFFFFFFFFC0
ENDCHAR
STARTCHAR 006A
ENCODING 106
SWIDTH 550 0
DWIDTH 55 0
BBX 38 91 6 -21
BITMAP
0000000F80
0000003FE0
0000007FF0
000000FFF8
000001FFF8
000001FFFC
000001FFFC
000001FFFC
000001FFFC
000001FFFC
000001FFFC
000001FFF8
000000FFF8
0000007FF0
0000003FC0
0000000600
0000000000
0000000000
0000000000
0000000000
0000000000
7FFFFFFFF8
7FFFFFFFF8
7FFFFFFFF8
7FFFFFFFF8
7FFFFFFFF8
7FFFFFFFF8
7FFFFFFFF8
7FFFFFFFF8
7FFFFFFFF8
7FFFFFFFF8
0000007FF8
0000007FF8
0000007FF8
0000007FF8
0000007FF8
0000007FF8
0000007FF8
0000007FF8
0000007FF8
0000007FF8
0000007FF8
0000007FF8
0000007FF8
0000007FF8
0000007FF8
0000007FF8
0000007FF8
0000007FF8
0000007FF8
0000007FF8
0000007FF8
0000007FF8
0000007FF8
0000007FF8
0000007FF8
0000007FF8
0000007FF8
0000007FF8
0000007FF8
0000007FF8
0000007FF8
0000007FF8
0000007FF8
0000007FF8
0000007FF8
0000007FF8
0000007FF8
0000007FF8
0000007FF8
0000007FF8
0000007FF8
0000007FF8
0000007FF8
000000FFF8
000000FFF8
000000FFF0
000001FFF0
800001FFF0
E00003FFE0
FC000FFFE0
FF803FFFC0
FFFFFFFFC0
FFFFFFFF80
FFFFFFFF00
FFFFFFFE00
FFFFFFFC00
FFFFFFF800
FFFFFFE000
7FFFFF8000
07FFFC0000
ENDCHAR
STARTCHAR 006B
ENCODING 107
SWIDTH 550 0
DWIDTH 55 0
BBX 46 69 7 0
BITMAP
FFF000000000
FFF000000000
FFF000000000
FFF000000000
FFF000000000
FFF000000000
FFF000000000
FFF000000000
FFF000000000
FFF000000000
FFF000000000
FFF000000000
FFF000000000
FFF000000000
FFF000000000
FFF000000000
FFF000000000
FFF000000000
FFF000000000
FFF00007FFF0
FFF00007FFE0
FFF0000FFFE0
FFF0001FFFC0
FFF0003FFF80
FFF0007FFF00
FFF000FFFE00
FFF000FFFC00
FFF001FFF800
FFF003FFF000
FFF007FFE000
FFF00FFFE000
FFF00FFFC000
FFF01FFF8000
FFF03FFF0000
FFF07FFE0000
FFF0FFFC0000
FFF1FFF80000
FFF1FFF00000
FFF3FFE00000
FFF7FFE00000
FFFFFFC00000
FFFFFF800000
FFFFFF800000
FFFFFFC00000
FFFFFFC00000
FFF7FFE00000
FFF3FFF00000
FFF1FFF80000
FFF1FFFC0000
FFF0FFFC0000
FFF07FFE0000
FFF03FFF0000
FFF03FFF8000
FFF01FFFC000
FFF00FFFC000
FFF007FFE000
FFF007FFF000
FFF003FFF800
FFF001FFFC00
FFF001FFFC00
FFF000FFFE00
FFF0007FFF00
FFF0003FFF80
FFF0003FFFC0
FFF0001FFFC0
FFF0000FFFE0
FFF00007FFF0
FFF00007FFF8
FFF00003FFFC
ENDCHAR
STARTCHAR 006C
ENCODING 108
SWIDTH 550 0
DWIDTH 55 0
BBX 42 69 7 0
BITMAP
3FFFFFF00000
3FFFFFF00000
3FFFFFF00000
3FFFFFF00000
3FFFFFF00000
3FFFFFF00000
3FFFFFF00000
3FFFFFF00000
3FFFFFF00000
0000FFF00000
0000FFF00000
0000FFF00000
0000FFF00000
0000FFF00000
0000FFF00000
0000FFF00000
0000FFF00000
0000FFF00000
0000FFF00000
0000FFF00000
0000FFF00000
0000FFF00000
0000FFF00000
0000FFF00000
0000FFF00000
0000FFF00000
0000FFF00000
0000FFF00000
0000FFF00000
0000FFF00000
0000FFF00000
0000FFF00000
0000FFF00000
0000FFF00000
0000FFF00000
0000FFF00000
0000FFF00000
0000FFF00000
0000FFF00000
0000FFF00000
0000FFF00000
0000FFF00000
0000FFF00000
0000FFF00000
0000FFF00000
0000FFF00000
0000FFF00000
0000FFF00000
0000FFF00000
0000FFF00000
0000FFF00000
0000FFF00000
0000FFF00000
0000FFF00000
0000FFF00000
0000FFF00000
0000FFF00000
0000FFF00000
0000FFF00000
0000FFF00000
FFFFFFFFFFC0
FFFFFFFFFFC0
FFFFFFFFFFC0
FFFFFFFFFFC0
FFFFFFFFFFC0
FFFFFFFFFFC0
FFFFFFFFFFC0
FFFFFFFFFFC0
FFFFFFFFFFC0
ENDCHAR
STARTCHAR 006D
ENCODING 109
SWIDTH 550 0
DWIDTH 55 0
BBX 49 51 3 0
BITMAP
00003000020000
FF83FF003FE000
FF87FF80FFF800
FF8FFFC1FFFC00
FF9FFFE3FFFE00
FF9FFFE3FFFE00
FFBFFFF7FFFF00
FFFFFFFFFFFF00
FFFFFFFFFFFF00
FFFFFFFFFFFF80
FFFE3FFFC3FF80
FFFC1FFF83FF80
FFF81FFF83FF80
FFF81FFF01FF80
FFF01FFE01FF80
FFF01FFE01FF80
FFE01FFE01FF80
FFE01FFC01FF80
FFC01FFC01FF80
FFC01FFC01FF80
FFC01FFC01FF80
FFC01FFC01FF80
FFC01FFC01FF80
FFC01FFC01FF80
FFC01FFC01FF80
FFC01FFC01FF80
FFC01FFC01FF80
FFC01FFC01FF80
FFC01FFC01FF80
FFC01FFC01FF80
FFC01FFC01FF80
FFC01FFC01FF80
FFC01FFC01FF80
FFC01FFC01FF80
FFC01FFC01FF80
FFC01FFC01FF80
FFC01FFC01FF80
FFC01FFC01FF80
FFC01FFC01FF80
FFC01FFC01FF80
FFC01FFC01FF80
FFC01FFC01FF80
FFC01FFC01FF80
FFC01FFC01FF80
FFC01FFC01FF80
FFC01FFC01FF80
FFC01FFC01FF80
FFC01FFC01FF80
FFC01FFC01FF80
FFC01FFC01FF80
FFC01FFC01FF80
ENDCHAR
STARTCHAR 006E
ENCODING 110
SWIDTH 550 0
DWIDTH 55 0
BBX 41 51 7 0
BITMAP
000001F00000
FFC01FFF8000
FFC07FFFC000
FFC0FFFFF000
FFC3FFFFF800
FFC7FFFFFC00
FFCFFFFFFC00
FFDFFFFFFE00
FFDFFFFFFF00
FFFFFFFFFF00
FFFFFFFFFF00
FFFFF01FFF80
FFFFC00FFF80
FFFF800FFF80
FFFF0007FF80
FFFE0007FF80
FFFC0007FF80
FFF80007FF80
FFF80007FF80
FFF00007FF80
FFF00007FF80
FFF00007FF80
FFF00007FF80
FFF00007FF80
FFF00007FF80
FFF00007FF80
FFF00007FF80
FFF00007FF80
FFF00007FF80
FFF00007FF80
FFF00007FF80
FFF00007FF80
FFF00007FF80
FFF00007FF80
FFF00007FF80
FFF00007FF80
FFF00007FF80
FFF00007FF80
FFF00007FF80
FFF00007FF80
FFF00007FF80
FFF00007FF80
FFF00007FF80
FFF00007FF80
FFF00007FF80
FFF00007FF80
FFF00007FF80
FFF00007FF80
FFF00007FF80
FFF00007FF80
FFF00007FF80
ENDCHAR
STARTCHAR 006F
ENCODING 111
SWIDTH 550 0
DWIDTH 55 0
BBX 47 52 4 -1
BITMAP
000003C00000
0000FFFF0000
0007FFFFE000
001FFFFFF800
007FFFFFFE00
00FFFFFFFF00
01FFFFFFFF80
03FFFFFFFFC0
07FFFFFFFFE0
0FFFFFFFFFE0
0FFFFFFFFFF0
1FFFE00FFFF0
1FFF8003FFF8
3FFF0001FFF8
3FFE0000FFFC
7FFC00007FFC
7FFC00007FFC
7FF800003FFE
FFF800003FFE
FFF800003FFE
FFF800001FFE
FFF000001FFE
FFF000001FFE
FFF000001FFE
FFF000001FFE
FFF000001FFE
FFF000001FFE
FFF000001FFE
FFF000001FFE
FFF000001FFE
FFF000001FFE
FFF000001FFE
FFF800003FFE
FFF800003FFE
FFF800003FFC
FFFC00007FFC
7FFC00007FFC
7FFE0000FFF8
7FFF0001FFF8
3FFF8003FFF8
3FFFC007FFF0
1FFFF83FFFF0
1FFFFFFFFFE0
0FFFFFFFFFC0
07FFFFFFFF80
03FFFFFFFF00
01FFFFFFFE00
00FFFFFFFC00
007FFFFFF800
001FFFFFE000
0007FFFF8000
00007FF80000
ENDCHAR
STARTCHAR 0070
ENCODING 112
SWIDTH 550 0
DWIDTH 55 0
BBX 44 70 7 -19
BITMAP
000001F00000
FFC01FFF8000
FFC07FFFE000
FFC0FFFFF000
FFC3FFFFF800
FFC7FFFFFC00
FFCFFFFFFE00
FFDFFFFFFF00
FFDFFFFFFF80
FFFFFFFFFF80
FFFFFFFFFFC0
FFFFF01FFFC0
FFFFC00FFFC0
FFFF8007FFE0
FFFF0003FFE0
FFFE0003FFE0
FFFC0001FFF0
FFF80001FFF0
FFF80001FFF0
FFF00001FFF0
FFF00000FFF0
FFF00000FFF0
FFF00000FFF0
FFF00000FFF0
FFF00000FFF0
FFF00000FFF0
FFF00000FFF0
FFF00000FFF0
FFF00000FFF0
FFF00000FFF0
FFF00000FFF0
FFF00001FFF0
FFF00001FFF0
FFF00001FFF0
FFF00003FFE0
FFF00003FFE0
FFF00007FFE0
FFF00007FFC0
FFF0000FFFC0
FFF0001FFF80
FFF0003FFF80
FFF000FFFF00
FFFFFFFFFF00
FFFFFFFFFE00
FFFFFFFFFC00
FFFFFFFFF800
FFFFFFFFF000
FFFFFFFFE000
FFFFFFFF8000
FFFFFFFE0000
FFFFFFF00000
FFF3FF000000
FFF000000000
FFF000000000
FFF000000000
FFF000000000
FFF000000000
FFF000000000
FFF000000000
FFF000000000
FFF000000000
FFF000000000
FFF000000000
FFF000000000
FFF000000000
FFF000000000
FFF000000000
FFF000000000
FFF000000000
FFF000000000
ENDCHAR
STARTCHAR 0071
ENCODING 113
SWIDTH 550 0
DWIDTH 55 0
BBX 44 69 4 -18
BITMAP
00007FFF81F0
0003FFFFFFF0
000FFFFFFFF0
003FFFFFFFF0
007FFFFFFFF0
00FFFFFFFFF0
03FFFFFFFFF0
03FFFFFFFFF0
07FFFFFFFFF0
0FFFF803FFF0
1FFFE000FFF0
1FFF8000FFF0
3FFF0000FFF0
3FFF0000FFF0
3FFE0000FFF0
7FFC0000FFF0
7FFC0000FFF0
7FF80000FFF0
FFF80000FFF0
FFF80000FFF0
FFF80000FFF0
FFF80000FFF0
FFF00000FFF0
FFF00000FFF0
FFF00000FFF0
FFF00000FFF0
FFF00000FFF0
FFF00000FFF0
FFF00000FFF0
FFF00000FFF0
FFF00000FFF0
FFF80000FFF0
FFF80000FFF0
FFF80001FFF0
FFF80003FFF0
7FFC0007FFF0
7FFC0007FFF0
7FFE000FFFF0
3FFE001FFFF0
3FFF007FFFF0
3FFFC1FFFFF0
1FFFFFFFFFF0
1FFFFFFFFFF0
0FFFFFFFFFF0
07FFFFFF7FF0
07FFFFFE7FF0
03FFFFFC7FF0
01FFFFF87FF0
007FFFE07FF0
003FFFC07FF0
0007FE007FF0
00000000FFF0
00000000FFF0
00000000FFF0
00000000FFF0
00000000FFF0
00000000FFF0
00000000FFF0
00000000FFF0
00000000FFF0
00000000FFF0
00000000FFF0
00000000FFF0
00000000FFF0
00000000FFF0
00000000FFF0
00000000FFF0
00000000FFF0
00000000FFF0
ENDCHAR
STARTCHAR 0072
ENCODING 114
SWIDTH 550 0
DWIDTH 55 0
BBX 42 51 9 0
BITMAP
000000F00000
FFE00FFF8000
FFE07FFFE000
FFE0FFFFF000
FFE1FFFFF800
FFE7FFFFFC00
FFE7FFFFFE00
FFEFFFFFFE00
FFFFFFFFFF00
FFFFFFFFFF00
FFFFFC7FFF00
FFFFF01FFF80
FFFFC00FFF80
FFFF8007FF80
FFFF0007FF80
FFFE0007FF80
FFFC0003FFC0
FFF80003FFC0
FFF80003FFC0
FFF00003FFC0
FFF00003FFC0
FFF000000000
FFF000000000
FFF000000000
FFF000000000
FFF000000000
FFF000000000
FFF000000000
FFF000000000
FFF000000000
FFF000000000
FFF000000000
FFF000000000
FFF000000000
FFF000000000
FFF000000000
FFF000000000
FFF000000000
FFF000000000
FFF000000000
FFF000000000
FFF000000000
FFF000000000
FFF000000000
FFF000000000
FFF000000000
FFF000000000
FFF000000000
FFF000000000
FFF000000000
FFF000000000
ENDCHAR
STARTCHAR 0073
ENCODING 115
SWIDTH 550 0
DWIDTH 55 0
BBX 40 52 8 -1
BITMAP
00003FC000
000FFFFFC0
007FFFFFF0
01FFFFFFF0
07FFFFFFF0
0FFFFFFFF0
1FFFFFFFF0
3FFFFFFFF0
7FFFFFFFF0
7FFF803FF0
FFFE0000F0
FFF8000000
FFF8000000
FFF8000000
FFF8000000
FFF8000000
FFF8000000
FFFC000000
FFFF000000
FFFFC00000
FFFFF80000
7FFFFF0000
7FFFFFF000
3FFFFFFC00
1FFFFFFF00
0FFFFFFFC0
03FFFFFFE0
01FFFFFFF8
003FFFFFF8
000FFFFFFC
0000FFFFFE
00001FFFFE
000003FFFE
000000FFFE
0000007FFF
0000003FFF
0000001FFF
0000001FFF
0000001FFF
0000003FFE
E000003FFE
FC0000FFFE
FFE003FFFC
FFFFFFFFFC
FFFFFFFFF8
FFFFFFFFF0
FFFFFFFFF0
FFFFFFFFC0
FFFFFFFF80
FFFFFFFE00
7FFFFFF800
01FFFF8000
ENDCHAR
STARTCHAR 0074
ENCODING 116
SWIDTH 550 0
DWIDTH 55 0
BBX 45 66 3 -1
BITMAP
000003800000
00003F800000
0003FF800000
0007FF800000
0007FF800000
0007FF800000
0007FF800000
0007FF800000
0007FF800000
0007FF800000
0007FF800000
0007FF800000
0007FF800000
0007FF800000
0007FF800000
FFFFFFFFFFF8
FFFFFFFFFFF8
FFFFFFFFFFF8
FFFFFFFFFFF8
FFFFFFFFFFF8
FFFFFFFFFFF8
FFFFFFFFFFF8
FFFFFFFFFFF8
FFFFFFFFFFF8
FFFFFFFFFFF8
0007FF800000
0007FF800000
0007FF800000
0007FF800000
0007FF800000
0007FF800000
0007FF800000
0007FF800000
0007FF800000
0007FF800000
0007FF800000
0007FF800000
0007FF800000
0007FF800000
0007FF800000
0007FF800000
0007FF800000
0007FF800000
0007FF800000
0007FF800000
0007FF800000
0007FF800000
0007FF800000
0007FF800000
0007FF800000
0007FFC00000
0007FFC00000
0007FFC00000
0003FFE00000
0003FFE00000
0003FFF80018
0003FFFF1FF8
0001FFFFFFF8
0001FFFFFFF8
0000FFFFFFF8
0000FFFFFFF8
00007FFFFFF8
00003FFFFFF8
00000FFFFFF8
000003FFFFF8
0000007FFF00
ENDCHAR
STARTCHAR 0075
ENCODING 117
SWIDTH 550 0
DWIDTH 55 0
BBX 41 51 7 -1
BITMAP
FFF00007FF80
FFF00007FF80
FFF00007FF80
FFF00007FF80
FFF00007FF80
FFF00007FF80
FFF00007FF80
FFF00007FF80
FFF00007FF80
FFF00007FF80
FFF00007FF80
FFF00007FF80
FFF00007FF80
FFF00007FF80
FFF00007FF80
FFF00007FF80
FFF00007FF80
FFF00007FF80
FFF00007FF80
FFF00007FF80
FFF00007FF80
FFF00007FF80
FFF00007FF80
FFF00007FF80
FFF00007FF80
FFF00007FF80
FFF00007FF80
FFF00007FF80
FFF00007FF80
FFF00007FF80
FFF00007FF80
FFF00007FF80
FFF00007FF80
FFF0000FFF80
FFF0001FFF80
FFF0003FFF80
FFF0007FFF80
FFF000FFFF80
FFF801FFFF80
FFFC03FFFF80
7FFE0FFFFF80
7FFFFFFFFF80
7FFFFFFFFF80
3FFFFFFDFF80
3FFFFFF9FF80
1FFFFFF1FF80
0FFFFFE1FF80
07FFFFC1FF80
03FFFF01FF80
01FFFE01FF80
003FF0000000
ENDCHAR
STARTCHAR 0076
ENCODING 118
SWIDTH 550 0
DWIDTH 55 0
BBX 53 50 1 0
BITMAP
FFF8000000FFF8
7FFC000000FFF8
7FFC000001FFF0
7FFE000001FFF0
3FFE000001FFE0
3FFE000003FFE0
1FFF000003FFE0
1FFF000003FFC0
1FFF000007FFC0
0FFF800007FF80
0FFF800007FF80
07FF80000FFF80
07FFC0000FFF00
07FFC0001FFF00
03FFE0001FFE00
03FFE0001FFE00
01FFE0003FFE00
01FFF0003FFC00
01FFF0003FFC00
00FFF0007FFC00
00FFF8007FF800
00FFF800FFF800
007FFC00FFF000
007FFC00FFF000
003FFC01FFF000
003FFE01FFE000
003FFE01FFE000
001FFE03FFC000
001FFF03FFC000
000FFF03FFC000
000FFF07FF8000
000FFF87FF8000
0007FF87FF0000
0007FF8FFF0000
0003FFCFFF0000
0003FFDFFE0000
0003FFDFFE0000
0001FFFFFC0000
0001FFFFFC0000
0000FFFFFC0000
0000FFFFF80000
0000FFFFF80000
00007FFFF00000
00007FFFF00000
00003FFFF00000
00003FFFE00000
00003FFFE00000
00001FFFE00000
00001FFFC00000
00000FFFC00000
ENDCHAR
STARTCHAR 0077
ENCODING 119
SWIDTH 550 0
DWIDTH 55 0
BBX 54 50 0 0
BITMAP
FFF00000000FFC
7FF00000000FFC
7FF00000001FFC
7FF00000001FFC
7FF00000001FFC
7FF00000001FFC
7FF00000001FFC
7FF80000001FFC
3FF80000001FF8
3FF80000001FF8
3FF80000001FF8
3FF80000001FF8
3FF80000003FF8
3FF80000003FF8
3FFC01FF003FF8
1FFC01FF803FF0
1FFC03FF803FF0
1FFC03FF803FF0
1FFC03FFC03FF0
1FFC07FFC03FF0
1FFC07FFC03FF0
1FFC07FFE07FF0
0FFE0FFFE07FE0
0FFE0FFFF07FE0
0FFE0FFFF07FE0
0FFE1FFFF07FE0
0FFE1FFFF87FE0
0FFE1FFFF87FE0
0FFE3FFFF87FE0
07FE3FEFFC7FC0
07FF3FEFFCFFC0
07FF7FEFFCFFC0
07FF7FCFFEFFC0
07FF7FC7FEFFC0
07FF7FC7FEFFC0
07FFFF87FFFFC0
03FFFF83FFFF80
03FFFF83FFFF80
03FFFF03FFFF80
03FFFF01FFFF80
03FFFF01FFFF80
03FFFE01FFFF80
03FFFE00FFFF80
03FFFE00FFFF00
01FFFE00FFFF00
01FFFC007FFF00
01FFFC007FFF00
01FFFC007FFF00
01FFF8003FFF00
01FFF8003FFF00
ENDCHAR
STARTCHAR 0078
ENCODING 120
SWIDTH 550 0
DWIDTH 55 0
BBX 51 50 2 0
BITMAP
7FFE000007FFE0
7FFF00000FFFC0
3FFF80000FFF80
1FFF80001FFF00
0FFFC0003FFF00
0FFFE0003FFE00
07FFE0007FFC00
03FFF000FFFC00
03FFF800FFF800
01FFF801FFF000
00FFFC03FFF000
007FFE03FFE000
007FFE07FFC000
003FFF0FFF8000
001FFF8FFF8000
001FFF9FFF0000
000FFFFFFE0000
0007FFFFFE0000
0003FFFFFC0000
0003FFFFF80000
0001FFFFF80000
0000FFFFF00000
0000FFFFE00000
00007FFFC00000
00003FFFC00000
00003FFFC00000
00007FFFE00000
0000FFFFE00000
0000FFFFF00000
0001FFFFF80000
0003FFFFFC0000
0007FFFFFC0000
0007FFFFFE0000
000FFFBFFF0000
001FFFBFFF0000
003FFF1FFF8000
003FFE0FFFC000
007FFE0FFFE000
00FFFC07FFE000
01FFF803FFF000
01FFF003FFF800
03FFF001FFF800
07FFE000FFFC00
0FFFC000FFFE00
0FFFC0007FFF00
1FFF80003FFF00
3FFF00003FFF80
7FFF00001FFFC0
7FFE00000FFFC0
FFFC00000FFFE0
ENDCHAR
STARTCHAR 0079
ENCODING 121
SWIDTH 550 0
DWIDTH 55 0
BBX 53 70 1 -21
BITMAP
FFF8000000FFF8
7FFC000000FFF8
7FFC000001FFF0
7FFE000001FFF0
3FFE000001FFE0
3FFE000003FFE0
1FFF000003FFE0
1FFF000003FFC0
1FFF000007FFC0
0FFF800007FF80
0FFF800007FF80
07FF80000FFF80
07FFC0000FFF00
07FFC0001FFF00
03FFE0001FFE00
03FFE0001FFE00
01FFE0003FFE00
01FFF0003FFC00
01FFF0003FFC00
00FFF0007FF800
00FFF8007FF800
00FFF800FFF800
007FFC00FFF000
007FFC00FFF000
003FFC01FFF000
003FFE01FFE000
003FFE01FFE000
001FFE03FFC000
001FFF03FFC000
000FFF03FFC000
000FFF07FF8000
000FFF87FF8000
0007FF87FF0000
0007FF8FFF0000
0003FFCFFF0000
0003FFDFFE0000
0003FFDFFE0000
0001FFFFFC0000
0001FFFFFC0000
0000FFFFFC0000
0000FFFFF80000
0000FFFFF80000
00007FFFF00000
00007FFFF00000
00003FFFF00000
00003FFFE00000
00003FFFE00000
00001FFFC00000
00001FFFC00000
00000FFF800000
00000FFF800000
00001FFF800000
00001FFF000000
00003FFF000000
00007FFE000000
00007FFC000000
0000FFFC000000
0001FFF8000000
0003FFF8000000
000FFFF0000000
3FFFFFE0000000
3FFFFFC0000000
3FFFFFC0000000
3FFFFF80000000
3FFFFF00000000
3FFFFC00000000
3FFFF800000000
3FFFE000000000
3FFF8000000000
3FFE0000000000
ENDCHAR
STARTCHAR 007A
ENCODING 122
SWIDTH 550 0
DWIDTH 55 0
BBX 41 50 7 0
BITMAP
7FFFFFFFFF00
7FFFFFFFFF00
7FFFFFFFFF00
7FFFFFFFFF00
7FFFFFFFFF00
7FFFFFFFFF00
7FFFFFFFFF00
7FFFFFFFFF00
7FFFFFFFFF00
7FFFFFFFFF00
7FFFFFFFFE00
000000FFFC00
000001FFF800
000003FFF800
000003FFF000
000007FFE000
00000FFFC000
00001FFFC000
00003FFF8000
00003FFF0000
00007FFE0000
0000FFFC0000
0001FFFC0000
0001FFF80000
0003FFF00000
0007FFE00000
000FFFE00000
001FFFC00000
001FFF800000
003FFF000000
007FFF000000
00FFFE000000
01FFFC000000
01FFF8000000
03FFF0000000
07FFF0000000
0FFFE0000000
0FFFC0000000
1FFF80000000
3FFFFFFFFF80
7FFFFFFFFF80
FFFFFFFFFF80
FFFFFFFFFF80
FFFFFFFFFF80
FFFFFFFFFF80
FFFFFFFFFF80
FFFFFFFFFF80
FFFFFFFFFF80
FFFFFFFFFF80
FFFFFFFFFF80
ENDCHAR
STARTCHAR 007B
ENCODING 123
SWIDTH 550 0
DWIDTH 55 0
BBX 37 90 7 -19
BITMAP
0000003FF8
000001FFF8
000007FFF8
00000FFFF8
00003FFFF8
00007FFFF8
00007FFFF8
0000FFFFF8
0001FFFFF8
0001FFFC00
0001FFF000
0003FFE000
0003FFC000
0003FF8000
0003FF8000
0007FF8000
0007FF0000
0007FF0000
0007FF0000
0007FF0000
0007FF0000
0007FF0000
0007FF0000
0007FF0000
0007FF0000
0007FF0000
0007FF0000
0007FF0000
0007FF0000
0007FF0000
0007FF0000
0007FF0000
0007FF0000
0007FF0000
000FFE0000
000FFE0000
001FFE0000
007FFC0000
FFFFFC0000
FFFFF80000
FFFFF00000
FFFFE00000
FFFF000000
FFFF000000
FFFFE00000
FFFFF00000
FFFFF80000
FFFFFC0000
007FFC0000
003FFE0000
001FFE0000
000FFE0000
000FFF0000
0007FF0000
0007FF0000
0007FF0000
0007FF0000
0007FF0000
0007FF0000
0007FF0000
0007FF0000
0007FF0000
0007FF0000
0007FF0000
0007FF0000
0007FF0000
0007FF0000
0007FF0000
0007FF0000
0007FF0000
0007FF0000
0007FF0000
0007FF0000
0007FF0000
0007FF0000
0003FF8000
0003FF8000
0003FFC000
0003FFC000
0001FFF000
0001FFFC00
0001FFFFF8
0000FFFFF8
0000FFFFF8
00007FFFF8
00003FFFF8
00001FFFF8
000007FFF8
000001FFF8
0000003FF8
ENDCHAR
STARTCHAR 007C
ENCODING 124
SWIDTH 550 0
DWIDTH 55 0
BBX 11 100 22 -20
BITMAP
FFE0
FFE0
FFE0
FFE0
FFE0
FFE0
FFE0
FFE0
FFE0
FFE0
FFE0
FFE0
FFE0
FFE0
FFE0
FFE0
FFE0
FFE0
FFE0
FFE0
FFE0
FFE0
FFE0
FFE0
FFE0
FFE0
FFE0
FFE0
FFE0
FFE0
FFE0
FFE0
FFE0
FFE0
FFE0
FFE0
FFE0
FFE0
FFE0
FFE0
FFE0
FFE0
FFE0
FFE0
FFE0
FFE0
FFE0
FFE0
FFE0
FFE0
FFE0
FFE0
FFE0
FFE0
FFE0
FFE0
FFE0
FFE0
FFE0
FFE0
FFE0
FFE0
FFE0
FFE0
FFE0
FFE0
FFE0
FFE0
FFE0
FFE0
FFE0
FFE0
FFE0
FFE0
FFE0
FFE0
FFE0
FFE0
FFE0
FFE0
FFE0
FFE0
FFE0
FFE0
FFE0
FFE0
FFE0
FFE0
FFE0
FFE0
FFE0
FFE0
FFE0
FFE0
FFE0
FFE0
FFE0
FFE0
FFE0
FFE0
ENDCHAR
STARTCHAR 007D
ENCODING 125
SWIDTH 550 0
DWIDTH 55 0
BBX 37 90 11 -19
BITMAP
FFC0000000
FFFC000000
FFFF000000
FFFF800000
FFFFE00000
FFFFF00000
FFFFF00000
FFFFF80000
FFFFFC0000
01FFFC0000
007FFC0000
003FFE0000
001FFE0000
000FFE0000
000FFE0000
000FFF0000
0007FF0000
0007FF0000
0007FF0000
0007FF0000
0007FF0000
0007FF0000
0007FF0000
0007FF0000
0007FF0000
0007FF0000
0007FF0000
0007FF0000
0007FF0000
0007FF0000
0007FF0000
0007FF0000
0007FF0000
0007FF8000
0003FF8000
0003FFC000
0003FFE000
0001FFF000
0001FFFFF8
0000FFFFF8
00007FFFF8
00003FFFF8
000007FFF8
000007FFF8
00003FFFF8
00007FFFF8
0000FFFFF8
0001FFFFF8
0001FFF000
0003FFC000
0003FF8000
0003FF8000
0007FF0000
0007FF0000
0007FF0000
0007FF0000
0007FF0000
0007FF0000
0007FF0000
0007FF0000
0007FF0000
0007FF0000
0007FF0000
0007FF0000
0007FF0000
0007FF0000
0007FF0000
0007FF0000
0007FF0000
0007FF0000
0007FF0000
0007FF0000
0007FF0000
0007FF0000
0007FF0000
000FFE0000
000FFE0000
001FFE0000
001FFE0000
007FFC0000
01FFFC0000
FFFFFC0000
FFFFF80000
FFFFF80000
FFFFF00000
FFFFE00000
FFFFC00000
FFFF000000
FFFC000000
FFE0000000
ENDCHAR
STARTCHAR 007E
ENCODING 126
SWIDTH 550 0
DWIDTH 55 0
BBX 51 22 2 16
BITMAP
001FE000000000
00FFFC00000000
01FFFE00000000
07FFFF80007FE0
0FFFFFC0007FE0
0FFFFFE0007FE0
1FFFFFF000FFE0
3FFFFFF800FFC0
3FFFFFFC00FFC0
3FFFFFFE00FFC0
7FFCFFFF01FFC0
7FF03FFFC3FFC0
7FE01FFFFFFF80
7FE007FFFFFF80
7FE003FFFFFF80
FFC001FFFFFF00
FFC000FFFFFE00
FFC0007FFFFE00
FFC0003FFFFC00
0000001FFFF800
00000007FFE000
00000001FF8000
ENDCHAR
STARTCHAR 00A0
ENCODING 160
SWIDTH 550 0
DWIDTH 55 0
BBX 0 0 0 0
BITMAP
ENDCHAR
STARTCHAR 00A1
ENCODING 161
SWIDTH 550 0
DWIDTH 55 0
BBX 15 70 20 -19
BITMAP
0380
1FF0
3FF8
7FFC
7FFC
FFFE
FFFE
FFFE
FFFE
FFFE
FFFE
7FFC
7FFC
3FF8
0FE0
0000
0000
0000
0000
0000
0000
3FF8
3FF8
3FF8
3FF8
3FF8
3FF8
3FF8
3FF8
3FF8
3FF8
3FF8
3FF8
3FF8
3FF8
3FF8
3FF8
3FF8
3FF8
3FF8
3FF8
3FF8
3FF8
3FF8
3FF8
3FFC
7FFC
7FFC
7FFC
7FFC
7FFC
7FFC
7FFC
7FFC
7FFC
7FFC
7FFC
7FFC
7FFC
7FFC
7FFC
7FFC
7FFC
7FFC
7FFC
7FFC
7FFC
7FFC
7FFC
7FFC
ENDCHAR
STARTCHAR 00A2
ENCODING 162
SWIDTH 550 0
DWIDTH 55 0
BBX 39 85 6 -12
BITMAP
0000001FE0
0000003FE0
0000003FE0
0000003FE0
0000003FE0
0000003FC0
0000003FC0
0000003FC0
0000007FC0
0000007FC0
0000007FC0
0000007FC0
0000007FC0
0000007F80
0000007F80
0000007F80
00001FFFC0
0001FFFFFE
0007FFFFFE
001FFFFFFE
007FFFFFFE
00FFFFFFFE
01FFFFFFFE
03FFFFFFFE
07FFFFFFFE
0FFFFFFFFE
1FFFF9FFFE
1FFFC1FF0E
3FFF81FE02
3FFF01FE00
7FFE01FE00
7FFC03FE00
7FFC03FE00
FFF803FE00
FFF803FE00
FFF803FC00
FFF003FC00
FFF003FC00
FFF003FC00
FFF007FC00
FFF007FC00
FFF007FC00
FFF007FC00
FFF007F800
FFF007F800
FFF807F800
FFF80FF800
FFF80FF800
FFFC0FF800
FFFC0FF800
7FFE0FF000
7FFF0FF000
7FFF8FF002
3FFFEFF01E
3FFFFFF1FE
1FFFFFFFFE
0FFFFFFFFE
07FFFFFFFE
07FFFFFFFE
03FFFFFFFE
00FFFFFFFE
007FFFFFFE
001FFFFFFE
0007FFFFF0
00007FFF00
00003FC000
00003FC000
00003FC000
00003FC000
00007FC000
00007FC000
00007FC000
00007FC000
00007F8000
00007F8000
00007F8000
0000FF8000
0000FF8000
0000FF8000
0000FF8000
0000FF0000
0000FF0000
0000FF0000
0000FF0000
0001FF0000
ENDCHAR
STARTCHAR 00A3
ENCODING 163
SWIDTH 550 0
DWIDTH 55 0
BBX 46 65 4 0
BITMAP
000000FF8000
00000FFFF800
00007FFFFF00
0000FFFFFFC0
0003FFFFFFE0
0007FFFFFFF8
000FFFFFFFFC
001FFFFFFFFC
001FFFFFFFF8
003FFFFFFFF0
003FFF803FE0
007FFE000FE0
007FFC0003C0
00FFF8000180
00FFF0000000
00FFF0000000
00FFF0000000
00FFE0000000
01FFE0000000
01FFE0000000
01FFE0000000
01FFE0000000
01FFE0000000
01FFE0000000
01FFE0000000
01FFE0000000
01FFE0000000
01FFE0000000
01FFE0000000
FFFFFFFFFE00
FFFFFFFFFE00
FFFFFFFFFE00
FFFFFFFFFE00
FFFFFFFFFE00
FFFFFFFFFE00
FFFFFFFFFE00
FFFFFFFFFE00
FFFFFFFFFE00
01FFE0000000
01FFE0000000
01FFE0000000
01FFE0000000
01FFE0000000
01FFE0000000
01FFE0000000
01FFE0000000
01FFE0000000
01FFE0000000
01FFE0000000
01FFE0000000
01FFE0000000
01FFE0000000
01FFE0000000
01FFE0000000
01FFE0000000
FFFFFFFFFFF8
FFFFFFFFFFF8
FFFFFFFFFFF8
FFFFFFFFFFF8
FFFFFFFFFFF8
FFFFFFFFFFF8
FFFFFFFFFFF8
FFFFFFFFFFF8
FFFFFFFFFFF8
FFFFFFFFFFF8
ENDCHAR
STARTCHAR 00A4
ENCODING 164
SWIDTH 550 0
DWIDTH 55 0
BBX 51 62 2 1
BITMAP
00600000006000
01E0000000F000
07F0000001FC00
1FF8000003FF00
7FF8000003FFC0
FFFC000007FFE0
7FFE00000FFFC0
3FFF00000FFF80
3FFF00001FFF00
1FFF80003FFF00
0FFFDFFFBFFE00
07FFFFFFFFFC00
07FFFFFFFFF800
03FFFFFFFFF800
01FFFFFFFFF000
00FFFFFFFFE000
00FFFFFFFFC000
007FFFFFFFC000
007FFFFFFFC000
00FFFE0FFFE000
00FFF803FFE000
00FFF000FFF000
01FFE000FFF000
01FFC0007FF000
01FFC0007FF000
03FFC0003FF800
03FF80003FF800
03FF80003FF800
03FF80003FF800
03FF80003FF800
03FF80003FF800
03FF80003FF800
03FF80003FF800
03FF80003FF800
03FF80003FF800
03FF80003FF800
03FFC0007FF000
01FFC0007FF000
01FFE000FFF000
01FFE000FFF000
01FFF001FFE000
00FFFC07FFE000
00FFFFFFFFC000
007FFFFFFFC000
007FFFFFFFC000
00FFFFFFFFE000
00FFFFFFFFF000
01FFFFFFFFF000
03FFFFFFFFF800
07FFFFFFFFFC00
0FFFFFFFFFFE00
0FFF87F83FFE00
1FFF00001FFF00
3FFF00001FFF80
7FFE00000FFFC0
7FFC000007FFC0
FFFC000007FFC0
3FF8000003FF80
0FF0000001FE00
03E0000001F800
00E0000000E000
00400000000000
ENDCHAR
STARTCHAR 00A5
ENCODING 165
SWIDTH 550 0
DWIDTH 55 0
BBX 51 64 2 0
BITMAP
FFF8000003FFE0
7FFC000003FFE0
7FFE000007FFC0
3FFE00000FFF80
3FFF00000FFF80
1FFF00001FFF00
0FFF80001FFF00
0FFF80003FFE00
07FFC0003FFC00
07FFC0007FFC00
03FFE0007FF800
03FFE000FFF800
01FFF000FFF000
00FFF801FFF000
00FFF801FFE000
007FFC03FFC000
007FFC03FFC000
003FFE07FF8000
003FFE07FF8000
001FFF0FFF0000
000FFF0FFE0000
000FFF9FFE0000
0007FF9FFC0000
0007FFFFFC0000
0003FFFFF80000
0003FFFFF80000
0001FFFFF00000
0000FFFFE00000
0000FFFFE00000
00007FFFC00000
00007FFFC00000
00003FFF800000
00001FFF000000
00001FFF000000
00000FFE000000
00000FFE000000
07FFFFFFFFFC00
07FFFFFFFFFC00
07FFFFFFFFFC00
07FFFFFFFFFC00
07FFFFFFFFFC00
07FFFFFFFFFC00
07FFFFFFFFFC00
00000FFE000000
00000FFE000000
00000FFE000000
00000FFE000000
00000FFE000000
00000FFE000000
00000FFE000000
07FFFFFFFFFC00
07FFFFFFFFFC00
07FFFFFFFFFC00
07FFFFFFFFFC00
07FFFFFFFFFC00
07FFFFFFFFFC00
07FFFFFFFFFC00
00000FFE000000
00000FFE000000
00000FFE000000
00000FFE000000
00000FFE000000
00000FFE000000
00000FFE000000
ENDCHAR
STARTCHAR 00A6
ENCODING 166
SWIDTH 550 0
DWIDTH 55 0
BBX 11 100 22 -20
BITMAP
FFE0
FFE0
FFE0
FFE0
FFE0
FFE0
FFE0
FFE0
FFE0
FFE0
FFE0
FFE0
FFE0
FFE0
FFE0
FFE0
FFE0
FFE0
FFE0
FFE0
FFE0
FFE0
FFE0
FFE0
FFE0
FFE0
FFE0
FFE0
FFE0
FFE0
FFE0
FFE0
FFE0
FFE0
FFE0
FFE0
FFE0
FFE0
FFE0
FFE0
FFE0
0000
0000
0000
0000
0000
0000
0000
0000
0000
0000
0000
0000
0000
0000
0000
0000
0000
FFE0
FFE0
FFE0
FFE0
FFE0
FFE0
FFE0
FFE0
FFE0
FFE0
FFE0
FFE0
FFE0
FFE0
FFE0
FFE0
FFE0
FFE0
FFE0
FFE0
FFE0
FFE0
FFE0
FFE0
FFE0
FFE0
FFE0
FFE0
FFE0
FFE0
FFE0
FFE0
FFE0
FFE0
FFE0
FFE0
FFE0
FFE0
FFE0
FFE0
FFE0
FFE0
ENDCHAR
STARTCHAR 00A7
ENCODING 167
SWIDTH 550 0
DWIDTH 55 0
BBX 47 82 4 -12
BITMAP
000003FFE000
00003FFFFFC0
0000FFFFFFE0
0003FFFFFFE0
000FFFFFFFE0
001FFFFFFFE0
003FFFFFFFE0
007FFFFFFFE0
007FFFFFFFE0
00FFFF007FE0
00FFFC0001E0
01FFF0000000
01FFF0000000
01FFF0000000
01FFF0000000
01FFF0000000
01FFF0000000
01FFF8000000
01FFFC000000
00FFFF000000
00FFFF800000
007FFFE00000
007FFFF80000
00FFFFFC0000
01FFFFFF0000
07FFFFFFC000
07FFFFFFE000
0FFFFFFFF800
1FFFFFFFFC00
3FFFFFFFFF00
3FFF3FFFFF80
3FFE0FFFFFC0
7FFC03FFFFE0
7FFC01FFFFF0
7FF8007FFFF0
FFF8001FFFF8
FFF8000FFFF8
FFF80003FFFC
FFFC0001FFFC
7FFC0000FFFE
7FFE00007FFE
7FFF00007FFE
7FFF80003FFE
3FFFC0003FFE
3FFFE0003FFE
1FFFF8003FFE
1FFFFE003FFE
0FFFFF003FFE
07FFFFC03FFE
03FFFFF07FFC
01FFFFF8FFFC
00FFFFFFFFF8
007FFFFFFFF8
001FFFFFFFF0
000FFFFFFFE0
0003FFFFFFE0
0000FFFFFFC0
00007FFFFF00
00001FFFFE00
000007FFFE00
000001FFFF00
000000FFFF00
0000007FFF00
0000003FFF80
0000001FFF80
0000000FFF80
0000000FFF80
0000000FFF80
0000000FFF00
4000001FFF00
7800003FFF00
7FC000FFFF00
7FFFFFFFFE00
7FFFFFFFFC00
7FFFFFFFFC00
7FFFFFFFF800
7FFFFFFFF000
7FFFFFFFE000
7FFFFFFF8000
7FFFFFFE0000
03FFFFF00000
000030000000
ENDCHAR
STARTCHAR 00A8
ENCODING 168
SWIDTH 550 0
DWIDTH 55 0
BBX 33 14 11 50
BITMAP
0F00007800
3FC001FE00
7FE003FF00
7FF007FF00
FFF80FFF80
FFF80FFF80
FFF80FFF80
FFF80FFF80
FFF80FFF80
FFF007FF80
7FF007FF00
7FE003FF00
1FC001FC00
0600007000
ENDCHAR
STARTCHAR 00A9
ENCODING 169
SWIDTH 550 0
DWIDTH 55 0
BBX 53 66 1 -1
BITMAP
000003FE000000
00003FFFE00000
0000FFFFF80000
0003FFFFFE0000
000FFFFFFF0000
001FFFFFFFC000
003FFFFFFFE000
007FFFFFFFF000
00FFF800FFF800
01FFE0003FFC00
03FF80000FFE00
03FF000007FE00
07FE000003FF00
07FC000001FF00
0FF8000000FF80
1FF8000000FF80
1FF0003FE07FC0
1FE001FFF03FC0
3FE007FFF03FE0
3FC00FFFF03FE0
3FC01FFFF01FE0
7FC03FFFF01FF0
7F807FFFF01FF0
7F807FFFF00FF0
7F80FFF8300FF0
FF80FFE0000FF8
FF80FFC0000FF8
FF01FFC00007F8
FF01FF800007F8
FF01FF800007F8
FF01FF800007F8
FF01FF800007F8
FF01FF800007F8
FF01FF800007F8
FF01FF800007F8
FF01FF800007F8
FF01FF800007F8
FF01FF800007F8
FF01FF800007F8
FF81FFC0000FF8
FF81FFE0000FF8
FF80FFF8700FF0
7F80FFFFF00FF0
7F807FFFF00FF0
7FC07FFFF01FF0
7FC03FFFF01FE0
3FC01FFFF01FE0
3FE00FFFF03FE0
3FE003FFF03FC0
1FF000FFE07FC0
1FF00000007FC0
1FF8000000FF80
0FFC000001FF80
0FFE000003FF00
07FF000007FE00
03FF80000FFE00
03FFE0003FFC00
01FFF800FFF800
00FFFFFFFFF000
007FFFFFFFE000
003FFFFFFFC000
001FFFFFFF8000
0007FFFFFE0000
0001FFFFFC0000
00007FFFE00000
00000FFF000000
ENDCHAR
STARTCHAR 00AA
ENCODING 170
SWIDTH 550 0
DWIDTH 55 0
BBX 33 48 11 17
BITMAP
003FF00000
07FFFF0000
3FFFFFC000
3FFFFFE000
3FFFFFF000
3FFFFFF800
3FFFFFF800
3FC07FFC00
3C000FFC00
20000FFC00
000007FC00
000007FC00
000007FC00
000007FC00
001FFFFC00
01FFFFFC00
07FFFFFC00
1FFFFFFC00
3FFFFFFC00
7FFFFFFC00
7FF807FC00
FFE007FC00
FFC007FC00
FFC007FC00
FFC007FC00
FFC00FFC00
FFC01FFC00
FFF07FFC00
FFFFFFFC00
7FFFFFFC00
7FFFFFFC00
3FFFFBFC00
1FFFF3FC00
0FFFC3FC00
01FE000000
0000000000
0000000000
0000000000
0000000000
0000000000
FFFFFFFF80
FFFFFFFF80
FFFFFFFF80
FFFFFFFF80
FFFFFFFF80
FFFFFFFF80
FFFFFFFF80
FFFFFFFF80
ENDCHAR
STARTCHAR 00AB
ENCODING 171
SWIDTH 550 0
DWIDTH 55 0
BBX 43 40 6 7
BITMAP
000E00002000
001F80007800
001FE000FE00
003FF800FF80
007FF801FFE0
007FF803FFC0
00FFF007FF80
01FFE007FF00
01FFE00FFF00
03FFC01FFE00
07FF801FFC00
07FF803FFC00
0FFF007FF800
0FFE007FF000
1FFC00FFF000
3FFC01FFE000
3FF801FFC000
7FF003FF8000
FFF007FF8000
FFE007FF0000
FFF007FF8000
7FF003FF8000
3FF801FFC000
3FFC01FFE000
1FFC00FFF000
1FFE007FF000
0FFF007FF800
07FF803FFC00
07FF801FFC00
03FFC01FFE00
01FFE00FFF00
01FFE007FF00
00FFF007FF80
007FF803FFC0
007FF801FFE0
003FF801FF80
003FE000FE00
001F80007800
000E00006000
000800000000
ENDCHAR
STARTCHAR 00AC
ENCODING 172
SWIDTH 550 0
DWIDTH 55 0
BBX 43 23 5 8
BITMAP
FFFFFFFFFFE0
FFFFFFFFFFE0
FFFFFFFFFFE0
FFFFFFFFFFE0
FFFFFFFFFFE0
FFFFFFFFFFE0
FFFFFFFFFFE0
FFFFFFFFFFE0
FFFFFFFFFFE0
000000007FE0
000000007FE0
000000007FE0
000000007FE0
000000007FE0
000000007FE0
000000007FE0
000000007FE0
000000007FE0
000000007FE0
000000007FE0
000000007FE0
000000007FE0
000000007FE0
ENDCHAR
STARTCHAR 00AD
ENCODING 173
SWIDTH 550 0
DWIDTH 55 0
BBX 31 11 12 21
BITMAP
FFFFFFFE
FFFFFFFE
FFFFFFFE
FFFFFFFE
FFFFFFFE
FFFFFFFE
FFFFFFFE
FFFFFFFE
FFFFFFFE
FFFFFFFE
FFFFFFFE
ENDCHAR
STARTCHAR 00AE
ENCODING 174
SWIDTH 550 0
DWIDTH 55 0
BBX 49 48 3 22
BITMAP
00001FFC000000
0000FFFF800000
0003FFFFE00000
000FFFFFF80000
003FFFFFFE0000
007FFFFFFF0000
00FFFC1FFF8000
01FFC001FFC000
03FF00007FE000
07FC00001FF000
0FF9FFF80FF000
0FF1FFFF07F800
1FE1FFFF83FC00
1FC1FFFFC1FC00
3FC1FFFFC1FE00
3F81FC3FC0FE00
7F81FC0FC0FE00
7F01FC0FC07F00
7F01FC0FC07F00
7F01FC0FC07F00
7E01FC1FC03F00
FE01FCFF803F80
FE01FFFF803F80
FE01FFFE003F80
FE01FFFC003F80
FE01FFFE003F80
FE01FCFE003F80
7E01FC7F003F00
7F01FC7F007F00
7F01FC3F807F00
7F01FC3F807F00
7F81FC1FC0FF00
3F81FC1FC0FE00
3FC1FC0FE1FE00
1FC1FC0FE1FC00
1FE1FC0FF3FC00
0FF1FC07F7F800
0FF800000FF800
07FC00001FF000
03FF00007FE000
01FFC001FFC000
00FFF80FFF8000
007FFFFFFF0000
003FFFFFFE0000
001FFFFFFC0000
0007FFFFF00000
0001FFFFC00000
00003FFE000000
ENDCHAR
STARTCHAR 00AF
ENCODING 175
SWIDTH 550 0
DWIDTH 55 0
BBX 27 8 14 50
BITMAP
FFFFFFE0
FFFFFFE0
FFFFFFE0
FFFFFFE0
FFFFFFE0
FFFFFFE0
FFFFFFE0
FFFFFFE0
ENDCHAR
STARTCHAR 00B0
ENCODING 176
SWIDTH 550 0
DWIDTH 55 0
BBX 37 34 9 36
BITMAP
0007FF0000
003FFFE000
00FFFFF800
01FFFFFE00
07FFFFFF00
0FFFFFFF80
0FFFFFFFC0
1FFFFFFFC0
3FFF8FFFE0
3FFC01FFE0
7FF800FFF0
7FF0007FF0
7FE0003FF0
7FE0003FF0
FFE0003FF8
FFE0003FF8
FFE0003FF8
FFC0003FF8
FFE0003FF8
FFE0003FF8
FFE0003FF0
7FE0003FF0
7FF0007FF0
7FF000FFF0
3FFC01FFE0
3FFF07FFE0
3FFFFFFFC0
1FFFFFFFC0
0FFFFFFF80
07FFFFFF00
03FFFFFE00
01FFFFF800
007FFFE000
000FFF8000
ENDCHAR
STARTCHAR 00B1
ENCODING 177
SWIDTH 550 0
DWIDTH 55 0
BBX 45 60 5 0
BITMAP
00007FF00000
00007FF00000
00007FF00000
00007FF00000
00007FF00000
00007FF00000
00007FF00000
00007FF00000
00007FF00000
00007FF00000
00007FF00000
00007FF00000
00007FF00000
00007FF00000
00007FF00000
00007FF00000
00007FF00000
FFFFFFFFFFF8
FFFFFFFFFFF8
FFFFFFFFFFF8
FFFFFFFFFFF8
FFFFFFFFFFF8
FFFFFFFFFFF8
FFFFFFFFFFF8
FFFFFFFFFFF8
FFFFFFFFFFF8
FFFFFFFFFFF8
00007FF00000
00007FF00000
00007FF00000
00007FF00000
00007FF00000
00007FF00000
00007FF00000
00007FF00000
00007FF00000
00007FF00000
00007FF00000
00007FF00000
00007FF00000
00007FF00000
00007FF00000
00007FF00000
00007FF00000
000000000000
000000000000
000000000000
000000000000
000000000000
000000000000
000000000000
7FFFFFFFFFE0
7FFFFFFFFFE0
7FFFFFFFFFE0
7FFFFFFFFFE0
7FFFFFFFFFE0
7FFFFFFFFFE0
7FFFFFFFFFE0
7FFFFFFFFFE0
7FFFFFFFFFE0
ENDCHAR
STARTCHAR 00B2
ENCODING 178
SWIDTH 550 0
DWIDTH 55 0
BBX 32 39 11 31
BITMAP
0003C000
00FFFE00
03FFFFC0
1FFFFFE0
3FFFFFF0
FFFFFFF8
7FFFFFFC
7FFFFFFC
3FFFFFFE
1FFFFFFE
0F807FFE
0E003FFE
00001FFE
00003FFE
00003FFE
00003FFE
00007FFC
0000FFFC
0001FFF8
0003FFF8
0007FFF0
000FFFE0
001FFFC0
003FFF80
007FFF00
00FFFC00
03FFF800
07FFF000
0FFFC000
1FFF8000
3FFFFFFF
7FFFFFFF
7FFFFFFF
7FFFFFFF
7FFFFFFF
7FFFFFFF
7FFFFFFF
7FFFFFFF
7FFFFFFF
ENDCHAR
STARTCHAR 00B3
ENCODING 179
SWIDTH 550 0
DWIDTH 55 0
BBX 31 40 12 30
BITMAP
00FF8000
1FFFF800
7FFFFE00
7FFFFF80
7FFFFFC0
7FFFFFE0
7FFFFFF0
7FFFFFF0
7FFFFFF0
7000FFF0
0000FFF0
00007FF0
00007FF0
0000FFF0
0000FFF0
0003FFE0
07FFFFC0
07FFFF80
07FFFF00
07FFFF00
07FFFFE0
07FFFFF0
07FFFFF8
07FFFFFC
0000FFFE
00003FFE
00003FFE
00001FFE
00001FFE
00003FFE
00003FFE
8001FFFC
FFFFFFFC
FFFFFFFC
FFFFFFF8
FFFFFFF0
FFFFFFE0
FFFFFF80
FFFFFE00
FFFFE000
ENDCHAR
STARTCHAR 00B4
ENCODING 180
SWIDTH 550 0
DWIDTH 55 0
BBX 28 13 22 50
BITMAP
000FFFF0
001FFFC0
003FFF80
007FFF00
00FFFC00
01FFF800
03FFF000
07FFC000
0FFF8000
1FFF0000
3FFC0000
7FF80000
FFF00000
ENDCHAR
STARTCHAR 00B5
ENCODING 181
SWIDTH 550 0
DWIDTH 55 0
BBX 46 69 7 -19
BITMAP
FFF00007FF80
FFF00007FF80
FFF00007FF80
FFF00007FF80
FFF00007FF80
FFF00007FF80
FFF00007FF80
FFF00007FF80
FFF00007FF80
FFF00007FF80
FFF00007FF80
FFF00007FF80
FFF00007FF80
FFF00007FF80
FFF00007FF80
FFF00007FF80
FFF00007FF80
FFF00007FF80
FFF00007FF80
FFF00007FF80
FFF00007FF80
FFF00007FF80
FFF00007FF80
FFF00007FF80
FFF00007FF80
FFF00007FF80
FFF00007FF80
FFF00007FF80
FFF00007FF80
FFF00007FF80
FFF00007FF80
FFF00007FF80
FFF0000FFF80
FFF0001FFF80
FFF0003FFF80
FFF0003FFF80
FFF0007FFF80
FFF000FFFF80
FFF801FFFF80
FFF807FFFF80
FFFE0FFFFFE0
FFFFFFFFFFFC
FFFFFFFFFFFC
FFFFFFFBFFFC
FFFFFFFBFFFC
FFFFFFF1FFFC
FFFFFFE1FFFC
FFFFFFC1FFFC
FFFFFF80FFFC
FFFFFE007FFC
FFE7F8000FF0
FFE000000000
FFE000000000
FFE000000000
FFE000000000
FFE000000000
FFE000000000
FFE000000000
FFE000000000
FFF000000000
FFF000000000
FFF000000000
FFF000000000
FFF000000000
FFF000000000
FFF000000000
FFF000000000
FFF000000000
FFF000000000
ENDCHAR
STARTCHAR 00B6
ENCODING 182
SWIDTH 550 0
DWIDTH 55 0
BBX 47 80 4 -12
BITMAP
000007FFFFFE
0000FFFFFFFE
0007FFFFFFFE
001FFFFFFFFE
007FFFFFFFFE
01FFFFFFFFFE
03FFFFFFFFFE
07FFFFFFFFFE
0FFFFFFFFFFE
1FFFFFF81FFE
1FFFFFF81FFE
3FFFFFF81FFE
3FFFFFF81FFE
7FFFFFF81FFE
7FFFFFF81FFE
7FFFFFF81FFE
FFFFFFF81FFE
FFFFFFF81FFE
FFFFFFF81FFE
FFFFFFF81FFE
FFFFFFF81FFE
FFFFFFF81FFE
FFFFFFF81FFE
FFFFFFF81FFE
FFFFFFF81FFE
FFFFFFF81FFE
FFFFFFF81FFE
FFFFFFF81FFE
FFFFFFF81FFE
7FFFFFF81FFE
7FFFFFF81FFE
7FFFFFF81FFE
3FFFFFF81FFE
3FFFFFF81FFE
1FFFFFF81FFE
0FFFFFF81FFE
07FFFFF81FFE
03FFFFF81FFE
01FFFFF81FFE
00FFFFF81FFE
003FFFF81FFE
000FFFF81FFE
0001FFF81FFE
00000FF81FFE
000000001FFE
000000001FFE
000000001FFE
000000001FFE
000000001FFE
000000001FFE
000000001FFE
000000001FFE
000000001FFE
000000001FFE
000000001FFE
000000001FFE
000000001FFE
000000001FFE
000000001FFE
000000001FFE
000000001FFE
000000001FFE
000000001FFE
000000001FFE
000000003FFC
000000003FFC
000800007FFC
000C00007FFC
001F0000FFF8
003F8001FFF8
003FF00FFFF0
007FFFFFFFF0
00FFFFFFFFE0
00FFFFFFFFC0
01FFFFFFFF80
00FFFFFFFF00
003FFFFFFE00
001FFFFFFC00
0003FFFFE000
00007FFF0000
ENDCHAR
STARTCHAR 00B7
ENCODING 183
SWIDTH 550 0
DWIDTH 55 0
BBX 19 19 18 18
BITMAP
03F800
0FFE00
1FFF00
3FFF80
3FFFC0
7FFFC0
7FFFE0
FFFFE0
FFFFE0
FFFFE0
FFFFE0
FFFFE0
7FFFE0
7FFFC0
7FFFC0
3FFF80
1FFF00
0FFE00
03F800
ENDCHAR
STARTCHAR 00B8
ENCODING 184
SWIDTH 550 0
DWIDTH 55 0
BBX 13 14 21 -14
BITMAP
3FF8
3FF8
3FF8
3FF0
3FF0
7FF0
7FE0
7FE0
7FC0
7FC0
FFC0
FF80
FF80
FF80
ENDCHAR
STARTCHAR 00B9
ENCODING 185
SWIDTH 550 0
DWIDTH 55 0
BBX 32 38 11 31
BITMAP
0007FF00
001FFF00
00FFFF00
03FFFF00
0FFFFF00
3FFFFF00
FFFFFF00
7FFFFF00
7FFFFF00
3FFFFF00
3FFFFF00
3F8FFF00
1E0FFF00
180FFF00
000FFF00
000FFF00
000FFF00
000FFF00
000FFF00
000FFF00
000FFF00
000FFF00
000FFF00
000FFF00
000FFF00
000FFF00
000FFF00
000FFF00
000FFF00
000FFF00
7FFFFFFF
7FFFFFFF
7FFFFFFF
7FFFFFFF
7FFFFFFF
7FFFFFFF
7FFFFFFF
7FFFFFFF
ENDCHAR
STARTCHAR 00BA
ENCODING 186
SWIDTH 550 0
DWIDTH 55 0
BBX 35 48 10 17
BITMAP
0003FC0000
003FFFC000
00FFFFF000
03FFFFF800
07FFFFFE00
0FFFFFFF00
1FFFFFFF00
1FFFFFFF80
3FFFBFFF80
3FF803FFC0
7FF001FFC0
7FE000FFE0
FFE000FFE0
FFC0007FE0
FFC0007FE0
FFC0007FE0
FFC0007FE0
FFC0007FE0
FFC0007FE0
FFC0007FE0
FFC0007FE0
FFC0007FE0
FFE000FFE0
FFE000FFC0
7FF001FFC0
7FF803FF80
7FFE0FFF80
3FFFFFFF00
3FFFFFFF00
1FFFFFFE00
0FFFFFFC00
07FFFFF800
03FFFFE000
00FFFF8000
001FFC0000
0000000000
0000000000
0000000000
0000000000
0000000000
7FFFFFFFC0
7FFFFFFFC0
7FFFFFFFC0
7FFFFFFFC0
7FFFFFFFC0
7FFFFFFFC0
7FFFFFFFC0
7FFFFFFFC0
ENDCHAR
STARTCHAR 00BB
ENCODING 187
SWIDTH 550 0
DWIDTH 55 0
BBX 43 40 6 7
BITMAP
000000020000
01C0000E0000
07C0003F0000
1FE000FF8000
7FF003FF8000
7FF803FFC000
7FF801FFE000
3FFC01FFE000
1FFE00FFF000
1FFE007FF800
0FFF007FF800
07FF803FFC00
03FF801FFC00
03FFC01FFE00
01FFE00FFF00
00FFE007FF00
00FFF007FF80
007FF803FFC0
003FF801FFC0
003FFC01FFE0
001FFC00FFE0
003FFC01FFE0
007FF803FFC0
007FF003FF80
00FFF007FF80
01FFE00FFF00
01FFC00FFE00
03FFC01FFE00
07FF803FFC00
0FFF003FF800
0FFE007FF800
1FFE00FFF000
3FFC00FFE000
3FF801FFE000
7FF803FFC000
FFF003FF8000
3FE003FF8000
0FE000FF0000
03C0003F0000
0080000E0000
ENDCHAR
STARTCHAR 00BC
ENCODING 188
SWIDTH 550 0
DWIDTH 55 0
BBX 55 69 0 0
BITMAP
001FF0000007FE
007FF000000FFC
01FFF000000FF8
07FFF000001FF8
1FFFF000003FF0
3FFFF000003FE0
1FFFF000007FE0
1FFFF00000FFC0
1FDFF00000FF80
0F1FF00001FF80
0C1FF00003FF00
001FF00003FE00
001FF00007FE00
001FF0000FFC00
001FF0000FF800
001FF0001FF800
001FF0003FF000
001FF0003FF000
001FF0007FE000
001FF000FFC000
001FF000FFC000
001FF001FF8000
001FF001FF0000
001FF003FF0000
001FF007FE0000
001FF007FC0000
001FF00FFC0000
001FF01FF80000
0000001FF00000
0000003FF00000
0000007FE00000
0000007FC00000
000000FFC00000
000001FF800000
000001FF000000
000003FF000000
000007FE000000
000007FC000000
00000FFC000000
00001FF8000000
00001FF0000000
00003FF00FFF80
00007FE00FFF80
00007FC01FFF80
0000FFC03FFF80
0001FF803FFF80
0001FF007FFF80
0003FF00FFFF80
0007FE00FFFF80
0007FE01FEFF80
000FFC03FCFF80
001FF803FCFF80
001FF807F8FF80
003FF00FF8FF80
003FE00FF0FF80
007FE01FE0FF80
00FFC03FE0FF80
00FF803FFFFFF8
01FF803FFFFFF8
03FF003FFFFFF8
03FE003FFFFFF8
07FE003FFFFFF8
0FFC003FFFFFF8
0FF8003FFFFFF8
1FF8000000FF80
3FF0000000FF80
3FE0000000FF80
7FE0000000FF80
FFC0000000FF80
ENDCHAR
STARTCHAR 00BD
ENCODING 189
SWIDTH 550 0
DWIDTH 55 0
BBX 55 69 0 0
BITMAP
001FF0000007FE
007FF000000FFC
01FFF000000FF8
07FFF000001FF8
1FFFF000003FF0
3FFFF000003FE0
1FFFF000007FE0
1FFFF00000FFC0
1FDFF00000FF80
0F1FF00001FF80
0C1FF00003FF00
001FF00003FE00
001FF00007FE00
001FF0000FFC00
001FF0000FF800
001FF0001FF800
001FF0003FF000
001FF0003FF000
001FF0007FE000
001FF000FFC000
001FF000FFC000
001FF001FF8000
001FF001FF0000
001FF003FF0000
001FF007FE0000
001FF007FC0000
001FF00FFC0000
001FF01FF80000
0000001FF00000
0000003FF00000
0000007FE00000
0000007FC00000
000000FFC00000
000001FF800000
000001FF000000
000003FF000000
000007FE000000
000007FC000000
00000FFC000000
00001FF8000000
00001FF007F800
00003FF03FFF00
00007FE0FFFF80
00007FC3FFFFE0
0000FFC3FFFFE0
0001FF81FFFFF0
0001FF01FFFFF0
0003FF00F83FF0
0007FE00601FF0
0007FE00401FF0
000FFC00001FF0
001FF800001FF0
001FF800003FF0
003FF000007FE0
003FE00000FFE0
007FE00001FFC0
00FFC00003FF80
00FF80000FFF00
01FF80001FFE00
03FF00003FFC00
03FE00007FF000
07FE0001FFE000
0FFC0003FFFFF8
0FF80003FFFFF8
1FF80003FFFFF8
3FF00003FFFFF8
3FE00003FFFFF8
7FE00003FFFFF8
FFC00003FFFFF8
ENDCHAR
STARTCHAR 00BE
ENCODING 190
SWIDTH 550 0
DWIDTH 55 0
BBX 55 70 0 0
BITMAP
01FF8000000000
1FFFF0000007FE
1FFFFC00000FFC
1FFFFE00000FF8
1FFFFE00001FF8
1FFFFF00003FF0
1FFFFF00003FE0
1803FF00007FE0
0001FF0000FFC0
0003FF0000FF80
0003FE0001FF80
007FFE0003FF00
03FFFC0003FE00
03FFF00007FE00
03FFFC000FFC00
03FFFE000FF800
03FFFF001FF800
03FFFF803FF000
0003FF803FF000
0000FFC07FE000
0000FFC0FFC000
0000FFC0FFC000
0001FFC1FF8000
3FFFFF81FF0000
3FFFFF83FF0000
3FFFFF07FE0000
3FFFFE07FC0000
3FFFFC0FFC0000
3FFFF01FF80000
1FFF001FF00000
0000003FF00000
0000007FE00000
0000007FC00000
000000FFC00000
000001FF800000
000001FF000000
000003FF000000
000007FE000000
000007FC000000
00000FFC000000
00001FF8000000
00001FF0000000
00003FF00FFF80
00007FE00FFF80
00007FC01FFF80
0000FFC03FFF80
0001FF803FFF80
0001FF007FFF80
0003FF00FFFF80
0007FE00FFFF80
0007FE01FEFF80
000FFC03FCFF80
001FF803FCFF80
001FF807F8FF80
003FF00FF8FF80
003FE00FF0FF80
007FE01FE0FF80
00FFC03FE0FF80
00FF803FFFFFF8
01FF803FFFFFF8
03FF003FFFFFF8
03FE003FFFFFF8
07FE003FFFFFF8
0FFC003FFFFFF8
0FF8003FFFFFF8
1FF8000000FF80
3FF0000000FF80
3FE0000000FF80
7FE0000000FF80
FFC0000000FF80
ENDCHAR
STARTCHAR 00BF
ENCODING 191
SWIDTH 550 0
DWIDTH 55 0
BBX 33 70 8 -19
BITMAP
0000078000
00001FE000
00003FF800
00007FFC00
0000FFFC00
0000FFFE00
0001FFFE00
0001FFFE00
0001FFFE00
0001FFFE00
0001FFFE00
0000FFFC00
00007FFC00
00007FF800
00001FF000
000007C000
0000000000
0000000000
0000000000
0000000000
0000000000
00003FF000
00003FF000
00003FF000
00003FF000
00003FF000
00003FF800
00003FF800
00003FF800
00003FF800
00007FF800
0007FFF800
003FFFF800
00FFFFF800
01FFFFF800
07FFFFF800
0FFFFFF800
0FFFFFF800
1FFFFFF800
3FFFFFF800
3FFFC00000
7FFF000000
7FFE000000
7FFC000000
FFFC000000
FFF8000000
FFF8000000
FFF8000000
FFF8000000
FFF8000000
FFF8000000
FFFC000000
FFFC000000
FFFE000000
7FFE000000
7FFF000000
7FFFC00000
3FFFF00000
1FFFFE0000
1FFFFFFF80
0FFFFFFF80
07FFFFFF80
03FFFFFF80
01FFFFFF80
00FFFFFF80
003FFFFF80
000FFFFF80
0003FFFF80
0000FFFF80
00000FFF80
ENDCHAR
STARTCHAR 00C0
ENCODING 192
SWIDTH 550 0
DWIDTH 55 0
BBX 55 82 0 0
BITMAP
01FFFE00000000
00FFFF00000000
007FFF80000000
001FFFC0000000
000FFFE0000000
0007FFF0000000
0001FFF8000000
0000FFFC000000
00003FFE000000
00001FFF000000
00000FFF800000
00000000000000
00000000000000
00000000000000
00000000000000
00000000000000
00000000000000
00000000000000
00001FFFF00000
00001FFFF00000
00003FFFF80000
00003FFFF80000
00003FFFF80000
00007FFFF80000
00007FFFFC0000
00007FFFFC0000
00007FFFFC0000
0000FFFFFE0000
0000FFFFFE0000
0000FFFFFE0000
0001FFFFFF0000
0001FFFFFF0000
0001FFCFFF0000
0001FFCFFF0000
0003FFCFFF8000
0003FF87FF8000
0003FF87FF8000
0007FF87FFC000
0007FF87FFC000
0007FF03FFC000
000FFF03FFC000
000FFF03FFE000
000FFE01FFE000
000FFE01FFE000
001FFE01FFF000
001FFE01FFF000
001FFC00FFF000
003FFC00FFF800
003FFC00FFF800
003FF800FFF800
003FF8007FF800
007FF8007FFC00
007FF8007FFC00
007FF0003FFC00
00FFF0003FFE00
00FFF0003FFE00
00FFE0003FFE00
01FFE0001FFF00
01FFE0001FFF00
01FFE0001FFF00
01FFFFFFFFFF00
03FFFFFFFFFF80
03FFFFFFFFFF80
03FFFFFFFFFF80
07FFFFFFFFFFC0
07FFFFFFFFFFC0
07FFFFFFFFFFC0
0FFFFFFFFFFFC0
0FFFFFFFFFFFE0
0FFF000003FFE0
0FFE000003FFE0
1FFE000001FFF0
1FFE000001FFF0
1FFE000001FFF0
3FFC000001FFF8
3FFC000000FFF8
3FFC000000FFF8
3FF8000000FFF8
7FF80000007FFC
7FF80000007FFC
7FF80000007FFC
FFF00000007FFE
ENDCHAR
STARTCHAR 00C1
ENCODING 193
SWIDTH 550 0
DWIDTH 55 0
BBX 55 82 0 0
BITMAP
00000000FFFF00
00000001FFFE00
00000003FFFC00
00000007FFF000
0000000FFFE000
0000001FFFC000
0000003FFF0000
0000007FFE0000
000000FFF80000
000001FFF00000
000003FFE00000
00000000000000
00000000000000
00000000000000
00000000000000
00000000000000
00000000000000
00000000000000
00001FFFF00000
00001FFFF00000
00003FFFF80000
00003FFFF80000
00003FFFF80000
00007FFFF80000
00007FFFFC0000
00007FFFFC0000
00007FFFFC0000
0000FFFFFE0000
0000FFFFFE0000
0000FFFFFE0000
0001FFFFFF0000
0001FFFFFF0000
0001FFCFFF0000
0001FFCFFF0000
0003FFCFFF8000
0003FF87FF8000
0003FF87FF8000
0007FF87FFC000
0007FF87FFC000
0007FF03FFC000
000FFF03FFC000
000FFF03FFE000
000FFE01FFE000
000FFE01FFE000
001FFE01FFF000
001FFE01FFF000
001FFC00FFF000
003FFC00FFF800
003FFC00FFF800
003FF800FFF800
003FF8007FF800
007FF8007FFC00
007FF8007FFC00
007FF0003FFC00
00FFF0003FFE00
00FFF0003FFE00
00FFE0003FFE00
01FFE0001FFF00
01FFE0001FFF00
01FFE0001FFF00
01FFFFFFFFFF00
03FFFFFFFFFF80
03FFFFFFFFFF80
03FFFFFFFFFF80
07FFFFFFFFFFC0
07FFFFFFFFFFC0
07FFFFFFFFFFC0
0FFFFFFFFFFFC0
0FFFFFFFFFFFE0
0FFF000003FFE0
0FFE000003FFE0
1FFE000001FFF0
1FFE000001FFF0
1FFE000001FFF0
3FFC000001FFF8
3FFC000000FFF8
3FFC000000FFF8
3FF8000000FFF8
7FF80000007FFC
7FF80000007FFC
7FF80000007FFC
FFF00000007FFE
ENDCHAR
STARTCHAR 00C2
ENCODING 194
SWIDTH 550 0
DWIDTH 55 0
BBX 55 82 0 0
BITMAP
000003FF800000
000007FFC00000
00000FFFE00000
00001FFFF00000
00003FFFF80000
00007FFFFC0000
0000FFFFFE0000
0001FFEFFF0000
0003FF83FF8000
0007FF01FFC000
000FFE00FFE000
00000000001000
00000000000000
00000000000000
00000000000000
00000000000000
00000000000000
00000000000000
00001FFFF00000
00001FFFF00000
00003FFFF80000
00003FFFF80000
00003FFFF80000
00007FFFF80000
00007FFFFC0000
00007FFFFC0000
00007FFFFC0000
0000FFFFFE0000
0000FFFFFE0000
0000FFFFFE0000
0001FFFFFF0000
0001FFFFFF0000
0001FFCFFF0000
0001FFCFFF0000
0003FFCFFF8000
0003FF87FF8000
0003FF87FF8000
0007FF87FFC000
0007FF87FFC000
0007FF03FFC000
000FFF03FFC000
000FFF03FFE000
000FFE01FFE000
000FFE01FFE000
001FFE01FFF000
001FFE01FFF000
001FFC00FFF000
003FFC00FFF800
003FFC00FFF800
003FF800FFF800
003FF8007FF800
007FF8007FFC00
007FF8007FFC00
007FF0003FFC00
00FFF0003FFE00
00FFF0003FFE00
00FFE0003FFE00
01FFE0001FFF00
01FFE0001FFF00
01FFE0001FFF00
01FFFFFFFFFF00
03FFFFFFFFFF80
03FFFFFFFFFF80
03FFFFFFFFFF80
07FFFFFFFFFFC0
07FFFFFFFFFFC0
07FFFFFFFFFFC0
0FFFFFFFFFFFC0
0FFFFFFFFFFFE0
0FFF000003FFE0
0FFE000003FFE0
1FFE000001FFF0
1FFE000001FFF0
1FFE000001FFF0
3FFC000001FFF8
3FFC000000FFF8
3FFC000000FFF8
3FF8000000FFF8
7FF80000007FFC
7FF80000007FFC
7FF80000007FFC
FFF00000007FFE
ENDCHAR
STARTCHAR 00C3
ENCODING 195
SWIDTH 550 0
DWIDTH 55 0
BBX 55 83 0 0
BITMAP
00003F00000000
0001FFE0008000
0007FFF801C000
000FFFFC03E000
001FFFFF07F000
001FFFFFFFF800
003FFFFFFFFC00
007FFFFFFFF800
003FFFFFFFF000
001F81FFFFF000
000F007FFFE000
0006001FFF8000
00020007FF0000
00000000600000
00000000000000
00000000000000
00000000000000
00000000000000
00000000000000
00001FFFF00000
00001FFFF00000
00003FFFF80000
00003FFFF80000
00003FFFF80000
00007FFFF80000
00007FFFFC0000
00007FFFFC0000
00007FFFFC0000
0000FFFFFE0000
0000FFFFFE0000
0000FFFFFE0000
0001FFFFFF0000
0001FFFFFF0000
0001FFCFFF0000
0001FFCFFF0000
0003FFCFFF8000
0003FF87FF8000
0003FF87FF8000
0007FF87FFC000
0007FF87FFC000
0007FF03FFC000
000FFF03FFC000
000FFF03FFE000
000FFE01FFE000
000FFE01FFE000
001FFE01FFF000
001FFE01FFF000
001FFC00FFF000
003FFC00FFF800
003FFC00FFF800
003FF800FFF800
003FF8007FF800
007FF8007FFC00
007FF8007FFC00
007FF0003FFC00
00FFF0003FFE00
00FFF0003FFE00
00FFE0003FFE00
01FFE0001FFF00
01FFE0001FFF00
01FFE0001FFF00
01FFFFFFFFFF00
03FFFFFFFFFF80
03FFFFFFFFFF80
03FFFFFFFFFF80
07FFFFFFFFFFC0
07FFFFFFFFFFC0
07FFFFFFFFFFC0
0FFFFFFFFFFFC0
0FFFFFFFFFFFE0
0FFF000003FFE0
0FFE000003FFE0
1FFE000001FFF0
1FFE000001FFF0
1FFE000001FFF0
3FFC000001FFF8
3FFC000000FFF8
3FFC000000FFF8
3FF8000000FFF8
7FF80000007FFC
7FF80000007FFC
7FF80000007FFC
FFF00000007FFE
ENDCHAR
STARTCHAR 00C4
ENCODING 196
SWIDTH 550 0
DWIDTH 55 0
BBX 55 82 0 1
BITMAP
0007F0001FC000
000FF8003FE000
001FFC007FF000
001FFE00FFF000
003FFE00FFF800
003FFE00FFF800
003FFE00FFF800
003FFE00FFF800
003FFE00FFF800
001FFE00FFF000
000FFC007FE000
0007F8003FC000
0003E0000F8000
00000000000000
00000000000000
00000000000000
00000000000000
00000000000000
00001FFFF00000
00001FFFF00000
00003FFFF80000
00003FFFF80000
00003FFFF80000
00007FFFF80000
00007FFFFC0000
00007FFFFC0000
00007FFFFC0000
0000FFFFFE0000
0000FFFFFE0000
0000FFFFFE0000
0001FFFFFF0000
0001FFFFFF0000
0001FFCFFF0000
0001FFCFFF0000
0003FFCFFF8000
0003FF87FF8000
0003FF87FF8000
0007FF87FFC000
0007FF87FFC000
0007FF03FFC000
000FFF03FFC000
000FFF03FFE000
000FFE01FFE000
000FFE01FFE000
001FFE01FFF000
001FFE01FFF000
001FFC00FFF000
003FFC00FFF800
003FFC00FFF800
003FF800FFF800
003FF8007FF800
007FF8007FFC00
007FF8007FFC00
007FF0003FFC00
00FFF0003FFE00
00FFF0003FFE00
00FFE0003FFE00
01FFE0001FFF00
01FFE0001FFF00
01FFE0001FFF00
01FFFFFFFFFF00
03FFFFFFFFFF80
03FFFFFFFFFF80
03FFFFFFFFFF80
07FFFFFFFFFFC0
07FFFFFFFFFFC0
07FFFFFFFFFFC0
0FFFFFFFFFFFC0
0FFFFFFFFFFFE0
0FFF000003FFE0
0FFE000003FFE0
1FFE000001FFF0
1FFE000001FFF0
1FFE000001FFF0
3FFC000001FFF8
3FFC000000FFF8
3FFC000000FFF8
3FF8000000FFF8
7FF80000007FFC
7FF80000007FFC
7FF80000007FFC
FFF00000007FFE
ENDCHAR
STARTCHAR 00C5
ENCODING 197
SWIDTH 550 0
DWIDTH 55 0
BBX 55 85 0 0
BITMAP
000000FE000000
000007FFC00000
00000FFFE00000
00001FFFF00000
00003FFFF80000
00007FFFFC0000
00007F83FC0000
00007F01FC0000
00007E01FC0000
0000FE00FC0000
00007E00FC0000
00007F01FC0000
00007F01FC0000
00007FC7FC0000
00003FFFF80000
00003FFFF80000
00001FFFF00000
00000FFFE00000
000003FF800000
0000007C000000
00000000000000
00001FFFF00000
00001FFFF00000
00003FFFF80000
00003FFFF80000
00003FFFF80000
00007FFFF80000
00007FFFFC0000
00007FFFFC0000
00007FFFFC0000
0000FFFFFE0000
0000FFFFFE0000
0000FFFFFE0000
0001FFFFFF0000
0001FFFFFF0000
0001FFCFFF0000
0001FFCFFF0000
0003FFCFFF8000
0003FF87FF8000
0003FF87FF8000
0007FF87FFC000
0007FF87FFC000
0007FF03FFC000
000FFF03FFC000
000FFF03FFE000
000FFE01FFE000
000FFE01FFE000
001FFE01FFF000
001FFE01FFF000
001FFC00FFF000
003FFC00FFF800
003FFC00FFF800
003FF800FFF800
003FF8007FF800
007FF8007FFC00
007FF8007FFC00
007FF0003FFC00
00FFF0003FFE00
00FFF0003FFE00
00FFE0003FFE00
01FFE0001FFF00
01FFE0001FFF00
01FFE0001FFF00
01FFFFFFFFFF00
03FFFFFFFFFF80
03FFFFFFFFFF80
03FFFFFFFFFF80
07FFFFFFFFFFC0
07FFFFFFFFFFC0
07FFFFFFFFFFC0
0FFFFFFFFFFFC0
0FFFFFFFFFFFE0
0FFF000003FFE0
0FFE000003FFE0
1FFE000001FFF0
1FFE000001FFF0
1FFE000001FFF0
3FFC000001FFF8
3FFC000000FFF8
3FFC000000FFF8
3FF8000000FFF8
7FF80000007FFC
7FF80000007FFC
7FF80000007FFC
FFF00000007FFE
ENDCHAR
STARTCHAR 00C6
ENCODING 198
SWIDTH 550 0
DWIDTH 55 0
BBX 55 64 -2 0
BITMAP
000000FFFFFFFC
000000FFFFFFFC
000000FFFFFFFC
000001FFFFFFFC
000001FFFFFFFC
000003FFFFFFFC
000003FFFFFFFC
000003FFFFFFFC
000007FFFFFFFC
000007FFFFFFFC
00000FFFFF8000
00000FFDFF8000
00000FFDFF8000
00001FF9FF8000
00001FF9FF8000
00001FF9FF8000
00003FF1FF8000
00003FF1FF8000
00007FF1FF8000
00007FE1FF8000
00007FE1FF8000
0000FFE1FF8000
0000FFC1FF8000
0001FFC1FF8000
0001FF81FF8000
0001FF81FF8000
0003FF81FFFFFC
0003FF01FFFFFC
0003FF01FFFFFC
0007FF01FFFFFC
0007FE01FFFFFC
000FFE01FFFFFC
000FFE01FFFFFC
000FFC01FFFFFC
001FFC01FFFFFC
001FF801FFFFFC
003FF801FF8000
003FF801FF8000
003FF001FF8000
007FF001FF8000
007FF001FF8000
007FE001FF8000
00FFFFFFFF8000
00FFFFFFFF8000
01FFFFFFFF8000
01FFFFFFFF8000
01FFFFFFFF8000
03FFFFFFFF8000
03FFFFFFFF8000
03FFFFFFFF8000
07FFFFFFFF8000
07FF0001FF8000
0FFE0001FF8000
0FFE0001FF8000
0FFE0001FFFFFE
1FFC0001FFFFFE
1FFC0001FFFFFE
3FF80001FFFFFE
3FF80001FFFFFE
3FF80001FFFFFE
7FF00001FFFFFE
7FF00001FFFFFE
7FF00001FFFFFE
FFE00001FFFFFE
ENDCHAR
STARTCHAR 00C7
ENCODING 199
SWIDTH 550 0
DWIDTH 55 0
BBX 45 79 4 -14
BITMAP
0000003FE000
00000FFFFF80
00007FFFFFF8
0001FFFFFFF8
0007FFFFFFF8
000FFFFFFFF8
001FFFFFFFF8
003FFFFFFFF8
007FFFFFFFF8
00FFFFFFFFF8
01FFFFFFFFF8
03FFFF800FF8
07FFFE0000F8
07FFF8000018
0FFFF0000000
0FFFE0000000
1FFFC0000000
1FFF80000000
3FFF00000000
3FFF00000000
3FFE00000000
7FFE00000000
7FFE00000000
7FFC00000000
7FFC00000000
7FFC00000000
FFFC00000000
FFFC00000000
FFF800000000
FFF800000000
FFF800000000
FFF800000000
FFF800000000
FFF800000000
FFF800000000
FFF800000000
FFF800000000
FFF800000000
FFF800000000
FFFC00000000
FFFC00000000
FFFC00000000
7FFC00000000
7FFC00000000
7FFE00000000
7FFE00000000
7FFF00000000
3FFF00000000
3FFF80000000
3FFF80000000
1FFFC0000000
1FFFE0000000
0FFFF8000038
0FFFFC0001F8
07FFFF801FF8
07FFFFFFFFF8
03FFFFFFFFF8
01FFFFFFFFF8
00FFFFFFFFF8
007FFFFFFFF8
003FFFFFFFF8
000FFFFFFFF8
0007FFFFFFF8
0000FFFFFFC0
00003FFFFE00
00000FFFC000
00000FFE0000
00000FFE0000
00000FFC0000
00001FFC0000
00001FF80000
00001FF80000
00001FF80000
00001FF00000
00003FF00000
00003FF00000
00003FE00000
00003FE00000
00003FC00000
ENDCHAR
STARTCHAR 00C8
ENCODING 200
SWIDTH 550 0
DWIDTH 55 0
BBX 40 82 7 0
BITMAP
FFFF000000
7FFF800000
3FFFC00000
0FFFE00000
07FFF00000
03FFF80000
00FFFC0000
007FFE0000
001FFF0000
000FFF8000
0007FFC000
0000000000
0000000000
0000000000
0000000000
0000000000
0000000000
0000000000
3FFFFFFFFF
3FFFFFFFFF
3FFFFFFFFF
3FFFFFFFFF
3FFFFFFFFF
3FFFFFFFFF
3FFFFFFFFF
3FFFFFFFFF
3FFFFFFFFF
3FFFFFFFFF
3FFC000000
3FFC000000
3FFC000000
3FFC000000
3FFC000000
3FFC000000
3FFC000000
3FFC000000
3FFC000000
3FFC000000
3FFC000000
3FFC000000
3FFC000000
3FFC000000
3FFC000000
3FFC000000
3FFFFFFFFE
3FFFFFFFFE
3FFFFFFFFE
3FFFFFFFFE
3FFFFFFFFE
3FFFFFFFFE
3FFFFFFFFE
3FFFFFFFFE
3FFFFFFFFE
3FFFFFFFFE
3FFC000000
3FFC000000
3FFC000000
3FFC000000
3FFC000000
3FFC000000
3FFC000000
3FFC000000
3FFC000000
3FFC000000
3FFC000000
3FFC000000
3FFC000000
3FFC000000
3FFC000000
3FFC000000
3FFC000000
3FFC000000
3FFFFFFFFF
3FFFFFFFFF
3FFFFFFFFF
3FFFFFFFFF
3FFFFFFFFF
3FFFFFFFFF
3FFFFFFFFF
3FFFFFFFFF
3FFFFFFFFF
3FFFFFFFFF
ENDCHAR
STARTCHAR 00C9
ENCODING 201
SWIDTH 550 0
DWIDTH 55 0
BBX 39 82 9 0
BITMAP
000001FFFE
000003FFFC
000007FFF8
00000FFFE0
00001FFFC0
00003FFF80
00007FFE00
0000FFFC00
0001FFF000
0003FFE000
0007FFC000
0000000000
0000000000
0000000000
0000000000
0000000000
0000000000
0000000000
FFFFFFFFFC
FFFFFFFFFC
FFFFFFFFFC
FFFFFFFFFC
FFFFFFFFFC
FFFFFFFFFC
FFFFFFFFFC
FFFFFFFFFC
FFFFFFFFFC
FFFFFFFFFC
FFF0000000
FFF0000000
FFF0000000
FFF0000000
FFF0000000
FFF0000000
FFF0000000
FFF0000000
FFF0000000
FFF0000000
FFF0000000
FFF0000000
FFF0000000
FFF0000000
FFF0000000
FFF0000000
FFFFFFFFF8
FFFFFFFFF8
FFFFFFFFF8
FFFFFFFFF8
FFFFFFFFF8
FFFFFFFFF8
FFFFFFFFF8
FFFFFFFFF8
FFFFFFFFF8
FFFFFFFFF8
FFF0000000
FFF0000000
FFF0000000
FFF0000000
FFF0000000
FFF0000000
FFF0000000
FFF0000000
FFF0000000
FFF0000000
FFF0000000
FFF0000000
FFF0000000
FFF0000000
FFF0000000
FFF0000000
FFF0000000
FFF0000000
FFFFFFFFFC
FFFFFFFFFC
FFFFFFFFFC
FFFFFFFFFC
FFFFFFFFFC
FFFFFFFFFC
FFFFFFFFFC
FFFFFFFFFC
FFFFFFFFFC
FFFFFFFFFC
ENDCHAR
STARTCHAR 00CA
ENCODING 202
SWIDTH 550 0
DWIDTH 55 0
BBX 38 82 9 0
BITMAP
0007FF0000
000FFF8000
001FFFC000
003FFFE000
007FFFF000
00FFFFF800
01FFFFFC00
03FFDFFE00
07FF07FF00
0FFE03FF80
1FFC01FFC0
0000000020
0000000000
0000000000
0000000000
0000000000
0000000000
0000000000
FFFFFFFFFC
FFFFFFFFFC
FFFFFFFFFC
FFFFFFFFFC
FFFFFFFFFC
FFFFFFFFFC
FFFFFFFFFC
FFFFFFFFFC
FFFFFFFFFC
FFFFFFFFFC
FFF0000000
FFF0000000
FFF0000000
FFF0000000
FFF0000000
FFF0000000
FFF0000000
FFF0000000
FFF0000000
FFF0000000
FFF0000000
FFF0000000
FFF0000000
FFF0000000
FFF0000000
FFF0000000
FFFFFFFFF8
FFFFFFFFF8
FFFFFFFFF8
FFFFFFFFF8
FFFFFFFFF8
FFFFFFFFF8
FFFFFFFFF8
FFFFFFFFF8
FFFFFFFFF8
FFFFFFFFF8
FFF0000000
FFF0000000
FFF0000000
FFF0000000
FFF0000000
FFF0000000
FFF0000000
FFF0000000
FFF0000000
FFF0000000
FFF0000000
FFF0000000
FFF0000000
FFF0000000
FFF0000000
FFF0000000
FFF0000000
FFF0000000
FFFFFFFFFC
FFFFFFFFFC
FFFFFFFFFC
FFFFFFFFFC
FFFFFFFFFC
FFFFFFFFFC
FFFFFFFFFC
FFFFFFFFFC
FFFFFFFFFC
FFFFFFFFFC
ENDCHAR
STARTCHAR 00CB
ENCODING 203
SWIDTH 550 0
DWIDTH 55 0
BBX 38 82 9 1
BITMAP
0FE0003F80
1FF0007FC0
3FF800FFE0
3FFC01FFE0
7FFC01FFF0
7FFC01FFF0
7FFC01FFF0
7FFC01FFF0
7FFC01FFF0
3FFC01FFE0
1FF800FFC0
0FF0007F80
07C0001F00
0000000000
0000000000
0000000000
0000000000
0000000000
FFFFFFFFFC
FFFFFFFFFC
FFFFFFFFFC
FFFFFFFFFC
FFFFFFFFFC
FFFFFFFFFC
FFFFFFFFFC
FFFFFFFFFC
FFFFFFFFFC
FFFFFFFFFC
FFF0000000
FFF0000000
FFF0000000
FFF0000000
FFF0000000
FFF0000000
FFF0000000
FFF0000000
FFF0000000
FFF0000000
FFF0000000
FFF0000000
FFF0000000
FFF0000000
FFF0000000
FFF0000000
FFFFFFFFF8
FFFFFFFFF8
FFFFFFFFF8
FFFFFFFFF8
FFFFFFFFF8
FFFFFFFFF8
FFFFFFFFF8
FFFFFFFFF8
FFFFFFFFF8
FFFFFFFFF8
FFF0000000
FFF0000000
FFF0000000
FFF0000000
FFF0000000
FFF0000000
FFF0000000
FFF0000000
FFF0000000
FFF0000000
FFF0000000
FFF0000000
FFF0000000
FFF0000000
FFF0000000
FFF0000000
FFF0000000
FFF0000000
FFFFFFFFFC
FFFFFFFFFC
FFFFFFFFFC
FFFFFFFFFC
FFFFFFFFFC
FFFFFFFFFC
FFFFFFFFFC
FFFFFFFFFC
FFFFFFFFFC
FFFFFFFFFC
ENDCHAR
STARTCHAR 00CC
ENCODING 204
SWIDTH 550 0
DWIDTH 55 0
BBX 41 82 7 0
BITMAP
FFFF00000000
7FFF80000000
3FFFC0000000
0FFFE0000000
07FFF0000000
03FFF8000000
00FFFC000000
007FFE000000
001FFF000000
000FFF800000
0007FFC00000
000000000000
000000000000
000000000000
000000000000
000000000000
000000000000
000000000000
FFFFFFFFFF80
FFFFFFFFFF80
FFFFFFFFFF80
FFFFFFFFFF80
FFFFFFFFFF80
FFFFFFFFFF80
FFFFFFFFFF80
FFFFFFFFFF80
FFFFFFFFFF80
FFFFFFFFFF80
0003FFE00000
0003FFE00000
0003FFE00000
0003FFE00000
0003FFE00000
0003FFE00000
0003FFE00000
0003FFE00000
0003FFE00000
0003FFE00000
0003FFE00000
0003FFE00000
0003FFE00000
0003FFE00000
0003FFE00000
0003FFE00000
0003FFE00000
0003FFE00000
0003FFE00000
0003FFE00000
0003FFE00000
0003FFE00000
0003FFE00000
0003FFE00000
0003FFE00000
0003FFE00000
0003FFE00000
0003FFE00000
0003FFE00000
0003FFE00000
0003FFE00000
0003FFE00000
0003FFE00000
0003FFE00000
0003FFE00000
0003FFE00000
0003FFE00000
0003FFE00000
0003FFE00000
0003FFE00000
0003FFE00000
0003FFE00000
0003FFE00000
0003FFE00000
FFFFFFFFFF80
FFFFFFFFFF80
FFFFFFFFFF80
FFFFFFFFFF80
FFFFFFFFFF80
FFFFFFFFFF80
FFFFFFFFFF80
FFFFFFFFFF80
FFFFFFFFFF80
FFFFFFFFFF80
ENDCHAR
STARTCHAR 00CD
ENCODING 205
SWIDTH 550 0
DWIDTH 55 0
BBX 41 82 7 0
BITMAP
0000007FFF80
000000FFFF00
000001FFFE00
000003FFF800
000007FFF000
00000FFFE000
00001FFF8000
00003FFF0000
00007FFC0000
0000FFF80000
0001FFF00000
000000000000
000000000000
000000000000
000000000000
000000000000
000000000000
000000000000
FFFFFFFFFF80
FFFFFFFFFF80
FFFFFFFFFF80
FFFFFFFFFF80
FFFFFFFFFF80
FFFFFFFFFF80
FFFFFFFFFF80
FFFFFFFFFF80
FFFFFFFFFF80
FFFFFFFFFF80
0003FFE00000
0003FFE00000
0003FFE00000
0003FFE00000
0003FFE00000
0003FFE00000
0003FFE00000
0003FFE00000
0003FFE00000
0003FFE00000
0003FFE00000
0003FFE00000
0003FFE00000
0003FFE00000
0003FFE00000
0003FFE00000
0003FFE00000
0003FFE00000
0003FFE00000
0003FFE00000
0003FFE00000
0003FFE00000
0003FFE00000
0003FFE00000
0003FFE00000
0003FFE00000
0003FFE00000
0003FFE00000
0003FFE00000
0003FFE00000
0003FFE00000
0003FFE00000
0003FFE00000
0003FFE00000
0003FFE00000
0003FFE00000
0003FFE00000
0003FFE00000
0003FFE00000
0003FFE00000
0003FFE00000
0003FFE00000
0003FFE00000
0003FFE00000
FFFFFFFFFF80
FFFFFFFFFF80
FFFFFFFFFF80
FFFFFFFFFF80
FFFFFFFFFF80
FFFFFFFFFF80
FFFFFFFFFF80
FFFFFFFFFF80
FFFFFFFFFF80
FFFFFFFFFF80
ENDCHAR
STARTCHAR 00CE
ENCODING 206
SWIDTH 550 0
DWIDTH 55 0
BBX 41 82 7 0
BITMAP
0001FFC00000
0003FFE00000
0007FFF00000
000FFFF80000
001FFFFC0000
003FFFFE0000
007FFFFF0000
00FFF7FF8000
01FFC1FFC000
03FF80FFE000
07FF007FF000
000000000800
000000000000
000000000000
000000000000
000000000000
000000000000
000000000000
FFFFFFFFFF80
FFFFFFFFFF80
FFFFFFFFFF80
FFFFFFFFFF80
FFFFFFFFFF80
FFFFFFFFFF80
FFFFFFFFFF80
FFFFFFFFFF80
FFFFFFFFFF80
FFFFFFFFFF80
0003FFE00000
0003FFE00000
0003FFE00000
0003FFE00000
0003FFE00000
0003FFE00000
0003FFE00000
0003FFE00000
0003FFE00000
0003FFE00000
0003FFE00000
0003FFE00000
0003FFE00000
0003FFE00000
0003FFE00000
0003FFE00000
0003FFE00000
0003FFE00000
0003FFE00000
0003FFE00000
0003FFE00000
0003FFE00000
0003FFE00000
0003FFE00000
0003FFE00000
0003FFE00000
0003FFE00000
0003FFE00000
0003FFE00000
0003FFE00000
0003FFE00000
0003FFE00000
0003FFE00000
0003FFE00000
0003FFE00000
0003FFE00000
0003FFE00000
0003FFE00000
0003FFE00000
0003FFE00000
0003FFE00000
0003FFE00000
0003FFE00000
0003FFE00000
FFFFFFFFFF80
FFFFFFFFFF80
FFFFFFFFFF80
FFFFFFFFFF80
FFFFFFFFFF80
FFFFFFFFFF80
FFFFFFFFFF80
FFFFFFFFFF80
FFFFFFFFFF80
FFFFFFFFFF80
ENDCHAR
STARTCHAR 00CF
ENCODING 207
SWIDTH 550 0
DWIDTH 55 0
BBX 41 82 7 1
BITMAP
03F8000FE000
07FC001FF000
0FFE003FF800
0FFF007FF800
1FFF007FFC00
1FFF007FFC00
1FFF007FFC00
1FFF007FFC00
1FFF007FFC00
0FFF007FF800
07FE003FF000
03FC001FE000
01F00007C000
000000000000
000000000000
000000000000
000000000000
000000000000
FFFFFFFFFF80
FFFFFFFFFF80
FFFFFFFFFF80
FFFFFFFFFF80
FFFFFFFFFF80
FFFFFFFFFF80
FFFFFFFFFF80
FFFFFFFFFF80
FFFFFFFFFF80
FFFFFFFFFF80
0003FFE00000
0003FFE00000
0003FFE00000
0003FFE00000
0003FFE00000
0003FFE00000
0003FFE00000
0003FFE00000
0003FFE00000
0003FFE00000
0003FFE00000
0003FFE00000
0003FFE00000
0003FFE00000
0003FFE00000
0003FFE00000
0003FFE00000
0003FFE00000
0003FFE00000
0003FFE00000
0003FFE00000
0003FFE00000
0003FFE00000
0003FFE00000
0003FFE00000
0003FFE00000
0003FFE00000
0003FFE00000
0003FFE00000
0003FFE00000
0003FFE00000
0003FFE00000
0003FFE00000
0003FFE00000
0003FFE00000
0003FFE00000
0003FFE00000
0003FFE00000
0003FFE00000
0003FFE00000
0003FFE00000
0003FFE00000
0003FFE00000
0003FFE00000
FFFFFFFFFF80
FFFFFFFFFF80
FFFFFFFFFF80
FFFFFFFFFF80
FFFFFFFFFF80
FFFFFFFFFF80
FFFFFFFFFF80
FFFFFFFFFF80
FFFFFFFFFF80
FFFFFFFFFF80
ENDCHAR
STARTCHAR 00D0
ENCODING 208
SWIDTH 550 0
DWIDTH 55 0
BBX 52 64 0 0
BITMAP
07FFFFF0000000
07FFFFFFC00000
07FFFFFFF80000
07FFFFFFFE0000
07FFFFFFFF8000
07FFFFFFFFE000
07FFFFFFFFF000
07FFFFFFFFF800
07FFFFFFFFFC00
07FFFFFFFFFE00
07FF803FFFFE00
07FF8003FFFF00
07FF8000FFFF80
07FF80003FFF80
07FF80001FFFC0
07FF80001FFFC0
07FF80000FFFC0
07FF800007FFE0
07FF800007FFE0
07FF800003FFE0
07FF800003FFE0
07FF800003FFF0
07FF800001FFF0
07FF800001FFF0
07FF800001FFF0
07FF800001FFF0
FFFFFFF801FFF0
FFFFFFF801FFF0
FFFFFFF801FFF0
FFFFFFF801FFF0
FFFFFFF801FFF0
FFFFFFF801FFF0
FFFFFFF801FFF0
FFFFFFF801FFF0
FFFFFFF801FFF0
FFFFFFF801FFF0
07FF800001FFF0
07FF800001FFF0
07FF800001FFF0
07FF800001FFF0
07FF800001FFF0
07FF800003FFE0
07FF800003FFE0
07FF800003FFE0
07FF800007FFE0
07FF800007FFC0
07FF80000FFFC0
07FF80000FFFC0
07FF80001FFF80
07FF80003FFF80
07FF80007FFF00
07FF8000FFFF00
07FF8003FFFE00
07FF803FFFFC00
07FFFFFFFFF800
07FFFFFFFFF000
07FFFFFFFFE000
07FFFFFFFFC000
07FFFFFFFF8000
07FFFFFFFE0000
07FFFFFFFC0000
07FFFFFFE00000
07FFFFFF000000
07FFFFF0000000
ENDCHAR
STARTCHAR 00D1
ENCODING 209
SWIDTH 550 0
DWIDTH 55 0
BBX 46 83 5 0
BITMAP
0007E0000000
003FFC001000
00FFFF003800
01FFFF807C00
03FFFFE0FE00
03FFFFFFFF00
07FFFFFFFF80
0FFFFFFFFF00
07FFFFFFFE00
03F03FFFFE00
01E00FFFFC00
00C003FFF000
004000FFE000
0000000C0000
000000000000
000000000000
000000000000
000000000000
000000000000
FFFC00001FFC
FFFE00001FFC
FFFE00001FFC
FFFF00001FFC
FFFF00001FFC
FFFF80001FFC
FFFF80001FFC
FFFFC0001FFC
FFFFC0001FFC
FFFFE0001FFC
FFFFE0001FFC
FFFFE0001FFC
FFFFF0001FFC
FFFFF0001FFC
FFFFF8001FFC
FFFFF8001FFC
FFFFFC001FFC
FFFFFC001FFC
FFFFFE001FFC
FFFFFE001FFC
FFEFFF001FFC
FFEFFF001FFC
FFE7FF001FFC
FFE7FF801FFC
FFE7FF801FFC
FFE3FFC01FFC
FFE3FFC01FFC
FFE1FFE01FFC
FFE1FFE01FFC
FFE0FFF01FFC
FFE0FFF01FFC
FFE07FF81FFC
FFE07FF81FFC
FFE07FF81FFC
FFE03FFC1FFC
FFE03FFC1FFC
FFE01FFE1FFC
FFE01FFE1FFC
FFE00FFF1FFC
FFE00FFF1FFC
FFE007FF9FFC
FFE007FF9FFC
FFE007FF9FFC
FFE003FFDFFC
FFE003FFDFFC
FFE001FFFFFC
FFE001FFFFFC
FFE000FFFFFC
FFE000FFFFFC
FFE0007FFFFC
FFE0007FFFFC
FFE0003FFFFC
FFE0003FFFFC
FFE0003FFFFC
FFE0001FFFFC
FFE0001FFFFC
FFE0000FFFFC
FFE0000FFFFC
FFE00007FFFC
FFE00007FFFC
FFE00003FFFC
FFE00003FFFC
FFE00003FFFC
FFE00001FFFC
ENDCHAR
STARTCHAR 00D2
ENCODING 210
SWIDTH 550 0
DWIDTH 55 0
BBX 51 83 2 -1
BITMAP
07FFF800000000
03FFFC00000000
01FFFE00000000
007FFF00000000
003FFF80000000
001FFFC0000000
0007FFE0000000
0003FFF0000000
0000FFF8000000
00007FFC000000
00003FFE000000
00000000000000
00000000000000
00000000000000
00000000000000
00000000000000
00000000000000
000007FE000000
00007FFFE00000
0001FFFFFC0000
0007FFFFFE0000
001FFFFFFF8000
003FFFFFFFC000
007FFFFFFFE000
00FFFFFFFFF000
01FFFFFFFFF800
03FFFFFFFFFC00
03FFFFFFFFFC00
07FFFC07FFFE00
0FFFE000FFFE00
0FFFC0007FFF00
1FFF80003FFF00
1FFF00001FFF80
3FFF00001FFF80
3FFE00000FFF80
3FFE00000FFF80
7FFC000007FFC0
7FFC000007FFC0
7FFC000007FFC0
7FF8000003FFC0
7FF8000003FFE0
FFF8000003FFE0
FFF8000003FFE0
FFF8000003FFE0
FFF8000003FFE0
FFF8000003FFE0
FFF8000003FFE0
FFF8000003FFE0
FFF8000003FFE0
FFF8000003FFE0
FFF8000003FFE0
FFF8000003FFE0
FFF8000003FFE0
FFF8000003FFE0
FFF8000003FFE0
FFF8000003FFE0
FFF8000003FFE0
FFF8000003FFE0
FFF8000003FFE0
FFF8000003FFC0
7FF8000003FFC0
7FFC000007FFC0
7FFC000007FFC0
7FFC000007FFC0
7FFE00000FFF80
3FFE00000FFF80
3FFE00000FFF80
3FFF00001FFF00
1FFF80003FFF00
1FFFC0007FFE00
0FFFE000FFFE00
0FFFF803FFFC00
07FFFFFFFFFC00
07FFFFFFFFF800
03FFFFFFFFF000
01FFFFFFFFE000
00FFFFFFFFC000
007FFFFFFF8000
003FFFFFFF0000
001FFFFFFE0000
0007FFFFF80000
0001FFFFC00000
00001FFE000000
ENDCHAR
STARTCHAR 00D3
ENCODING 211
SWIDTH 550 0
DWIDTH 55 0
BBX 51 83 2 -1
BITMAP
00000003FFFC00
00000007FFF800
0000000FFFF000
0000001FFFC000
0000003FFF8000
0000007FFF0000
000000FFFC0000
000001FFF80000
000003FFE00000
000007FFC00000
00000FFF800000
00000000000000
00000000000000
00000000000000
00000000000000
00000000000000
00000000000000
000007FE000000
00007FFFE00000
0001FFFFFC0000
0007FFFFFE0000
001FFFFFFF8000
003FFFFFFFC000
007FFFFFFFE000
00FFFFFFFFF000
01FFFFFFFFF800
03FFFFFFFFFC00
03FFFFFFFFFC00
07FFFC07FFFE00
0FFFE000FFFE00
0FFFC0007FFF00
1FFF80003FFF00
1FFF00001FFF80
3FFF00001FFF80
3FFE00000FFF80
3FFE00000FFF80
7FFC000007FFC0
7FFC000007FFC0
7FFC000007FFC0
7FF8000003FFC0
7FF8000003FFE0
FFF8000003FFE0
FFF8000003FFE0
FFF8000003FFE0
FFF8000003FFE0
FFF8000003FFE0
FFF8000003FFE0
FFF8000003FFE0
FFF8000003FFE0
FFF8000003FFE0
FFF8000003FFE0
FFF8000003FFE0
FFF8000003FFE0
FFF8000003FFE0
FFF8000003FFE0
FFF8000003FFE0
FFF8000003FFE0
FFF8000003FFE0
FFF8000003FFE0
FFF8000003FFC0
7FF8000003FFC0
7FFC000007FFC0
7FFC000007FFC0
7FFC000007FFC0
7FFE00000FFF80
3FFE00000FFF80
3FFE00000FFF80
3FFF00001FFF00
1FFF80003FFF00
1FFFC0007FFE00
0FFFE000FFFE00
0FFFF803FFFC00
07FFFFFFFFFC00
07FFFFFFFFF800
03FFFFFFFFF000
01FFFFFFFFE000
00FFFFFFFFC000
007FFFFFFF8000
003FFFFFFF0000
001FFFFFFE0000
0007FFFFF80000
0001FFFFC00000
00001FFE000000
ENDCHAR
STARTCHAR 00D4
ENCODING 212
SWIDTH 550 0
DWIDTH 55 0
BBX 51 83 2 -1
BITMAP
00000FFE000000
00001FFF000000
00003FFF800000
00007FFFC00000
0000FFFFE00000
0001FFFFF00000
0003FFFFF80000
0007FFBFFC0000
000FFE0FFE0000
001FFC07FF0000
003FF803FF8000
00000000004000
00000000000000
00000000000000
00000000000000
00000000000000
00000000000000
000007FE000000
00007FFFE00000
0001FFFFFC0000
0007FFFFFE0000
001FFFFFFF8000
003FFFFFFFC000
007FFFFFFFE000
00FFFFFFFFF000
01FFFFFFFFF800
03FFFFFFFFFC00
03FFFFFFFFFC00
07FFFC07FFFE00
0FFFE000FFFE00
0FFFC0007FFF00
1FFF80003FFF00
1FFF00001FFF80
3FFF00001FFF80
3FFE00000FFF80
3FFE00000FFF80
7FFC000007FFC0
7FFC000007FFC0
7FFC000007FFC0
7FF8000003FFC0
7FF8000003FFE0
FFF8000003FFE0
FFF8000003FFE0
FFF8000003FFE0
FFF8000003FFE0
FFF8000003FFE0
FFF8000003FFE0
FFF8000003FFE0
FFF8000003FFE0
FFF8000003FFE0
FFF8000003FFE0
FFF8000003FFE0
FFF8000003FFE0
FFF8000003FFE0
FFF8000003FFE0
FFF8000003FFE0
FFF8000003FFE0
FFF8000003FFE0
FFF8000003FFE0
FFF8000003FFC0
7FF8000003FFC0
7FFC000007FFC0
7FFC000007FFC0
7FFC000007FFC0
7FFE00000FFF80
3FFE00000FFF80
3FFE00000FFF80
3FFF00001FFF00
1FFF80003FFF00
1FFFC0007FFE00
0FFFE000FFFE00
0FFFF803FFFC00
07FFFFFFFFFC00
07FFFFFFFFF800
03FFFFFFFFF000
01FFFFFFFFE000
00FFFFFFFFC000
007FFFFFFF8000
003FFFFFFF0000
001FFFFFFE0000
0007FFFFF80000
0001FFFFC00000
00001FFE000000
ENDCHAR
STARTCHAR 00D5
ENCODING 213
SWIDTH 550 0
DWIDTH 55 0
BBX 51 84 2 -1
BITMAP
0000FC00000000
0007FF80020000
001FFFE0070000
003FFFF00F8000
007FFFFC1FC000
007FFFFFFFE000
00FFFFFFFFF000
01FFFFFFFFE000
00FFFFFFFFC000
007E07FFFFC000
003C01FFFF8000
0018007FFE0000
0008001FFC0000
00000001800000
00000000000000
00000000000000
00000000000000
00000000000000
000007FE000000
00007FFFE00000
0001FFFFFC0000
0007FFFFFE0000
001FFFFFFF8000
003FFFFFFFC000
007FFFFFFFE000
00FFFFFFFFF000
01FFFFFFFFF800
03FFFFFFFFFC00
03FFFFFFFFFC00
07FFFC07FFFE00
0FFFE000FFFE00
0FFFC0007FFF00
1FFF80003FFF00
1FFF00001FFF80
3FFF00001FFF80
3FFE00000FFF80
3FFE00000FFF80
7FFC000007FFC0
7FFC000007FFC0
7FFC000007FFC0
7FF8000003FFC0
7FF8000003FFE0
FFF8000003FFE0
FFF8000003FFE0
FFF8000003FFE0
FFF8000003FFE0
FFF8000003FFE0
FFF8000003FFE0
FFF8000003FFE0
FFF8000003FFE0
FFF8000003FFE0
FFF8000003FFE0
FFF8000003FFE0
FFF8000003FFE0
FFF8000003FFE0
FFF8000003FFE0
FFF8000003FFE0
FFF8000003FFE0
FFF8000003FFE0
FFF8000003FFE0
FFF8000003FFC0
7FF8000003FFC0
7FFC000007FFC0
7FFC000007FFC0
7FFC000007FFC0
7FFE00000FFF80
3FFE00000FFF80
3FFE00000FFF80
3FFF00001FFF00
1FFF80003FFF00
1FFFC0007FFE00
0FFFE000FFFE00
0FFFF803FFFC00
07FFFFFFFFFC00
07FFFFFFFFF800
03FFFFFFFFF000
01FFFFFFFFE000
00FFFFFFFFC000
007FFFFFFF8000
003FFFFFFF0000
001FFFFFFE0000
0007FFFFF80000
0001FFFFC00000
00001FFE000000
ENDCHAR
STARTCHAR 00D6
ENCODING 214
SWIDTH 550 0
DWIDTH 55 0
BBX 51 83 2 0
BITMAP
001FC0007F0000
003FE000FF8000
007FF001FFC000
007FF803FFC000
00FFF803FFE000
00FFF803FFE000
00FFF803FFE000
00FFF803FFE000
00FFF803FFE000
007FF803FFC000
003FF001FF8000
001FE000FF0000
000F80003E0000
00000000000000
00000000000000
00000000000000
00000000000000
000007FE000000
00007FFFE00000
0001FFFFFC0000
0007FFFFFE0000
001FFFFFFF8000
003FFFFFFFC000
007FFFFFFFE000
00FFFFFFFFF000
01FFFFFFFFF800
03FFFFFFFFFC00
03FFFFFFFFFC00
07FFFC07FFFE00
0FFFE000FFFE00
0FFFC0007FFF00
1FFF80003FFF00
1FFF00001FFF80
3FFF00001FFF80
3FFE00000FFF80
3FFE00000FFF80
7FFC000007FFC0
7FFC000007FFC0
7FFC000007FFC0
7FF8000003FFC0
7FF8000003FFE0
FFF8000003FFE0
FFF8000003FFE0
FFF8000003FFE0
FFF8000003FFE0
FFF8000003FFE0
FFF8000003FFE0
FFF8000003FFE0
FFF8000003FFE0
FFF8000003FFE0
FFF8000003FFE0
FFF8000003FFE0
FFF8000003FFE0
FFF8000003FFE0
FFF8000003FFE0
FFF8000003FFE0
FFF8000003FFE0
FFF8000003FFE0
FFF8000003FFE0
FFF8000003FFC0
7FF8000003FFC0
7FFC000007FFC0
7FFC000007FFC0
7FFC000007FFC0
7FFE00000FFF80
3FFE00000FFF80
3FFE00000FFF80
3FFF00001FFF00
1FFF80003FFF00
1FFFC0007FFE00
0FFFE000FFFE00
0FFFF803FFFC00
07FFFFFFFFFC00
07FFFFFFFFF800
03FFFFFFFFF000
01FFFFFFFFE000
00FFFFFFFFC000
007FFFFFFF8000
003FFFFFFF0000
001FFFFFFE0000
0007FFFFF80000
0001FFFFC00000
00001FFE000000
ENDCHAR
STARTCHAR 00D7
ENCODING 215
SWIDTH 550 0
DWIDTH 55 0
BBX 43 43 6 5
BITMAP
030000001800
078000003C00
0FC000007E00
1FE00000FF00
3FF00001FF80
7FF80003FFC0
FFFC0007FFE0
FFFE000FFFC0
7FFF001FFF80
3FFF803FFF00
1FFFC07FFE00
0FFFE0FFFC00
07FFF1FFF800
03FFFBFFF000
01FFFFFFE000
00FFFFFFC000
007FFFFF8000
003FFFFF0000
001FFFFE0000
000FFFFC0000
0007FFF80000
0003FFF80000
0007FFFC0000
000FFFFE0000
001FFFFF0000
003FFFFF8000
007FFFFFC000
00FFFFFFE000
01FFFFFFF000
03FFF3FFF800
07FFE1FFFC00
0FFFC0FFFE00
1FFF807FFF00
3FFF003FFF80
7FFE001FFFC0
FFFC000FFFE0
FFF80007FFC0
7FF00003FF80
3FE00001FF00
1FC00000FE00
0F8000007C00
070000003800
020000001000
ENDCHAR
STARTCHAR 00D8
ENCODING 216
SWIDTH 550 0
DWIDTH 55 0
BBX 51 84 2 -10
BITMAP
000000003FE000
000000003FE000
000000007FE000
000000007FC000
000000007FC000
00000000FFC000
00000000FFC000
00000000FF8000
00000001FF8000
000007FDFF8000
00007FFFFF0000
0001FFFFFF0000
0007FFFFFF0000
001FFFFFFF0000
003FFFFFFFC000
007FFFFFFFE000
00FFFFFFFFF000
01FFFFFFFFF800
03FFFFFFFFF800
03FFFFFFFFFC00
07FFF81FFFFE00
0FFFE01FFFFE00
0FFFC01FFFFF00
1FFF803FFFFF00
1FFF003FFFFF80
1FFE003FFFFF80
3FFE003FEFFF80
3FFC007FE7FFC0
3FFC007FE7FFC0
7FFC007FC3FFC0
7FF800FFC3FFC0
7FF800FFC3FFC0
7FF800FF83FFE0
FFF801FF83FFE0
FFF801FF83FFE0
FFF001FF01FFE0
FFF003FF01FFE0
FFF003FF01FFE0
FFF003FE01FFE0
FFF007FE01FFE0
FFF007FE01FFE0
FFF007FC01FFE0
FFF007FC01FFE0
FFF00FFC01FFE0
FFF00FFC01FFE0
FFF00FF801FFE0
FFF01FF801FFE0
FFF01FF801FFE0
FFF01FF001FFE0
FFF03FF003FFE0
FFF83FF003FFE0
FFF83FE003FFC0
7FF87FE003FFC0
7FF87FE003FFC0
7FF87FC007FFC0
7FFCFFC007FF80
7FFCFFC007FF80
3FFCFF800FFF80
3FFFFF800FFF00
3FFFFF801FFF00
1FFFFF001FFF00
1FFFFF003FFE00
0FFFFF007FFE00
0FFFFF01FFFC00
07FFFF1FFFF800
07FFFFFFFFF800
03FFFFFFFFF000
01FFFFFFFFE000
00FFFFFFFFC000
007FFFFFFF8000
003FFFFFFF0000
001FFFFFFE0000
001FFFFFF80000
001FFFFFE00000
003FFFFE000000
003FF000000000
003FE000000000
007FE000000000
007FE000000000
007FC000000000
007FC000000000
00FFC000000000
00FFC000000000
00FF8000000000
ENDCHAR
STARTCHAR 00D9
ENCODING 217
SWIDTH 550 0
DWIDTH 55 0
BBX 47 83 4 -1
BITMAP
1FFFE0000000
0FFFF0000000
07FFF8000000
01FFFC000000
00FFFE000000
007FFF000000
001FFF800000
000FFFC00000
0003FFE00000
0001FFF00000
0000FFF80000
000000000000
000000000000
000000000000
000000000000
000000000000
000000000000
000000000000
FFF000001FFE
FFF000001FFE
FFF000001FFE
FFF000001FFE
FFF000001FFE
FFF000001FFE
FFF000001FFE
FFF000001FFE
FFF000001FFE
FFF000001FFE
FFF000001FFE
FFF000001FFE
FFF000001FFE
FFF000001FFE
FFF000001FFE
FFF000001FFE
FFF000001FFE
FFF000001FFE
FFF000001FFE
FFF000001FFE
FFF000001FFE
FFF000001FFE
FFF000001FFE
FFF000001FFE
FFF000001FFE
FFF000001FFE
FFF000001FFE
FFF000001FFE
FFF000001FFE
FFF000001FFE
FFF000001FFE
FFF000001FFE
FFF000001FFE
FFF000001FFE
FFF000001FFE
FFF000001FFE
FFF000001FFE
FFF000001FFE
FFF000001FFE
FFF000001FFE
FFF000001FFE
FFF000001FFE
FFF000001FFE
FFF000001FFE
FFF000001FFE
FFF000003FFC
FFF800003FFC
7FF800003FFC
7FF800003FFC
7FF800007FFC
7FFC00007FF8
7FFE0000FFF8
3FFE0000FFF8
3FFF8003FFF0
3FFFE00FFFF0
1FFFFFFFFFE0
1FFFFFFFFFC0
0FFFFFFFFFC0
07FFFFFFFF80
03FFFFFFFF00
01FFFFFFFE00
00FFFFFFF800
003FFFFFE000
000FFFFF8000
0000FFF80000
ENDCHAR
STARTCHAR 00DA
ENCODING 218
SWIDTH 550 0
DWIDTH 55 0
BBX 47 83 4 -1
BITMAP
0000000FFFF0
0000001FFFE0
0000003FFFC0
0000007FFF00
000000FFFE00
000001FFFC00
000003FFF000
000007FFE000
00000FFF8000
00001FFF0000
00003FFE0000
000000000000
000000000000
000000000000
000000000000
000000000000
000000000000
000000000000
FFF000001FFE
FFF000001FFE
FFF000001FFE
FFF000001FFE
FFF000001FFE
FFF000001FFE
FFF000001FFE
FFF000001FFE
FFF000001FFE
FFF000001FFE
FFF000001FFE
FFF000001FFE
FFF000001FFE
FFF000001FFE
FFF000001FFE
FFF000001FFE
FFF000001FFE
FFF000001FFE
FFF000001FFE
FFF000001FFE
FFF000001FFE
FFF000001FFE
FFF000001FFE
FFF000001FFE
FFF000001FFE
FFF000001FFE
FFF000001FFE
FFF000001FFE
FFF000001FFE
FFF000001FFE
FFF000001FFE
FFF000001FFE
FFF000001FFE
FFF000001FFE
FFF000001FFE
FFF000001FFE
FFF000001FFE
FFF000001FFE
FFF000001FFE
FFF000001FFE
FFF000001FFE
FFF000001FFE
FFF000001FFE
FFF000001FFE
FFF000001FFE
FFF000003FFC
FFF800003FFC
7FF800003FFC
7FF800003FFC
7FF800007FFC
7FFC00007FF8
7FFE0000FFF8
3FFE0000FFF8
3FFF8003FFF0
3FFFE00FFFF0
1FFFFFFFFFE0
1FFFFFFFFFC0
0FFFFFFFFFC0
07FFFFFFFF80
03FFFFFFFF00
01FFFFFFFE00
00FFFFFFF800
003FFFFFE000
000FFFFF8000
0000FFF80000
ENDCHAR
STARTCHAR 00DB
ENCODING 219
SWIDTH 550 0
DWIDTH 55 0
BBX 47 83 4 -1
BITMAP
00003FF80000
00007FFC0000
0000FFFE0000
0001FFFF0000
0003FFFF8000
0007FFFFC000
000FFFFFE000
001FFEFFF000
003FF83FF800
007FF01FFC00
00FFE00FFE00
000000000100
000000000000
000000000000
000000000000
000000000000
000000000000
000000000000
FFF000001FFE
FFF000001FFE
FFF000001FFE
FFF000001FFE
FFF000001FFE
FFF000001FFE
FFF000001FFE
FFF000001FFE
FFF000001FFE
FFF000001FFE
FFF000001FFE
FFF000001FFE
FFF000001FFE
FFF000001FFE
FFF000001FFE
FFF000001FFE
FFF000001FFE
FFF000001FFE
FFF000001FFE
FFF000001FFE
FFF000001FFE
FFF000001FFE
FFF000001FFE
FFF000001FFE
FFF000001FFE
FFF000001FFE
FFF000001FFE
FFF000001FFE
FFF000001FFE
FFF000001FFE
FFF000001FFE
FFF000001FFE
FFF000001FFE
FFF000001FFE
FFF000001FFE
FFF000001FFE
FFF000001FFE
FFF000001FFE
FFF000001FFE
FFF000001FFE
FFF000001FFE
FFF000001FFE
FFF000001FFE
FFF000001FFE
FFF000001FFE
FFF000003FFC
FFF800003FFC
7FF800003FFC
7FF800003FFC
7FF800007FFC
7FFC00007FF8
7FFE0000FFF8
3FFE0000FFF8
3FFF8003FFF0
3FFFE00FFFF0
1FFFFFFFFFE0
1FFFFFFFFFC0
0FFFFFFFFFC0
07FFFFFFFF80
03FFFFFFFF00
01FFFFFFFE00
00FFFFFFF800
003FFFFFE000
000FFFFF8000
0000FFF80000
ENDCHAR
STARTCHAR 00DC
ENCODING 220
SWIDTH 550 0
DWIDTH 55 0
BBX 47 83 4 0
BITMAP
007F0001FC00
00FF8003FE00
01FFC007FF00
01FFE00FFF00
03FFE00FFF80
03FFE00FFF80
03FFE00FFF80
03FFE00FFF80
03FFE00FFF80
01FFE00FFF00
00FFC007FE00
007F8003FC00
003E0000F800
000000000000
000000000000
000000000000
000000000000
000000000000
FFF000001FFE
FFF000001FFE
FFF000001FFE
FFF000001FFE
FFF000001FFE
FFF000001FFE
FFF000001FFE
FFF000001FFE
FFF000001FFE
FFF000001FFE
FFF000001FFE
FFF000001FFE
FFF000001FFE
FFF000001FFE
FFF000001FFE
FFF000001FFE
FFF000001FFE
FFF000001FFE
FFF000001FFE
FFF000001FFE
FFF000001FFE
FFF000001FFE
FFF000001FFE
FFF000001FFE
FFF000001FFE
FFF000001FFE
FFF000001FFE
FFF000001FFE
FFF000001FFE
FFF000001FFE
FFF000001FFE
FFF000001FFE
FFF000001FFE
FFF000001FFE
FFF000001FFE
FFF000001FFE
FFF000001FFE
FFF000001FFE
FFF000001FFE
FFF000001FFE
FFF000001FFE
FFF000001FFE
FFF000001FFE
FFF000001FFE
FFF000001FFE
FFF000003FFC
FFF800003FFC
7FF800003FFC
7FF800003FFC
7FF800007FFC
7FFC00007FF8
7FFE0000FFF8
3FFE0000FFF8
3FFF8003FFF0
3FFFE00FFFF0
1FFFFFFFFFE0
1FFFFFFFFFC0
0FFFFFFFFFC0
07FFFFFFFF80
03FFFFFFFF00
01FFFFFFFE00
00FFFFFFF800
003FFFFFE000
000FFFFF8000
0000FFF80000
ENDCHAR
STARTCHAR 00DD
ENCODING 221
SWIDTH 550 0
DWIDTH 55 0
BBX 53 82 1 0
BITMAP
00000001FFFE00
00000003FFFC00
00000007FFF800
0000000FFFE000
0000001FFFC000
0000003FFF8000
0000007FFE0000
000000FFFC0000
000001FFF00000
000003FFE00000
000007FFC00000
00000000000000
00000000000000
00000000000000
00000000000000
00000000000000
00000000000000
00000000000000
FFF8000000FFF8
FFF8000000FFF8
7FFC000001FFF0
7FFC000001FFF0
3FFE000003FFE0
3FFE000003FFE0
1FFF000007FFC0
1FFF000007FFC0
0FFF80000FFF80
0FFF80000FFF80
07FFC0001FFF00
07FFC0001FFF00
03FFE0003FFE00
03FFE0003FFE00
01FFF0007FFC00
01FFF0007FFC00
00FFF800FFF800
00FFF800FFF800
007FFC01FFF000
007FFC01FFF000
003FFC03FFE000
003FFE03FFE000
001FFE03FFC000
001FFF07FFC000
000FFF07FF8000
000FFF8FFF8000
0007FF8FFF0000
0007FFDFFF0000
0003FFDFFE0000
0003FFDFFE0000
0001FFFFFC0000
0001FFFFF80000
0000FFFFF80000
0000FFFFF00000
00007FFFF00000
00007FFFE00000
00003FFFE00000
00003FFFC00000
00001FFFC00000
00001FFF800000
00000FFF800000
00000FFF000000
00000FFF000000
00000FFF000000
00000FFF000000
00000FFF000000
00000FFF000000
00000FFF000000
00000FFF000000
00000FFF000000
00000FFF000000
00000FFF000000
00000FFF000000
00000FFF000000
00000FFF000000
00000FFF000000
00000FFF000000
00000FFF000000
00000FFF000000
00000FFF000000
00000FFF000000
00000FFF000000
00000FFF000000
00000FFF000000
ENDCHAR
STARTCHAR 00DE
ENCODING 222
SWIDTH 550 0
DWIDTH 55 0
BBX 44 64 7 0
BITMAP
FFF000000000
FFF000000000
FFF000000000
FFF000000000
FFF000000000
FFF000000000
FFF000000000
FFF000000000
FFF000000000
FFFFFF800000
FFFFFFFC0000
FFFFFFFF0000
FFFFFFFFE000
FFFFFFFFF000
FFFFFFFFF800
FFFFFFFFFE00
FFFFFFFFFF00
FFFFFFFFFF00
FFFFFFFFFF80
FFF001FFFFC0
FFF0003FFFC0
FFF0000FFFE0
FFF00007FFE0
FFF00007FFE0
FFF00003FFE0
FFF00003FFF0
FFF00001FFF0
FFF00001FFF0
FFF00001FFF0
FFF00001FFF0
FFF00001FFF0
FFF00001FFF0
FFF00001FFF0
FFF00001FFF0
FFF00001FFE0
FFF00003FFE0
FFF00003FFE0
FFF00007FFE0
FFF0000FFFC0
FFF0001FFFC0
FFF0003FFF80
FFF000FFFF80
FFFFFFFFFF00
FFFFFFFFFE00
FFFFFFFFFE00
FFFFFFFFFC00
FFFFFFFFF000
FFFFFFFFE000
FFFFFFFFC000
FFFFFFFF0000
FFFFFFF80000
FFFFFFC00000
FFF000000000
FFF000000000
FFF000000000
FFF000000000
FFF000000000
FFF000000000
FFF000000000
FFF000000000
FFF000000000
FFF000000000
FFF000000000
FFF000000000
ENDCHAR
STARTCHAR 00DF
ENCODING 223
SWIDTH 550 0
DWIDTH 55 0
BBX 45 71 7 -1
BITMAP
0000FFC00000
000FFFFC0000
003FFFFF8000
00FFFFFFC000
03FFFFFFF000
07FFFFFFF800
0FFFFFFFFC00
0FFFFFFFFC00
1FFFFFFFFE00
3FFFC1FFFF00
3FFE003FFF00
7FFC001FFF00
7FF8000FFF00
7FF8000FFF00
FFF0000FFF00
FFF0000FFF00
FFF0000FFF00
FFF0000FFF00
FFF0000FFF00
FFF0001FFF00
FFF0003FFE00
FFF0007FFE00
FFF000FFFC00
FFF001FFF800
FFF003FFF000
FFF007FFE000
FFF00FFFC000
FFF00FFF8000
FFF01FFF0000
FFF03FFE0000
FFF03FFC0000
FFF03FFC0000
FFF03FFC0000
FFF03FFC0000
FFF03FFC0000
FFF03FFC0000
FFF03FFE0000
FFF03FFF0000
FFF03FFF8000
FFF01FFFC000
FFF01FFFF000
FFF00FFFF800
FFF00FFFFC00
FFF007FFFF00
FFF003FFFF80
FFF001FFFFC0
FFF000FFFFC0
FFF0007FFFE0
FFF0001FFFF0
FFF0000FFFF0
FFF00007FFF8
FFF00003FFF8
FFF00001FFF8
FFF00000FFF8
FFF00000FFF8
FFF000007FF8
FFF000007FF8
FFF000007FF8
FFF000007FF8
FFF00000FFF8
FFF00001FFF8
FFF03FFFFFF0
FFF03FFFFFF0
FFF03FFFFFE0
FFF03FFFFFC0
FFF03FFFFFC0
FFF03FFFFF00
FFF03FFFFE00
FFF03FFFF800
FFF03FFFE000
000007FE0000
ENDCHAR
STARTCHAR 00E0
ENCODING 224
SWIDTH 550 0
DWIDTH 55 0
BBX 43 70 5 -1
BITMAP
FFFF00000000
7FFF80000000
1FFFC0000000
0FFFE0000000
07FFF0000000
01FFF8000000
00FFFC000000
007FFE000000
001FFF000000
000FFF800000
0007FFC00000
0001FFE00000
0000FFF00000
000000000000
000000000000
000000000000
000000000000
000000000000
00003FC00000
001FFFFF0000
01FFFFFFE000
0FFFFFFFF800
0FFFFFFFFC00
0FFFFFFFFE00
0FFFFFFFFF00
0FFFFFFFFF80
0FFFFFFFFF80
0FFFC0FFFFC0
0FF0001FFFC0
0F000007FFC0
0C000003FFE0
00000003FFE0
00000001FFE0
00000001FFE0
00000001FFE0
00000001FFE0
00000001FFE0
00000001FFE0
00000001FFE0
0001FFFFFFE0
000FFFFFFFE0
007FFFFFFFE0
01FFFFFFFFE0
03FFFFFFFFE0
07FFFFFFFFE0
0FFFFFFFFFE0
1FFFFFFFFFE0
3FFFF001FFE0
3FFF8001FFE0
7FFE0001FFE0
7FFC0001FFE0
7FFC0001FFE0
FFF80001FFE0
FFF80001FFE0
FFF80003FFE0
FFF80007FFE0
FFF8000FFFE0
FFF8001FFFE0
7FFC003FFFE0
7FFE00FFFFE0
7FFFE7FFFFE0
7FFFFFFFFFE0
3FFFFFFFFFE0
3FFFFFFF7FE0
1FFFFFFE7FE0
0FFFFFF87FE0
07FFFFF07FE0
03FFFFC07FE0
00FFFF007FE0
001FF8000000
ENDCHAR
STARTCHAR 00E1
ENCODING 225
SWIDTH 550 0
DWIDTH 55 0
BBX 45 70 5 -1
BITMAP
00000007FFF8
0000000FFFE0
0000001FFFC0
0000003FFF80
0000007FFE00
000000FFFC00
000001FFF800
000003FFE000
000007FFC000
00000FFF8000
00001FFE0000
00003FFC0000
00007FF80000
000000000000
000000000000
000000000000
000000000000
000000000000
00003FC00000
001FFFFF0000
01FFFFFFE000
0FFFFFFFF800
0FFFFFFFFC00
0FFFFFFFFE00
0FFFFFFFFF00
0FFFFFFFFF80
0FFFFFFFFF80
0FFFC0FFFFC0
0FF0001FFFC0
0F000007FFC0
0C000003FFE0
00000003FFE0
00000001FFE0
00000001FFE0
00000001FFE0
00000001FFE0
00000001FFE0
00000001FFE0
00000001FFE0
0001FFFFFFE0
000FFFFFFFE0
007FFFFFFFE0
01FFFFFFFFE0
03FFFFFFFFE0
07FFFFFFFFE0
0FFFFFFFFFE0
1FFFFFFFFFE0
3FFFF001FFE0
3FFF8001FFE0
7FFE0001FFE0
7FFC0001FFE0
7FFC0001FFE0
FFF80001FFE0
FFF80001FFE0
FFF80003FFE0
FFF80007FFE0
FFF8000FFFE0
FFF8001FFFE0
7FFC003FFFE0
7FFE00FFFFE0
7FFFE7FFFFE0
7FFFFFFFFFE0
3FFFFFFFFFE0
3FFFFFFF7FE0
1FFFFFFE7FE0
0FFFFFF87FE0
07FFFFF07FE0
03FFFFC07FE0
00FFFF007FE0
001FF8000000
ENDCHAR
STARTCHAR 00E2
ENCODING 226
SWIDTH 550 0
DWIDTH 55 0
BBX 43 70 5 -1
BITMAP
00003FF00000
00007FF00000
0000FFF80000
0001FFFC0000
0003FFFE0000
0007FFFF0000
000FFFFF8000
001FFDFFC000
003FF8FFE000
007FF07FF000
00FFE03FF800
01FFC01FFC00
03FF800FFE00
000000000000
000000000000
000000000000
000000000000
000000000000
00003FC00000
001FFFFF0000
01FFFFFFE000
0FFFFFFFF800
0FFFFFFFFC00
0FFFFFFFFE00
0FFFFFFFFF00
0FFFFFFFFF80
0FFFFFFFFF80
0FFFC0FFFFC0
0FF0001FFFC0
0F000007FFC0
0C000003FFE0
00000003FFE0
00000001FFE0
00000001FFE0
00000001FFE0
00000001FFE0
00000001FFE0
00000001FFE0
00000001FFE0
0001FFFFFFE0
000FFFFFFFE0
007FFFFFFFE0
01FFFFFFFFE0
03FFFFFFFFE0
07FFFFFFFFE0
0FFFFFFFFFE0
1FFFFFFFFFE0
3FFFF001FFE0
3FFF8001FFE0
7FFE0001FFE0
7FFC0001FFE0
7FFC0001FFE0
FFF80001FFE0
FFF80001FFE0
FFF80003FFE0
FFF80007FFE0
FFF8000FFFE0
FFF8001FFFE0
7FFC003FFFE0
7FFE00FFFFE0
7FFFE7FFFFE0
7FFFFFFFFFE0
3FFFFFFFFFE0
3FFFFFFF7FE0
1FFFFFFE7FE0
0FFFFFF87FE0
07FFFFF07FE0
03FFFFC07FE0
00FFFF007FE0
001FF8000000
ENDCHAR
STARTCHAR 00E3
ENCODING 227
SWIDTH 550 0
DWIDTH 55 0
BBX 43 71 5 -1
BITMAP
000FE0000000
007FFC001000
00FFFF001800
01FFFF803C00
03FFFFE07E00
07FFFFFFFF00
07FFFFFFFF80
0FFFFFFFFF00
07FFFFFFFF00
03F83FFFFE00
01E00FFFFC00
00C007FFF800
004001FFF000
0000007F8000
000000000000
000000000000
000000000000
000000000000
000000000000
00003FC00000
001FFFFF0000
01FFFFFFE000
0FFFFFFFF800
0FFFFFFFFC00
0FFFFFFFFE00
0FFFFFFFFF00
0FFFFFFFFF80
0FFFFFFFFF80
0FFFC0FFFFC0
0FF0001FFFC0
0F000007FFC0
0C000003FFE0
00000003FFE0
00000001FFE0
00000001FFE0
00000001FFE0
00000001FFE0
00000001FFE0
00000001FFE0
00000001FFE0
0001FFFFFFE0
000FFFFFFFE0
007FFFFFFFE0
01FFFFFFFFE0
03FFFFFFFFE0
07FFFFFFFFE0
0FFFFFFFFFE0
1FFFFFFFFFE0
3FFFF001FFE0
3FFF8001FFE0
7FFE0001FFE0
7FFC0001FFE0
7FFC0001FFE0
FFF80001FFE0
FFF80001FFE0
FFF80003FFE0
FFF80007FFE0
FFF8000FFFE0
FFF8001FFFE0
7FFC003FFFE0
7FFE00FFFFE0
7FFFE7FFFFE0
7FFFFFFFFFE0
3FFFFFFFFFE0
3FFFFFFF7FE0
1FFFFFFE7FE0
0FFFFFF87FE0
07FFFFF07FE0
03FFFFC07FE0
00FFFF007FE0
001FF8000000
ENDCHAR
STARTCHAR 00E4
ENCODING 228
SWIDTH 550 0
DWIDTH 55 0
BBX 43 71 5 -1
BITMAP
003C0001E000
00FF0007F800
01FF800FFC00
01FFC01FFC00
03FFE03FFE00
03FFE03FFE00
03FFE03FFE00
03FFE03FFE00
03FFE03FFE00
03FFC01FFE00
01FFC01FFC00
01FF800FFC00
007F0007F000
00180001C000
000000000000
000000000000
000000000000
000000000000
000000000000
00003FC00000
001FFFFF0000
01FFFFFFE000
0FFFFFFFF800
0FFFFFFFFC00
0FFFFFFFFE00
0FFFFFFFFF00
0FFFFFFFFF80
0FFFFFFFFF80
0FFFC0FFFFC0
0FF0001FFFC0
0F000007FFC0
0C000003FFE0
00000003FFE0
00000001FFE0
00000001FFE0
00000001FFE0
00000001FFE0
00000001FFE0
00000001FFE0
00000001FFE0
0001FFFFFFE0
000FFFFFFFE0
007FFFFFFFE0
01FFFFFFFFE0
03FFFFFFFFE0
07FFFFFFFFE0
0FFFFFFFFFE0
1FFFFFFFFFE0
3FFFF001FFE0
3FFF8001FFE0
7FFE0001FFE0
7FFC0001FFE0
7FFC0001FFE0
FFF80001FFE0
FFF80001FFE0
FFF80003FFE0
FFF80007FFE0
FFF8000FFFE0
FFF8001FFFE0
7FFC003FFFE0
7FFE00FFFFE0
7FFFE7FFFFE0
7FFFFFFFFFE0
3FFFFFFFFFE0
3FFFFFFF7FE0
1FFFFFFE7FE0
0FFFFFF87FE0
07FFFFF07FE0
03FFFFC07FE0
00FFFF007FE0
001FF8000000
ENDCHAR
STARTCHAR 00E5
ENCODING 229
SWIDTH 550 0
DWIDTH 55 0
BBX 43 77 5 -1
BITMAP
00000F800000
00007FF00000
0001FFFC0000
0003FFFE0000
0007FFFF0000
000FFFFF8000
000FFFFF8000
001FF07FC000
001FE03FC000
001FC01FC000
001FC01FC000
001FC01FC000
001FC01FC000
001FC01FC000
001FE03FC000
000FF0FF8000
000FFFFF8000
0007FFFF0000
0007FFFF0000
0003FFFC0000
0000FFF80000
00003FE00000
000000000000
000000000000
000000000000
00003FC00000
001FFFFF0000
01FFFFFFE000
0FFFFFFFF800
0FFFFFFFFC00
0FFFFFFFFE00
0FFFFFFFFF00
0FFFFFFFFF80
0FFFFFFFFF80
0FFFC0FFFFC0
0FF0001FFFC0
0F000007FFC0
0C000003FFE0
00000003FFE0
00000001FFE0
00000001FFE0
00000001FFE0
00000001FFE0
00000001FFE0
00000001FFE0
00000001FFE0
0001FFFFFFE0
000FFFFFFFE0
007FFFFFFFE0
01FFFFFFFFE0
03FFFFFFFFE0
07FFFFFFFFE0
0FFFFFFFFFE0
1FFFFFFFFFE0
3FFFF001FFE0
3FFF8001FFE0
7FFE0001FFE0
7FFC0001FFE0
7FFC0001FFE0
FFF80001FFE0
FFF80001FFE0
FFF80003FFE0
FFF80007FFE0
FFF8000FFFE0
FFF8001FFFE0
7FFC003FFFE0
7FFE00FFFFE0
7FFFE7FFFFE0
7FFFFFFFFFE0
3FFFFFFFFFE0
3FFFFFFF7FE0
1FFFFFFE7FE0
0FFFFFF87FE0
07FFFFF07FE0
03FFFFC07FE0
00FFFF007FE0
001FF8000000
ENDCHAR
STARTCHAR 00E6
ENCODING 230
SWIDTH 550 0
DWIDTH 55 0
BBX 53 52 1 -1
BITMAP
0007C0000F0000
00FFFE00FFF000
07FFFF81FFFC00
1FFFFFC7FFFE00
1FFFFFEFFFFF00
1FFFFFFFFFFF80
1FFFFFFFFFFFC0
1FFFFFFFFFFFC0
1FFFFFFFFFFFE0
1FE03FFFE0FFE0
1F001FFFC07FE0
1C000FFF807FF0
100007FF803FF0
000007FF003FF0
000007FF001FF0
000003FF001FF0
000003FF001FF0
000003FE001FF8
000003FE001FF8
000003FE001FF8
000003FE001FF8
0001FFFFFFFFF8
003FFFFFFFFFF8
01FFFFFFFFFFF8
03FFFFFFFFFFF8
0FFFFFFFFFFFF8
1FFFFFFFFFFFF8
1FFFFFFFFFFFF8
3FFFFFFFFFFFF8
7FFC03FE000000
7FF003FE000000
7FF003FE000000
FFE003FE000000
FFE003FE000000
FFC003FE000000
FFC003FF000000
FFC003FF000000
FFC007FF000000
FFC007FF800000
FFC00FFF800000
FFE01FFFC00000
FFE03FFFE00060
FFF07FFFF803E0
7FFFFFFFFFFFE0
7FFFFFFFFFFFE0
7FFFFF3FFFFFE0
3FFFFE3FFFFFE0
3FFFFE1FFFFFE0
1FFFFC0FFFFFE0
0FFFF007FFFFE0
03FFE001FFFF80
00FF80007FF800
ENDCHAR
STARTCHAR 00E7
ENCODING 231
SWIDTH 550 0
DWIDTH 55 0
BBX 40 64 7 -14
BITMAP
00003FFFF0
0001FFFFFF
0007FFFFFF
001FFFFFFF
007FFFFFFF
00FFFFFFFF
01FFFFFFFF
03FFFFFFFF
07FFFFFFFF
0FFFFFFFFF
0FFFFC00FF
1FFFE0000F
3FFFC00001
3FFF800000
3FFF000000
7FFE000000
7FFC000000
7FFC000000
FFF8000000
FFF8000000
FFF8000000
FFF8000000
FFF0000000
FFF0000000
FFF0000000
FFF0000000
FFF0000000
FFF0000000
FFF8000000
FFF8000000
FFF8000000
FFF8000000
FFFC000000
FFFC000000
7FFE000000
7FFE000000
7FFF000000
7FFF800000
3FFFE00007
3FFFF8003F
1FFFFFFFFF
0FFFFFFFFF
0FFFFFFFFF
07FFFFFFFF
03FFFFFFFF
01FFFFFFFF
007FFFFFFF
003FFFFFFF
000FFFFFFE
0001FFFFF0
00007FFE00
0000FFE000
0000FFE000
0000FFE000
0000FFC000
0000FFC000
0001FF8000
0001FF8000
0001FF8000
0001FF0000
0001FF0000
0003FF0000
0003FE0000
0003FE0000
ENDCHAR
STARTCHAR 00E8
ENCODING 232
SWIDTH 550 0
DWIDTH 55 0
BBX 45 70 5 -1
BITMAP
FFFF00000000
7FFF80000000
1FFFC0000000
0FFFE0000000
07FFF0000000
01FFF8000000
00FFFC000000
007FFE000000
001FFF000000
000FFF800000
0007FFC00000
0001FFE00000
0000FFF00000
000000000000
000000000000
000000000000
000000000000
000000000000
000007C00000
0000FFFE0000
0007FFFFC000
001FFFFFF000
003FFFFFF800
007FFFFFFC00
01FFFFFFFE00
01FFFFFFFF00
03FFFFFFFF80
07FFF03FFFC0
0FFFC00FFFC0
0FFF0007FFE0
1FFE0003FFE0
1FFE0001FFF0
3FFC0000FFF0
3FFC0000FFF0
3FF80000FFF0
7FF800007FF8
7FF800007FF8
7FF000007FF8
7FF000007FF8
FFFFFFFFFFF8
FFFFFFFFFFF8
FFFFFFFFFFF8
FFFFFFFFFFF8
FFFFFFFFFFF8
FFFFFFFFFFF8
FFFFFFFFFFF8
FFFFFFFFFFF8
FFF000000000
FFF000000000
FFF000000000
FFF000000000
FFF800000000
7FF800000000
7FF800000000
7FFC00000000
7FFC00000000
3FFE00000000
3FFF00000000
1FFFC0000040
1FFFF00007C0
0FFFFF87FFC0
0FFFFFFFFFC0
07FFFFFFFFC0
03FFFFFFFFC0
01FFFFFFFFC0
00FFFFFFFFC0
003FFFFFFFC0
000FFFFFFFC0
0003FFFFFE00
00003FFF8000
ENDCHAR
STARTCHAR 00E9
ENCODING 233
SWIDTH 550 0
DWIDTH 55 0
BBX 45 70 5 -1
BITMAP
00000007FFF8
0000000FFFE0
0000001FFFC0
0000003FFF80
0000007FFE00
000000FFFC00
000001FFF800
000003FFE000
000007FFC000
00000FFF8000
00001FFE0000
00003FFC0000
00007FF80000
000000000000
000000000000
000000000000
000000000000
000000000000
000007C00000
0000FFFE0000
0007FFFFC000
001FFFFFF000
003FFFFFF800
007FFFFFFC00
01FFFFFFFE00
01FFFFFFFF00
03FFFFFFFF80
07FFF03FFFC0
0FFFC00FFFC0
0FFF0007FFE0
1FFE0003FFE0
1FFE0001FFF0
3FFC0000FFF0
3FFC0000FFF0
3FF80000FFF0
7FF800007FF8
7FF800007FF8
7FF000007FF8
7FF000007FF8
FFFFFFFFFFF8
FFFFFFFFFFF8
FFFFFFFFFFF8
FFFFFFFFFFF8
FFFFFFFFFFF8
FFFFFFFFFFF8
FFFFFFFFFFF8
FFFFFFFFFFF8
FFF000000000
FFF000000000
FFF000000000
FFF000000000
FFF800000000
7FF800000000
7FF800000000
7FFC00000000
7FFC00000000
3FFE00000000
3FFF00000000
1FFFC0000040
1FFFF00007C0
0FFFFF87FFC0
0FFFFFFFFFC0
07FFFFFFFFC0
03FFFFFFFFC0
01FFFFFFFFC0
00FFFFFFFFC0
003FFFFFFFC0
000FFFFFFFC0
0003FFFFFE00
00003FFF8000
ENDCHAR
STARTCHAR 00EA
ENCODING 234
SWIDTH 550 0
DWIDTH 55 0
BBX 45 70 5 -1
BITMAP
00003FF00000
00007FF00000
0000FFF80000
0001FFFC0000
0003FFFE0000
0007FFFF0000
000FFFFF8000
001FFDFFC000
003FF8FFE000
007FF07FF000
00FFE03FF800
01FFC01FFC00
03FF800FFE00
000000000000
000000000000
000000000000
000000000000
000000000000
000007C00000
0000FFFE0000
0007FFFFC000
001FFFFFF000
003FFFFFF800
007FFFFFFC00
01FFFFFFFE00
01FFFFFFFF00
03FFFFFFFF80
07FFF03FFFC0
0FFFC00FFFC0
0FFF0007FFE0
1FFE0003FFE0
1FFE0001FFF0
3FFC0000FFF0
3FFC0000FFF0
3FF80000FFF0
7FF800007FF8
7FF800007FF8
7FF000007FF8
7FF000007FF8
FFFFFFFFFFF8
FFFFFFFFFFF8
FFFFFFFFFFF8
FFFFFFFFFFF8
FFFFFFFFFFF8
FFFFFFFFFFF8
FFFFFFFFFFF8
FFFFFFFFFFF8
FFF000000000
FFF000000000
FFF000000000
FFF000000000
FFF800000000
7FF800000000
7FF800000000
7FFC00000000
7FFC00000000
3FFE00000000
3FFF00000000
1FFFC0000040
1FFFF00007C0
0FFFFF87FFC0
0FFFFFFFFFC0
07FFFFFFFFC0
03FFFFFFFFC0
01FFFFFFFFC0
00FFFFFFFFC0
003FFFFFFFC0
000FFFFFFFC0
0003FFFFFE00
00003FFF8000
ENDCHAR
STARTCHAR 00EB
ENCODING 235
SWIDTH 550 0
DWIDTH 55 0
BBX 45 71 5 -1
BITMAP
003C0001E000
00FF0007F800
01FF800FFC00
01FFC01FFC00
03FFE03FFE00
03FFE03FFE00
03FFE03FFE00
03FFE03FFE00
03FFE03FFE00
03FFC01FFE00
01FFC01FFC00
01FF800FFC00
007F0007F000
00180001C000
000000000000
000000000000
000000000000
000000000000
000000000000
000007C00000
0000FFFE0000
0007FFFFC000
001FFFFFF000
003FFFFFF800
007FFFFFFC00
01FFFFFFFE00
01FFFFFFFF00
03FFFFFFFF80
07FFF03FFFC0
0FFFC00FFFC0
0FFF0007FFE0
1FFE0003FFE0
1FFE0001FFF0
3FFC0000FFF0
3FFC0000FFF0
3FF80000FFF0
7FF800007FF8
7FF800007FF8
7FF000007FF8
7FF000007FF8
FFFFFFFFFFF8
FFFFFFFFFFF8
FFFFFFFFFFF8
FFFFFFFFFFF8
FFFFFFFFFFF8
FFFFFFFFFFF8
FFFFFFFFFFF8
FFFFFFFFFFF8
FFF000000000
FFF000000000
FFF000000000
FFF000000000
FFF800000000
7FF800000000
7FF800000000
7FFC00000000
7FFC00000000
3FFE00000000
3FFF00000000
1FFFC0000040
1FFFF00007C0
0FFFFF87FFC0
0FFFFFFFFFC0
07FFFFFFFFC0
03FFFFFFFFC0
01FFFFFFFFC0
00FFFFFFFFC0
003FFFFFFFC0
000FFFFFFFC0
0003FFFFFE00
00003FFF8000
ENDCHAR
STARTCHAR 00EC
ENCODING 236
SWIDTH 550 0
DWIDTH 55 0
BBX 43 69 6 0
BITMAP
FFFF00000000
7FFF80000000
1FFFC0000000
0FFFE0000000
07FFF0000000
01FFF8000000
00FFFC000000
007FFE000000
001FFF000000
000FFF800000
0007FFC00000
0001FFE00000
0000FFF00000
000000000000
000000000000
000000000000
000000000000
000000000000
000000000000
1FFFFFF80000
1FFFFFF80000
1FFFFFF80000
1FFFFFF80000
1FFFFFF80000
1FFFFFF80000
1FFFFFF80000
1FFFFFF80000
1FFFFFF80000
1FFFFFF80000
00007FF80000
00007FF80000
00007FF80000
00007FF80000
00007FF80000
00007FF80000
00007FF80000
00007FF80000
00007FF80000
00007FF80000
00007FF80000
00007FF80000
00007FF80000
00007FF80000
00007FF80000
00007FF80000
00007FF80000
00007FF80000
00007FF80000
00007FF80000
00007FF80000
00007FF80000
00007FF80000
00007FF80000
00007FF80000
00007FF80000
00007FF80000
00007FF80000
00007FF80000
00007FF80000
00007FF80000
7FFFFFFFFFE0
7FFFFFFFFFE0
7FFFFFFFFFE0
7FFFFFFFFFE0
7FFFFFFFFFE0
7FFFFFFFFFE0
7FFFFFFFFFE0
7FFFFFFFFFE0
7FFFFFFFFFE0
ENDCHAR
STARTCHAR 00ED
ENCODING 237
SWIDTH 550 0
DWIDTH 55 0
BBX 44 69 7 0
BITMAP
0000000FFFF0
0000001FFFC0
0000003FFF80
0000007FFF00
000000FFFC00
000001FFF800
000003FFF000
000007FFC000
00000FFF8000
00001FFF0000
00003FFC0000
00007FF80000
0000FFF00000
000000000000
000000000000
000000000000
000000000000
000000000000
000000000000
3FFFFFF00000
3FFFFFF00000
3FFFFFF00000
3FFFFFF00000
3FFFFFF00000
3FFFFFF00000
3FFFFFF00000
3FFFFFF00000
3FFFFFF00000
3FFFFFF00000
0000FFF00000
0000FFF00000
0000FFF00000
0000FFF00000
0000FFF00000
0000FFF00000
0000FFF00000
0000FFF00000
0000FFF00000
0000FFF00000
0000FFF00000
0000FFF00000
0000FFF00000
0000FFF00000
0000FFF00000
0000FFF00000
0000FFF00000
0000FFF00000
0000FFF00000
0000FFF00000
0000FFF00000
0000FFF00000
0000FFF00000
0000FFF00000
0000FFF00000
0000FFF00000
0000FFF00000
0000FFF00000
0000FFF00000
0000FFF00000
0000FFF00000
FFFFFFFFFFC0
FFFFFFFFFFC0
FFFFFFFFFFC0
FFFFFFFFFFC0
FFFFFFFFFFC0
FFFFFFFFFFC0
FFFFFFFFFFC0
FFFFFFFFFFC0
FFFFFFFFFFC0
ENDCHAR
STARTCHAR 00EE
ENCODING 238
SWIDTH 550 0
DWIDTH 55 0
BBX 42 69 7 0
BITMAP
0000FFC00000
0001FFC00000
0003FFE00000
0007FFF00000
000FFFF80000
001FFFFC0000
003FFFFE0000
007FF7FF0000
00FFE3FF8000
01FFC1FFC000
03FF80FFE000
07FF007FF000
0FFE003FF800
000000000000
000000000000
000000000000
000000000000
000000000000
000000000000
3FFFFFF00000
3FFFFFF00000
3FFFFFF00000
3FFFFFF00000
3FFFFFF00000
3FFFFFF00000
3FFFFFF00000
3FFFFFF00000
3FFFFFF00000
3FFFFFF00000
0000FFF00000
0000FFF00000
0000FFF00000
0000FFF00000
0000FFF00000
0000FFF00000
0000FFF00000
0000FFF00000
0000FFF00000
0000FFF00000
0000FFF00000
0000FFF00000
0000FFF00000
0000FFF00000
0000FFF00000
0000FFF00000
0000FFF00000
0000FFF00000
0000FFF00000
0000FFF00000
0000FFF00000
0000FFF00000
0000FFF00000
0000FFF00000
0000FFF00000
0000FFF00000
0000FFF00000
0000FFF00000
0000FFF00000
0000FFF00000
0000FFF00000
FFFFFFFFFFC0
FFFFFFFFFFC0
FFFFFFFFFFC0
FFFFFFFFFFC0
FFFFFFFFFFC0
FFFFFFFFFFC0
FFFFFFFFFFC0
FFFFFFFFFFC0
FFFFFFFFFFC0
ENDCHAR
STARTCHAR 00EF
ENCODING 239
SWIDTH 550 0
DWIDTH 55 0
BBX 42 70 7 0
BITMAP
00780003C000
01FE000FF000
03FF001FF800
03FF803FF800
07FFC07FFC00
07FFC07FFC00
07FFC07FFC00
07FFC07FFC00
07FFC07FFC00
07FF803FFC00
03FF803FF800
03FF001FF800
00FE000FE000
003000038000
000000000000
000000000000
000000000000
000000000000
000000000000
000000000000
3FFFFFF00000
3FFFFFF00000
3FFFFFF00000
3FFFFFF00000
3FFFFFF00000
3FFFFFF00000
3FFFFFF00000
3FFFFFF00000
3FFFFFF00000
3FFFFFF00000
0000FFF00000
0000FFF00000
0000FFF00000
0000FFF00000
0000FFF00000
0000FFF00000
0000FFF00000
0000FFF00000
0000FFF00000
0000FFF00000
0000FFF00000
0000FFF00000
0000FFF00000
0000FFF00000
0000FFF00000
0000FFF00000
0000FFF00000
0000FFF00000
0000FFF00000
0000FFF00000
0000FFF00000
0000FFF00000
0000FFF00000
0000FFF00000
0000FFF00000
0000FFF00000
0000FFF00000
0000FFF00000
0000FFF00000
0000FFF00000
0000FFF00000
FFFFFFFFFFC0
FFFFFFFFFFC0
FFFFFFFFFFC0
FFFFFFFFFFC0
FFFFFFFFFFC0
FFFFFFFFFFC0
FFFFFFFFFFC0
FFFFFFFFFFC0
FFFFFFFFFFC0
ENDCHAR
STARTCHAR 00F0
ENCODING 240
SWIDTH 550 0
DWIDTH 55 0
BBX 46 70 4 -1
BITMAP
007FFF800040
003FFFC00FC0
001FFFE0FFC0
000FFFFFFFC0
0007FFFFFFC0
0003FFFFFFC0
0007FFFFFFC0
00FFFFFFFFC0
03FFFFFFFFC0
03FFFFFFFF80
03FFFFFFF000
03FFFFFFC000
03FFFFFFC000
03FFFFFFE000
03FFC7FFF000
03F803FFF000
030001FFF800
000001FFFC00
000000FFFC00
0000FFFFFE00
0003FFFFFF00
001FFFFFFF00
003FFFFFFF80
00FFFFFFFF80
01FFFFFFFFC0
03FFFFFFFFC0
07FFFFFFFFE0
07FFFFFFFFE0
0FFFF807FFE0
1FFFE003FFF0
1FFF8001FFF0
3FFF0001FFF0
3FFF0001FFF8
3FFE0000FFF8
7FFC0000FFF8
7FFC0000FFF8
7FF800007FFC
FFF800007FFC
FFF800007FFC
FFF800007FFC
FFF800007FFC
FFF000003FFC
FFF000003FFC
FFF000003FFC
FFF000003FFC
FFF000003FFC
FFF000003FFC
FFF000003FFC
FFF000007FFC
FFF000007FFC
FFF800007FFC
FFF800007FFC
FFF80000FFF8
FFF80000FFF8
7FFC0000FFF8
7FFC0001FFF8
7FFE0003FFF0
3FFF0007FFF0
3FFF800FFFE0
3FFFF03FFFE0
1FFFFFFFFFC0
0FFFFFFFFFC0
0FFFFFFFFF80
07FFFFFFFF00
03FFFFFFFE00
01FFFFFFFC00
00FFFFFFF000
003FFFFFE000
000FFFFF0000
0000FFF80000
ENDCHAR
STARTCHAR 00F1
ENCODING 241
SWIDTH 550 0
DWIDTH 55 0
BBX 41 70 7 0
BITMAP
003F80000000
01FFF0004000
03FFFC006000
07FFFE00F000
0FFFFF81F800
1FFFFFFFFC00
1FFFFFFFFE00
3FFFFFFFFC00
1FFFFFFFFC00
0FE0FFFFF800
07803FFFF000
03001FFFE000
010007FFC000
000001FE0000
000000000000
000000000000
000000000000
000000000000
000000000000
000001F00000
FFC01FFF8000
FFC07FFFC000
FFC0FFFFF000
FFC3FFFFF800
FFC7FFFFFC00
FFCFFFFFFC00
FFDFFFFFFE00
FFDFFFFFFF00
FFFFFFFFFF00
FFFFFFFFFF00
FFFFF01FFF80
FFFFC00FFF80
FFFF800FFF80
FFFF0007FF80
FFFE0007FF80
FFFC0007FF80
FFF80007FF80
FFF80007FF80
FFF00007FF80
FFF00007FF80
FFF00007FF80
FFF00007FF80
FFF00007FF80
FFF00007FF80
FFF00007FF80
FFF00007FF80
FFF00007FF80
FFF00007FF80
FFF00007FF80
FFF00007FF80
FFF00007FF80
FFF00007FF80
FFF00007FF80
FFF00007FF80
FFF00007FF80
FFF00007FF80
FFF00007FF80
FFF00007FF80
FFF00007FF80
FFF00007FF80
FFF00007FF80
FFF00007FF80
FFF00007FF80
FFF00007FF80
FFF00007FF80
FFF00007FF80
FFF00007FF80
FFF00007FF80
FFF00007FF80
FFF00007FF80
ENDCHAR
STARTCHAR 00F2
ENCODING 242
SWIDTH 550 0
DWIDTH 55 0
BBX 47 70 4 -1
BITMAP
7FFF80000000
3FFFC0000000
0FFFE0000000
07FFF0000000
03FFF8000000
00FFFC000000
007FFE000000
003FFF000000
000FFF800000
0007FFC00000
0003FFE00000
0000FFF00000
00007FF80000
000000000000
000000000000
000000000000
000000000000
000000000000
000003C00000
0000FFFF0000
0007FFFFE000
001FFFFFF800
007FFFFFFE00
00FFFFFFFF00
01FFFFFFFF80
03FFFFFFFFC0
07FFFFFFFFE0
0FFFFFFFFFE0
0FFFFFFFFFF0
1FFFE00FFFF0
1FFF8003FFF8
3FFF0001FFF8
3FFE0000FFFC
7FFC00007FFC
7FFC00007FFC
7FF800003FFE
FFF800003FFE
FFF800003FFE
FFF800001FFE
FFF000001FFE
FFF000001FFE
FFF000001FFE
FFF000001FFE
FFF000001FFE
FFF000001FFE
FFF000001FFE
FFF000001FFE
FFF000001FFE
FFF000001FFE
FFF000001FFE
FFF800003FFE
FFF800003FFE
FFF800003FFC
FFFC00007FFC
7FFC00007FFC
7FFE0000FFF8
7FFF0001FFF8
3FFF8003FFF8
3FFFC007FFF0
1FFFF83FFFF0
1FFFFFFFFFE0
0FFFFFFFFFC0
07FFFFFFFF80
03FFFFFFFF00
01FFFFFFFE00
00FFFFFFFC00
007FFFFFF800
001FFFFFE000
0007FFFF8000
00007FF80000
ENDCHAR
STARTCHAR 00F3
ENCODING 243
SWIDTH 550 0
DWIDTH 55 0
BBX 47 70 4 -1
BITMAP
00000003FFFC
00000007FFF0
0000000FFFE0
0000001FFFC0
0000003FFF00
0000007FFE00
000000FFFC00
000001FFF000
000003FFE000
000007FFC000
00000FFF0000
00001FFE0000
00003FFC0000
000000000000
000000000000
000000000000
000000000000
000000000000
000003C00000
0000FFFF0000
0007FFFFE000
001FFFFFF800
007FFFFFFE00
00FFFFFFFF00
01FFFFFFFF80
03FFFFFFFFC0
07FFFFFFFFE0
0FFFFFFFFFE0
0FFFFFFFFFF0
1FFFE00FFFF0
1FFF8003FFF8
3FFF0001FFF8
3FFE0000FFFC
7FFC00007FFC
7FFC00007FFC
7FF800003FFE
FFF800003FFE
FFF800003FFE
FFF800001FFE
FFF000001FFE
FFF000001FFE
FFF000001FFE
FFF000001FFE
FFF000001FFE
FFF000001FFE
FFF000001FFE
FFF000001FFE
FFF000001FFE
FFF000001FFE
FFF000001FFE
FFF800003FFE
FFF800003FFE
FFF800003FFC
FFFC00007FFC
7FFC00007FFC
7FFE0000FFF8
7FFF0001FFF8
3FFF8003FFF8
3FFFC007FFF0
1FFFF83FFFF0
1FFFFFFFFFE0
0FFFFFFFFFC0
07FFFFFFFF80
03FFFFFFFF00
01FFFFFFFE00
00FFFFFFFC00
007FFFFFF800
001FFFFFE000
0007FFFF8000
00007FF80000
ENDCHAR
STARTCHAR 00F4
ENCODING 244
SWIDTH 550 0
DWIDTH 55 0
BBX 47 70 4 -1
BITMAP
00001FF80000
00003FF80000
00007FFC0000
0000FFFE0000
0001FFFF0000
0003FFFF8000
0007FFFFC000
000FFEFFE000
001FFC7FF000
003FF83FF800
007FF01FFC00
00FFE00FFE00
01FFC007FF00
000000000000
000000000000
000000000000
000000000000
000000000000
000003C00000
0000FFFF0000
0007FFFFE000
001FFFFFF800
007FFFFFFE00
00FFFFFFFF00
01FFFFFFFF80
03FFFFFFFFC0
07FFFFFFFFE0
0FFFFFFFFFE0
0FFFFFFFFFF0
1FFFE00FFFF0
1FFF8003FFF8
3FFF0001FFF8
3FFE0000FFFC
7FFC00007FFC
7FFC00007FFC
7FF800003FFE
FFF800003FFE
FFF800003FFE
FFF800001FFE
FFF000001FFE
FFF000001FFE
FFF000001FFE
FFF000001FFE
FFF000001FFE
FFF000001FFE
FFF000001FFE
FFF000001FFE
FFF000001FFE
FFF000001FFE
FFF000001FFE
FFF800003FFE
FFF800003FFE
FFF800003FFC
FFFC00007FFC
7FFC00007FFC
7FFE0000FFF8
7FFF0001FFF8
3FFF8003FFF8
3FFFC007FFF0
1FFFF83FFFF0
1FFFFFFFFFE0
0FFFFFFFFFC0
07FFFFFFFF80
03FFFFFFFF00
01FFFFFFFE00
00FFFFFFFC00
007FFFFFF800
001FFFFFE000
0007FFFF8000
00007FF80000
ENDCHAR
STARTCHAR 00F5
ENCODING 245
SWIDTH 550 0
DWIDTH 55 0
BBX 47 71 4 -1
BITMAP
0007F0000000
003FFE000800
007FFF800C00
00FFFFC01E00
01FFFFF03F00
03FFFFFFFF80
03FFFFFFFFC0
07FFFFFFFF80
03FFFFFFFF80
01FC1FFFFF00
00F007FFFE00
006003FFFC00
002000FFF800
0000003FC000
000000000000
000000000000
000000000000
000000000000
000000000000
000003C00000
0000FFFF0000
0007FFFFE000
001FFFFFF800
007FFFFFFE00
00FFFFFFFF00
01FFFFFFFF80
03FFFFFFFFC0
07FFFFFFFFE0
0FFFFFFFFFE0
0FFFFFFFFFF0
1FFFE00FFFF0
1FFF8003FFF8
3FFF0001FFF8
3FFE0000FFFC
7FFC00007FFC
7FFC00007FFC
7FF800003FFE
FFF800003FFE
FFF800003FFE
FFF800001FFE
FFF000001FFE
FFF000001FFE
FFF000001FFE
FFF000001FFE
FFF000001FFE
FFF000001FFE
FFF000001FFE
FFF000001FFE
FFF000001FFE
FFF000001FFE
FFF000001FFE
FFF800003FFE
FFF800003FFE
FFF800003FFC
FFFC00007FFC
7FFC00007FFC
7FFE0000FFF8
7FFF0001FFF8
3FFF8003FFF8
3FFFC007FFF0
1FFFF83FFFF0
1FFFFFFFFFE0
0FFFFFFFFFC0
07FFFFFFFF80
03FFFFFFFF00
01FFFFFFFE00
00FFFFFFFC00
007FFFFFF800
001FFFFFE000
0007FFFF8000
00007FF80000
ENDCHAR
STARTCHAR 00F6
ENCODING 246
SWIDTH 550 0
DWIDTH 55 0
BBX 47 71 4 -1
BITMAP
001E0000F000
007F8003FC00
00FFC007FE00
00FFE00FFE00
01FFF01FFF00
01FFF01FFF00
01FFF01FFF00
01FFF01FFF00
01FFF01FFF00
01FFE00FFF00
00FFE00FFE00
00FFC007FE00
003F8003F800
000C0000E000
000000000000
000000000000
000000000000
000000000000
000000000000
000003C00000
0000FFFF0000
0007FFFFE000
001FFFFFF800
007FFFFFFE00
00FFFFFFFF00
01FFFFFFFF80
03FFFFFFFFC0
07FFFFFFFFE0
0FFFFFFFFFE0
0FFFFFFFFFF0
1FFFE00FFFF0
1FFF8003FFF8
3FFF0001FFF8
3FFE0000FFFC
7FFC00007FFC
7FFC00007FFC
7FF800003FFE
FFF800003FFE
FFF800003FFE
FFF800001FFE
FFF000001FFE
FFF000001FFE
FFF000001FFE
FFF000001FFE
FFF000001FFE
FFF000001FFE
FFF000001FFE
FFF000001FFE
FFF000001FFE
FFF000001FFE
FFF000001FFE
FFF800003FFE
FFF800003FFE
FFF800003FFC
FFFC00007FFC
7FFC00007FFC
7FFE0000FFF8
7FFF0001FFF8
3FFF8003FFF8
3FFFC007FFF0
1FFFF83FFFF0
1FFFFFFFFFE0
0FFFFFFFFFC0
07FFFFFFFF80
03FFFFFFFF00
01FFFFFFFE00
00FFFFFFFC00
007FFFFFF800
001FFFFFE000
0007FFFF8000
00007FF80000
ENDCHAR
STARTCHAR 00F7
ENCODING 247
SWIDTH 550 0
DWIDTH 55 0
BBX 47 53 4 0
BITMAP
000007C00000
00001FF00000
00003FF80000
00007FFC0000
0000FFFC0000
0000FFFE0000
0000FFFE0000
0000FFFE0000
0000FFFE0000
0000FFFE0000
0000FFFC0000
00007FFC0000
00003FF80000
00001FF00000
000007800000
000000000000
000000000000
000000000000
000000000000
000000000000
000000000000
FFFFFFFFFFFE
FFFFFFFFFFFE
FFFFFFFFFFFE
FFFFFFFFFFFE
FFFFFFFFFFFE
FFFFFFFFFFFE
FFFFFFFFFFFE
FFFFFFFFFFFE
FFFFFFFFFFFE
FFFFFFFFFFFE
000000000000
000000000000
000000000000
000000000000
000000000000
000000000000
000000000000
000007C00000
00001FF00000
00003FF80000
00007FFC0000
0000FFFC0000
0000FFFE0000
0000FFFE0000
0000FFFE0000
0000FFFE0000
0000FFFE0000
00007FFC0000
00007FFC0000
00003FF80000
00001FF00000
000003800000
ENDCHAR
STARTCHAR 00F8
ENCODING 248
SWIDTH 550 0
DWIDTH 55 0
BBX 48 70 4 -10
BITMAP
00000001FF00
00000003FF00
00000003FF00
00000003FE00
00000007FE00
00000007FE00
00000007FC00
0000000FFC00
0000000FFC00
00000FFFF800
0001FFFFF800
0007FFFFF800
001FFFFFF800
007FFFFFFC00
00FFFFFFFF00
01FFFFFFFF80
03FFFFFFFFC0
07FFFFFFFFE0
0FFFFFFFFFE0
0FFFF0FFFFF0
1FFFC0FFFFF0
1FFF01FFFFF8
3FFE01FFFFF8
3FFC01FF7FFC
7FFC03FF3FFC
7FF803FF3FFC
7FF803FE1FFE
FFF007FE1FFE
FFF007FE1FFE
FFF007FC1FFE
FFF00FFC1FFE
FFF00FFC0FFE
FFE00FF80FFE
FFE01FF80FFE
FFE01FF80FFF
FFE01FF00FFF
FFE03FF00FFE
FFE03FF00FFE
FFE03FE00FFE
FFE07FE01FFE
FFF07FC01FFE
FFF0FFC01FFE
FFF0FFC01FFE
FFF0FF803FFC
FFF9FF803FFC
7FF9FF807FFC
7FFDFF007FFC
7FFFFF00FFF8
3FFFFF01FFF8
3FFFFE03FFF0
1FFFFE0FFFF0
1FFFFFFFFFE0
0FFFFFFFFFC0
07FFFFFFFF80
03FFFFFFFF80
01FFFFFFFE00
00FFFFFFFC00
007FFFFFF800
001FFFFFE000
003FFFFF8000
003FFFF80000
003FE0000000
007FE0000000
007FE0000000
007FC0000000
00FFC0000000
00FF80000000
00FF80000000
01FF80000000
01FF00000000
ENDCHAR
STARTCHAR 00F9
ENCODING 249
SWIDTH 550 0
DWIDTH 55 0
BBX 43 70 5 -1
BITMAP
FFFF00000000
7FFF80000000
1FFFC0000000
0FFFE0000000
07FFF0000000
01FFF8000000
00FFFC000000
007FFE000000
001FFF000000
000FFF800000
0007FFC00000
0001FFE00000
0000FFF00000
000000000000
000000000000
000000000000
000000000000
000000000000
000000000000
3FFC0001FFE0
3FFC0001FFE0
3FFC0001FFE0
3FFC0001FFE0
3FFC0001FFE0
3FFC0001FFE0
3FFC0001FFE0
3FFC0001FFE0
3FFC0001FFE0
3FFC0001FFE0
3FFC0001FFE0
3FFC0001FFE0
3FFC0001FFE0
3FFC0001FFE0
3FFC0001FFE0
3FFC0001FFE0
3FFC0001FFE0
3FFC0001FFE0
3FFC0001FFE0
3FFC0001FFE0
3FFC0001FFE0
3FFC0001FFE0
3FFC0001FFE0
3FFC0001FFE0
3FFC0001FFE0
3FFC0001FFE0
3FFC0001FFE0
3FFC0001FFE0
3FFC0001FFE0
3FFC0001FFE0
3FFC0001FFE0
3FFC0001FFE0
3FFC0001FFE0
3FFC0003FFE0
3FFC0007FFE0
3FFC000FFFE0
3FFC001FFFE0
3FFC003FFFE0
3FFE007FFFE0
3FFF00FFFFE0
1FFF83FFFFE0
1FFFFFFFFFE0
1FFFFFFFFFE0
0FFFFFFF7FE0
0FFFFFFE7FE0
07FFFFFC7FE0
03FFFFF87FE0
01FFFFF07FE0
00FFFFC07FE0
007FFF807FE0
000FFC000000
ENDCHAR
STARTCHAR 00FA
ENCODING 250
SWIDTH 550 0
DWIDTH 55 0
BBX 43 70 7 -1
BITMAP
0000001FFFE0
0000003FFF80
0000007FFF00
000000FFFE00
000001FFF800
000003FFF000
000007FFE000
00000FFF8000
00001FFF0000
00003FFE0000
00007FF80000
0000FFF00000
0001FFE00000
000000000000
000000000000
000000000000
000000000000
000000000000
000000000000
FFF00007FF80
FFF00007FF80
FFF00007FF80
FFF00007FF80
FFF00007FF80
FFF00007FF80
FFF00007FF80
FFF00007FF80
FFF00007FF80
FFF00007FF80
FFF00007FF80
FFF00007FF80
FFF00007FF80
FFF00007FF80
FFF00007FF80
FFF00007FF80
FFF00007FF80
FFF00007FF80
FFF00007FF80
FFF00007FF80
FFF00007FF80
FFF00007FF80
FFF00007FF80
FFF00007FF80
FFF00007FF80
FFF00007FF80
FFF00007FF80
FFF00007FF80
FFF00007FF80
FFF00007FF80
FFF00007FF80
FFF00007FF80
FFF00007FF80
FFF0000FFF80
FFF0001FFF80
FFF0003FFF80
FFF0007FFF80
FFF000FFFF80
FFF801FFFF80
FFFC03FFFF80
7FFE0FFFFF80
7FFFFFFFFF80
7FFFFFFFFF80
3FFFFFFDFF80
3FFFFFF9FF80
1FFFFFF1FF80
0FFFFFE1FF80
07FFFFC1FF80
03FFFF01FF80
01FFFE01FF80
003FF0000000
ENDCHAR
STARTCHAR 00FB
ENCODING 251
SWIDTH 550 0
DWIDTH 55 0
BBX 41 70 7 -1
BITMAP
0000FFC00000
0001FFC00000
0003FFE00000
0007FFF00000
000FFFF80000
001FFFFC0000
003FFFFE0000
007FF7FF0000
00FFE3FF8000
01FFC1FFC000
03FF80FFE000
07FF007FF000
0FFE003FF800
000000000000
000000000000
000000000000
000000000000
000000000000
000000000000
FFF00007FF80
FFF00007FF80
FFF00007FF80
FFF00007FF80
FFF00007FF80
FFF00007FF80
FFF00007FF80
FFF00007FF80
FFF00007FF80
FFF00007FF80
FFF00007FF80
FFF00007FF80
FFF00007FF80
FFF00007FF80
FFF00007FF80
FFF00007FF80
FFF00007FF80
FFF00007FF80
FFF00007FF80
FFF00007FF80
FFF00007FF80
FFF00007FF80
FFF00007FF80
FFF00007FF80
FFF00007FF80
FFF00007FF80
FFF00007FF80
FFF00007FF80
FFF00007FF80
FFF00007FF80
FFF00007FF80
FFF00007FF80
FFF00007FF80
FFF0000FFF80
FFF0001FFF80
FFF0003FFF80
FFF0007FFF80
FFF000FFFF80
FFF801FFFF80
FFFC03FFFF80
7FFE0FFFFF80
7FFFFFFFFF80
7FFFFFFFFF80
3FFFFFFDFF80
3FFFFFF9FF80
1FFFFFF1FF80
0FFFFFE1FF80
07FFFFC1FF80
03FFFF01FF80
01FFFE01FF80
003FF0000000
ENDCHAR
STARTCHAR 00FC
ENCODING 252
SWIDTH 550 0
DWIDTH 55 0
BBX 41 71 7 -1
BITMAP
00F000078000
03FC001FE000
07FE003FF000
07FF007FF000
0FFF80FFF800
0FFF80FFF800
0FFF80FFF800
0FFF80FFF800
0FFF80FFF800
0FFF007FF800
07FF007FF000
07FE003FF000
01FC001FC000
006000070000
000000000000
000000000000
000000000000
000000000000
000000000000
000000000000
FFF00007FF80
FFF00007FF80
FFF00007FF80
FFF00007FF80
FFF00007FF80
FFF00007FF80
FFF00007FF80
FFF00007FF80
FFF00007FF80
FFF00007FF80
FFF00007FF80
FFF00007FF80
FFF00007FF80
FFF00007FF80
FFF00007FF80
FFF00007FF80
FFF00007FF80
FFF00007FF80
FFF00007FF80
FFF00007FF80
FFF00007FF80
FFF00007FF80
FFF00007FF80
FFF00007FF80
FFF00007FF80
FFF00007FF80
FFF00007FF80
FFF00007FF80
FFF00007FF80
FFF00007FF80
FFF00007FF80
FFF00007FF80
FFF00007FF80
FFF0000FFF80
FFF0001FFF80
FFF0003FFF80
FFF0007FFF80
FFF000FFFF80
FFF801FFFF80
FFFC03FFFF80
7FFE0FFFFF80
7FFFFFFFFF80
7FFFFFFFFF80
3FFFFFFDFF80
3FFFFFF9FF80
1FFFFFF1FF80
0FFFFFE1FF80
07FFFFC1FF80
03FFFF01FF80
01FFFE01FF80
003FF0000000
ENDCHAR
STARTCHAR 00FD
ENCODING 253
SWIDTH 550 0
DWIDTH 55 0
BBX 53 89 1 -21
BITMAP
000000007FFF80
00000000FFFE00
00000001FFFC00
00000003FFF800
00000007FFE000
0000000FFFC000
0000001FFF8000
0000003FFE0000
0000007FFC0000
000000FFF80000
000001FFE00000
000003FFC00000
000007FF800000
00000000000000
00000000000000
00000000000000
00000000000000
00000000000000
00000000000000
FFF8000000FFF8
7FFC000000FFF8
7FFC000001FFF0
7FFE000001FFF0
3FFE000001FFE0
3FFE000003FFE0
1FFF000003FFE0
1FFF000003FFC0
1FFF000007FFC0
0FFF800007FF80
0FFF800007FF80
07FF80000FFF80
07FFC0000FFF00
07FFC0001FFF00
03FFE0001FFE00
03FFE0001FFE00
01FFE0003FFE00
01FFF0003FFC00
01FFF0003FFC00
00FFF0007FF800
00FFF8007FF800
00FFF800FFF800
007FFC00FFF000
007FFC00FFF000
003FFC01FFF000
003FFE01FFE000
003FFE01FFE000
001FFE03FFC000
001FFF03FFC000
000FFF03FFC000
000FFF07FF8000
000FFF87FF8000
0007FF87FF0000
0007FF8FFF0000
0003FFCFFF0000
0003FFDFFE0000
0003FFDFFE0000
0001FFFFFC0000
0001FFFFFC0000
0000FFFFFC0000
0000FFFFF80000
0000FFFFF80000
00007FFFF00000
00007FFFF00000
00003FFFF00000
00003FFFE00000
00003FFFE00000
00001FFFC00000
00001FFFC00000
00000FFF800000
00000FFF800000
00001FFF800000
00001FFF000000
00003FFF000000
00007FFE000000
00007FFC000000
0000FFFC000000
0001FFF8000000
0003FFF8000000
000FFFF0000000
3FFFFFE0000000
3FFFFFC0000000
3FFFFFC0000000
3FFFFF80000000
3FFFFF00000000
3FFFFC00000000
3FFFF800000000
3FFFE000000000
3FFF8000000000
3FFE0000000000
ENDCHAR
STARTCHAR 00FE
ENCODING 254
SWIDTH 550 0
DWIDTH 55 0
BBX 44 88 7 -19
BITMAP
FFF000000000
FFF000000000
FFF000000000
FFF000000000
FFF000000000
FFF000000000
FFF000000000
FFF000000000
FFF000000000
FFF000000000
FFF000000000
FFF000000000
FFF000000000
FFF000000000
FFF000000000
FFF000000000
FFF000000000
FFF000000000
FFF001F00000
FFF01FFF8000
FFF07FFFE000
FFE0FFFFF000
FFE1FFFFF800
FFE7FFFFFC00
FFEFFFFFFE00
FFEFFFFFFF00
FFFFFFFFFF80
FFFFFFFFFF80
FFFFFFFFFFC0
FFFFF01FFFC0
FFFFC00FFFC0
FFFF8007FFE0
FFFF0003FFE0
FFFE0003FFE0
FFFC0001FFF0
FFF80001FFF0
FFF80001FFF0
FFF00001FFF0
FFF00000FFF0
FFF00000FFF0
FFF00000FFF0
FFF00000FFF0
FFF00000FFF0
FFF00000FFF0
FFF00000FFF0
FFF00000FFF0
FFF00000FFF0
FFF00000FFF0
FFF00000FFF0
FFF00001FFF0
FFF00001FFF0
FFF00001FFF0
FFF00003FFE0
FFF00003FFE0
FFF00007FFE0
FFF00007FFC0
FFF0000FFFC0
FFF0001FFF80
FFF0003FFF80
FFF000FFFF00
FFFFFFFFFF00
FFFFFFFFFE00
FFFFFFFFFC00
FFFFFFFFF800
FFFFFFFFF000
FFFFFFFFE000
FFFFFFFF8000
FFFFFFFE0000
FFFFFFF00000
FFF3FF000000
FFF000000000
FFF000000000
FFF000000000
FFF000000000
FFF000000000
FFF000000000
FFF000000000
FFF000000000
FFF000000000
FFF000000000
FFF000000000
FFF000000000
FFF000000000
FFF000000000
FFF000000000
FFF000000000
FFF000000000
FFF000000000
ENDCHAR
STARTCHAR 00FF
ENCODING 255
SWIDTH 550 0
DWIDTH 55 0
BBX 53 90 1 -21
BITMAP
0003C0001E0000
000FF0007F8000
001FF800FFC000
001FFC01FFC000
003FFE03FFE000
003FFE03FFE000
003FFE03FFE000
003FFE03FFE000
003FFE03FFE000
003FFC01FFE000
001FFC01FFC000
001FF800FFC000
0007F0007F0000
000180001C0000
00000000000000
00000000000000
00000000000000
00000000000000
00000000000000
00000000000000
FFF8000000FFF8
7FFC000000FFF8
7FFC000001FFF0
7FFE000001FFF0
3FFE000001FFE0
3FFE000003FFE0
1FFF000003FFE0
1FFF000003FFC0
1FFF000007FFC0
0FFF800007FF80
0FFF800007FF80
07FF80000FFF80
07FFC0000FFF00
07FFC0001FFF00
03FFE0001FFE00
03FFE0001FFE00
01FFE0003FFE00
01FFF0003FFC00
01FFF0003FFC00
00FFF0007FF800
00FFF8007FF800
00FFF800FFF800
007FFC00FFF000
007FFC00FFF000
003FFC01FFF000
003FFE01FFE000
003FFE01FFE000
001FFE03FFC000
001FFF03FFC000
000FFF03FFC000
000FFF07FF8000
000FFF87FF8000
0007FF87FF0000
0007FF8FFF0000
0003FFCFFF0000
0003FFDFFE0000
0003FFDFFE0000
0001FFFFFC0000
0001FFFFFC0000
0000FFFFFC0000
0000FFFFF80000
0000FFFFF80000
00007FFFF00000
00007FFFF00000
00003FFFF00000
00003FFFE00000
00003FFFE00000
00001FFFC00000
00001FFFC00000
00000FFF800000
00000FFF800000
00001FFF800000
00001FFF000000
00003FFF000000
00007FFE000000
00007FFC000000
0000FFFC000000
0001FFF8000000
0003FFF8000000
000FFFF0000000
3FFFFFE0000000
3FFFFFC0000000
3FFFFFC0000000
3FFFFF80000000
3FFFFF00000000
3FFFFC00000000
3FFFF800000000
3FFFE000000000
3FFF8000000000
3FFE0000000000
ENDCHAR
STARTCHAR 0100
ENCODING 256
SWIDTH 550 0
DWIDTH 55 0
BBX 55 80 0 0
BITMAP
0007FFFFFFC000
0007FFFFFFC000
0007FFFFFFC000
0007FFFFFFC000
0007FFFFFFC000
0007FFFFFFC000
0007FFFFFFC000
0007FFFFFFC000
0007FFFFFFC000
00000000000000
00000000000000
00000000000000
00000000000000
00000000000000
00000000000000
00000000000000
00001FFFF00000
00001FFFF00000
00003FFFF80000
00003FFFF80000
00003FFFF80000
00007FFFF80000
00007FFFFC0000
00007FFFFC0000
00007FFFFC0000
0000FFFFFE0000
0000FFFFFE0000
0000FFFFFE0000
0001FFFFFF0000
0001FFFFFF0000
0001FFCFFF0000
0001FFCFFF0000
0003FFCFFF8000
0003FF87FF8000
0003FF87FF8000
0007FF87FFC000
0007FF87FFC000
0007FF03FFC000
000FFF03FFC000
000FFF03FFE000
000FFE01FFE000
000FFE01FFE000
001FFE01FFF000
001FFE01FFF000
001FFC00FFF000
003FFC00FFF800
003FFC00FFF800
003FF800FFF800
003FF8007FF800
007FF8007FFC00
007FF8007FFC00
007FF0003FFC00
00FFF0003FFE00
00FFF0003FFE00
00FFE0003FFE00
01FFE0001FFF00
01FFE0001FFF00
01FFE0001FFF00
01FFFFFFFFFF00
03FFFFFFFFFF80
03FFFFFFFFFF80
03FFFFFFFFFF80
07FFFFFFFFFFC0
07FFFFFFFFFFC0
07FFFFFFFFFFC0
0FFFFFFFFFFFC0
0FFFFFFFFFFFE0
0FFF000003FFE0
0FFE000003FFE0
1FFE000001FFF0
1FFE000001FFF0
1FFE000001FFF0
3FFC000001FFF8
3FFC000000FFF8
3FFC000000FFF8
3FF8000000FFF8
7FF80000007FFC
7FF80000007FFC
7FF80000007FFC
FFF00000007FFE
ENDCHAR
STARTCHAR 0101
ENCODING 257
SWIDTH 550 0
DWIDTH 55 0
BBX 43 68 5 -1
BITMAP
007FFFFFF000
007FFFFFF000
007FFFFFF000
007FFFFFF000
007FFFFFF000
007FFFFFF000
007FFFFFF000
007FFFFFF000
000000000000
000000000000
000000000000
000000000000
000000000000
000000000000
000000000000
000000000000
00003FC00000
001FFFFF0000
01FFFFFFE000
0FFFFFFFF800
0FFFFFFFFC00
0FFFFFFFFE00
0FFFFFFFFF00
0FFFFFFFFF80
0FFFFFFFFF80
0FFFC0FFFFC0
0FF0001FFFC0
0F000007FFC0
0C000003FFE0
00000003FFE0
00000001FFE0
00000001FFE0
00000001FFE0
00000001FFE0
00000001FFE0
00000001FFE0
00000001FFE0
0001FFFFFFE0
000FFFFFFFE0
007FFFFFFFE0
01FFFFFFFFE0
03FFFFFFFFE0
07FFFFFFFFE0
0FFFFFFFFFE0
1FFFFFFFFFE0
3FFFF001FFE0
3FFF8001FFE0
7FFE0001FFE0
7FFC0001FFE0
7FFC0001FFE0
FFF80001FFE0
FFF80001FFE0
FFF80003FFE0
FFF80007FFE0
FFF8000FFFE0
FFF8001FFFE0
7FFC003FFFE0
7FFE00FFFFE0
7FFFE7FFFFE0
7FFFFFFFFFE0
3FFFFFFFFFE0
3FFFFFFF7FE0
1FFFFFFE7FE0
0FFFFFF87FE0
07FFFFF07FE0
03FFFFC07FE0
00FFFF007FE0
001FF8000000
ENDCHAR
STARTCHAR 0102
ENCODING 258
SWIDTH 550 0
DWIDTH 55 0
BBX 55 82 0 0
BITMAP
0007FC007FC000
0007FC007FC000
0007FC007FC000
0003FE00FF8000
0003FFEFFF8000
0003FFFFFF8000
0001FFFFFF0000
0000FFFFFE0000
0000FFFFFC0000
00003FFFF80000
00001FFFF00000
000007FFC00000
00000000000000
00000000000000
00000000000000
00000000000000
00000000000000
00000000000000
00001FFFF00000
00001FFFF00000
00003FFFF80000
00003FFFF80000
00003FFFF80000
00007FFFF80000
00007FFFFC0000
00007FFFFC0000
00007FFFFC0000
0000FFFFFE0000
0000FFFFFE0000
0000FFFFFE0000
0001FFFFFF0000
0001FFFFFF0000
0001FFCFFF0000
0001FFCFFF0000
0003FFCFFF8000
0003FF87FF8000
0003FF87FF8000
0007FF87FFC000
0007FF87FFC000
0007FF03FFC000
000FFF03FFC000
000FFF03FFE000
000FFE01FFE000
000FFE01FFE000
001FFE01FFF000
001FFE01FFF000
001FFC00FFF000
003FFC00FFF800
003FFC00FFF800
003FF800FFF800
003FF8007FF800
007FF8007FFC00
007FF8007FFC00
007FF0003FFC00
00FFF0003FFE00
00FFF0003FFE00
00FFE0003FFE00
01FFE0001FFF00
01FFE0001FFF00
01FFE0001FFF00
01FFFFFFFFFF00
03FFFFFFFFFF80
03FFFFFFFFFF80
03FFFFFFFFFF80
07FFFFFFFFFFC0
07FFFFFFFFFFC0
07FFFFFFFFFFC0
0FFFFFFFFFFFC0
0FFFFFFFFFFFE0
0FFF000003FFE0
0FFE000003FFE0
1FFE000001FFF0
1FFE000001FFF0
1FFE000001FFF0
3FFC000001FFF8
3FFC000000FFF8
3FFC000000FFF8
3FF8000000FFF8
7FF80000007FFC
7FF80000007FFC
7FF80000007FFC
FFF00000007FFE
ENDCHAR
STARTCHAR 0103
ENCODING 259
SWIDTH 550 0
DWIDTH 55 0
BBX 43 70 5 -1
BITMAP
00FF800FF800
00FF800FF000
007FC01FF000
007FC01FF000
007FF07FF000
007FFFFFE000
003FFFFFE000
003FFFFFC000
001FFFFFC000
000FFFFF8000
0007FFFF0000
0001FFFC0000
00007FF00000
000000000000
000000000000
000000000000
000000000000
000000000000
00003FC00000
001FFFFF0000
01FFFFFFE000
0FFFFFFFF800
0FFFFFFFFC00
0FFFFFFFFE00
0FFFFFFFFF00
0FFFFFFFFF80
0FFFFFFFFF80
0FFFC0FFFFC0
0FF0001FFFC0
0F000007FFC0
0C000003FFE0
00000003FFE0
00000001FFE0
00000001FFE0
00000001FFE0
00000001FFE0
00000001FFE0
00000001FFE0
00000001FFE0
0001FFFFFFE0
000FFFFFFFE0
007FFFFFFFE0
01FFFFFFFFE0
03FFFFFFFFE0
07FFFFFFFFE0
0FFFFFFFFFE0
1FFFFFFFFFE0
3FFFF001FFE0
3FFF8001FFE0
7FFE0001FFE0
7FFC0001FFE0
7FFC0001FFE0
FFF80001FFE0
FFF80001FFE0
FFF80003FFE0
FFF80007FFE0
FFF8000FFFE0
FFF8001FFFE0
7FFC003FFFE0
7FFE00FFFFE0
7FFFE7FFFFE0
7FFFFFFFFFE0
3FFFFFFFFFE0
3FFFFFFF7FE0
1FFFFFFE7FE0
0FFFFFF87FE0
07FFFFF07FE0
03FFFFC07FE0
00FFFF007FE0
001FF8000000
ENDCHAR
STARTCHAR 0104
ENCODING 260
SWIDTH 550 0
DWIDTH 55 0
BBX 55 84 0 -20
BITMAP
00001FFFF00000
00001FFFF00000
00003FFFF80000
00003FFFF80000
00003FFFF80000
00007FFFF80000
00007FFFFC0000
00007FFFFC0000
00007FFFFC0000
0000FFFFFE0000
0000FFFFFE0000
0000FFFFFE0000
0001FFFFFF0000
0001FFFFFF0000
0001FFCFFF0000
0001FFCFFF0000
0003FFCFFF8000
0003FF87FF8000
0003FF87FF8000
0007FF87FFC000
0007FF87FFC000
0007FF03FFC000
000FFF03FFC000
000FFF03FFE000
000FFE01FFE000
000FFE01FFE000
001FFE01FFF000
001FFE01FFF000
001FFC00FFF000
003FFC00FFF800
003FFC00FFF800
003FF800FFF800
003FF8007FF800
007FF8007FFC00
007FF8007FFC00
007FF0003FFC00
00FFF0003FFE00
00FFF0003FFE00
00FFE0003FFE00
01FFE0001FFF00
01FFE0001FFF00
01FFE0001FFF00
01FFFFFFFFFF00
03FFFFFFFFFF80
03FFFFFFFFFF80
03FFFFFFFFFF80
07FFFFFFFFFFC0
07FFFFFFFFFFC0
07FFFFFFFFFFC0
0FFFFFFFFFFFC0
0FFFFFFFFFFFE0
0FFF000003FFE0
0FFE000003FFE0
1FFE000001FFF0
1FFE000001FFF0
1FFE000001FFF0
3FFC000001FFF8
3FFC000000FFF8
3FFC000000FFF8
3FF8000000FFF8
7FF80000007FFC
7FF80000007FFC
7FF80000007FFC
FFF00000007FFE
00000000007FE0
0000000000FFC0
0000000001FF80
0000000003FF80
0000000007FF00
0000000007FE00
000000000FFE00
000000000FFC00
000000000FFC00
000000000FFC00
000000001FFE00
000000001FFE00
000000000FFFFC
000000000FFFFC
000000000FFFFC
0000000007FFFC
0000000007FFFC
0000000003FFFC
0000000000FFFC
00000000001FC0
ENDCHAR
STARTCHAR 0105
ENCODING 261
SWIDTH 550 0
DWIDTH 55 0
BBX 45 71 5 -20
BITMAP
00003FC00000
001FFFFF0000
01FFFFFFE000
0FFFFFFFF800
0FFFFFFFFC00
0FFFFFFFFE00
0FFFFFFFFF00
0FFFFFFFFF80
0FFFFFFFFF80
0FFFC0FFFFC0
0FF0001FFFC0
0F000007FFC0
0C000003FFE0
00000003FFE0
00000001FFE0
00000001FFE0
00000001FFE0
00000001FFE0
00000001FFE0
00000001FFE0
00000001FFE0
0001FFFFFFE0
000FFFFFFFE0
007FFFFFFFE0
01FFFFFFFFE0
03FFFFFFFFE0
07FFFFFFFFE0
0FFFFFFFFFE0
1FFFFFFFFFE0
3FFFF001FFE0
3FFF8001FFE0
7FFE0001FFE0
7FFC0001FFE0
7FFC0001FFE0
FFF80001FFE0
FFF80001FFE0
FFF80003FFE0
FFF80007FFE0
FFF8000FFFE0
FFF8001FFFE0
7FFC003FFFE0
7FFE00FFFFE0
7FFFE7FFFFE0
7FFFFFFFFFE0
3FFFFFFFFFE0
3FFFFFFF7FE0
1FFFFFFE7FE0
0FFFFFF87FE0
07FFFFF07FE0
03FFFFC07FE0
00FFFF007FE0
001FF800FFE0
00000001FFC0
00000003FF80
00000007FF00
00000007FE00
0000000FFE00
0000000FFC00
0000001FFC00
0000001FFC00
0000001FFC00
0000001FFC00
0000001FFE00
0000001FFFF8
0000001FFFF8
0000001FFFF8
0000000FFFF8
0000000FFFF8
00000003FFF8
00000001FFF8
000000003FC0
ENDCHAR
STARTCHAR 0106
ENCODING 262
SWIDTH 550 0
DWIDTH 55 0
BBX 46 83 4 -1
BITMAP
00000003FFFC
00000007FFF8
0000000FFFF0
0000001FFFC0
0000003FFF80
0000007FFF00
000000FFFC00
000001FFF800
000003FFE000
000007FFC000
00000FFF8000
000000000000
000000000000
000000000000
000000000000
000000000000
000000000000
0000003FE000
00000FFFFF80
00007FFFFFF8
0001FFFFFFF8
0007FFFFFFF8
000FFFFFFFF8
001FFFFFFFF8
003FFFFFFFF8
007FFFFFFFF8
00FFFFFFFFF8
01FFFFFFFFF8
03FFFF800FF8
07FFFE0000F8
07FFF8000018
0FFFF0000000
0FFFE0000000
1FFFC0000000
1FFF80000000
3FFF00000000
3FFF00000000
3FFE00000000
7FFE00000000
7FFE00000000
7FFC00000000
7FFC00000000
7FFC00000000
FFFC00000000
FFFC00000000
FFF800000000
FFF800000000
FFF800000000
FFF800000000
FFF800000000
FFF800000000
FFF800000000
FFF800000000
FFF800000000
FFF800000000
FFF800000000
FFFC00000000
FFFC00000000
FFFC00000000
7FFC00000000
7FFC00000000
7FFE00000000
7FFE00000000
7FFF00000000
3FFF00000000
3FFF80000000
3FFF80000000
1FFFC0000000
1FFFE0000000
0FFFF8000038
0FFFFC0001F8
07FFFF801FF8
03FFFFFFFFF8
03FFFFFFFFF8
01FFFFFFFFF8
00FFFFFFFFF8
007FFFFFFFF8
003FFFFFFFF8
000FFFFFFFF8
0007FFFFFFF8
0001FFFFFFC0
00003FFFFE00
000001FFC000
ENDCHAR
STARTCHAR 0107
ENCODING 263
SWIDTH 550 0
DWIDTH 55 0
BBX 46 70 6 -1
BITMAP
00000003FFFC
00000007FFF0
0000000FFFE0
0000001FFFC0
0000003FFF00
0000007FFE00
000000FFFC00
000001FFF000
000003FFE000
000007FFC000
00000FFF0000
00001FFE0000
00003FFC0000
000000000000
000000000000
000000000000
000000000000
000000000000
000000000000
00001FFFF800
0000FFFFFF80
0003FFFFFF80
000FFFFFFF80
003FFFFFFF80
007FFFFFFF80
00FFFFFFFF80
01FFFFFFFF80
03FFFFFFFF80
07FFFFFFFF80
07FFFE007F80
0FFFF0000780
1FFFE0000080
1FFFC0000000
1FFF80000000
3FFF00000000
3FFE00000000
3FFE00000000
7FFC00000000
7FFC00000000
7FFC00000000
7FFC00000000
7FF800000000
7FF800000000
FFF800000000
FFF800000000
FFF800000000
7FF800000000
7FFC00000000
7FFC00000000
7FFC00000000
7FFC00000000
7FFE00000000
7FFE00000000
3FFF00000000
3FFF00000000
3FFF80000000
1FFFC0000000
1FFFF0000380
1FFFFC001F80
0FFFFFFFFF80
07FFFFFFFF80
07FFFFFFFF80
03FFFFFFFF80
01FFFFFFFF80
00FFFFFFFF80
003FFFFFFF80
001FFFFFFF80
0007FFFFFF00
0000FFFFF800
00000FFF0000
ENDCHAR
STARTCHAR 0108
ENCODING 264
SWIDTH 550 0
DWIDTH 55 0
BBX 45 83 4 -1
BITMAP
000007FF0000
00000FFF8000
00001FFFC000
00003FFFE000
00007FFFF000
0000FFFFF800
0001FFFFFC00
0003FFDFFE00
0007FF07FF00
000FFE03FF80
001FFC01FFC0
000000000020
000000000000
000000000000
000000000000
000000000000
000000000000
0000003FE000
00000FFFFF80
00007FFFFFF8
0001FFFFFFF8
0007FFFFFFF8
000FFFFFFFF8
001FFFFFFFF8
003FFFFFFFF8
007FFFFFFFF8
00FFFFFFFFF8
01FFFFFFFFF8
03FFFF800FF8
07FFFE0000F8
07FFF8000018
0FFFF0000000
0FFFE0000000
1FFFC0000000
1FFF80000000
3FFF00000000
3FFF00000000
3FFE00000000
7FFE00000000
7FFE00000000
7FFC00000000
7FFC00000000
7FFC00000000
FFFC00000000
FFFC00000000
FFF800000000
FFF800000000
FFF800000000
FFF800000000
FFF800000000
FFF800000000
FFF800000000
FFF800000000
FFF800000000
FFF800000000
FFF800000000
FFFC00000000
FFFC00000000
FFFC00000000
7FFC00000000
7FFC00000000
7FFE00000000
7FFE00000000
7FFF00000000
3FFF00000000
3FFF80000000
3FFF80000000
1FFFC0000000
1FFFE0000000
0FFFF8000038
0FFFFC0001F8
07FFFF801FF8
03FFFFFFFFF8
03FFFFFFFFF8
01FFFFFFFFF8
00FFFFFFFFF8
007FFFFFFFF8
003FFFFFFFF8
000FFFFFFFF8
0007FFFFFFF8
0001FFFFFFC0
00003FFFFE00
000001FFC000
ENDCHAR
STARTCHAR 0109
ENCODING 265
SWIDTH 550 0
DWIDTH 55 0
BBX 41 70 6 -1
BITMAP
00001FF80000
00003FF80000
00007FFC0000
0000FFFE0000
0001FFFF0000
0003FFFF8000
0007FFFFC000
000FFEFFE000
001FFC7FF000
003FF83FF800
007FF01FFC00
00FFE00FFE00
01FFC007FF00
000000000000
000000000000
000000000000
000000000000
000000000000
000000000000
00001FFFF800
0000FFFFFF80
0003FFFFFF80
000FFFFFFF80
003FFFFFFF80
007FFFFFFF80
00FFFFFFFF80
01FFFFFFFF80
03FFFFFFFF80
07FFFFFFFF80
07FFFE007F80
0FFFF0000780
1FFFE0000080
1FFFC0000000
1FFF80000000
3FFF00000000
3FFE00000000
3FFE00000000
7FFC00000000
7FFC00000000
7FFC00000000
7FFC00000000
7FF800000000
7FF800000000
FFF800000000
FFF800000000
FFF800000000
7FF800000000
7FFC00000000
7FFC00000000
7FFC00000000
7FFC00000000
7FFE00000000
7FFE00000000
3FFF00000000
3FFF00000000
3FFF80000000
1FFFC0000000
1FFFF0000380
1FFFFC001F80
0FFFFFFFFF80
07FFFFFFFF80
07FFFFFFFF80
03FFFFFFFF80
01FFFFFFFF80
00FFFFFFFF80
003FFFFFFF80
001FFFFFFF80
0007FFFFFF00
0000FFFFF800
00000FFF0000
ENDCHAR
STARTCHAR 010A
ENCODING 266
SWIDTH 550 0
DWIDTH 55 0
BBX 45 84 4 -1
BITMAP
000001F80000
000003FE0000
000007FF0000
00000FFF8000
00000FFF8000
00001FFFC000
00001FFFC000
00001FFFC000
00001FFFC000
00001FFFC000
00000FFF8000
00000FFF8000
000007FF0000
000001FC0000
000000000000
000000000000
000000000000
000000000000
0000003FE000
00000FFFFF80
00007FFFFFF8
0001FFFFFFF8
0007FFFFFFF8
000FFFFFFFF8
001FFFFFFFF8
003FFFFFFFF8
007FFFFFFFF8
00FFFFFFFFF8
01FFFFFFFFF8
03FFFF800FF8
07FFFE0000F8
07FFF8000018
0FFFF0000000
0FFFE0000000
1FFFC0000000
1FFF80000000
3FFF00000000
3FFF00000000
3FFE00000000
7FFE00000000
7FFE00000000
7FFC00000000
7FFC00000000
7FFC00000000
FFFC00000000
FFFC00000000
FFF800000000
FFF800000000
FFF800000000
FFF800000000
FFF800000000
FFF800000000
FFF800000000
FFF800000000
FFF800000000
FFF800000000
FFF800000000
FFFC00000000
FFFC00000000
FFFC00000000
7FFC00000000
7FFC00000000
7FFE00000000
7FFE00000000
7FFF00000000
3FFF00000000
3FFF80000000
3FFF80000000
1FFFC0000000
1FFFE0000000
0FFFF8000038
0FFFFC0001F8
07FFFF801FF8
03FFFFFFFFF8
03FFFFFFFFF8
01FFFFFFFFF8
00FFFFFFFFF8
007FFFFFFFF8
003FFFFFFFF8
000FFFFFFFF8
0007FFFFFFF8
0001FFFFFFC0
00003FFFFE00
000001FFC000
ENDCHAR
STARTCHAR 010B
ENCODING 267
SWIDTH 550 0
DWIDTH 55 0
BBX 41 72 6 -1
BITMAP
000003800000
00001FF00000
00003FF80000
00007FFC0000
00007FFC0000
0000FFFE0000
0000FFFE0000
0000FFFE0000
0000FFFE0000
0000FFFE0000
0000FFFE0000
00007FFC0000
00003FFC0000
00001FF80000
00000FE00000
000000000000
000000000000
000000000000
000000000000
000000000000
000000000000
00001FFFF800
0000FFFFFF80
0003FFFFFF80
000FFFFFFF80
003FFFFFFF80
007FFFFFFF80
00FFFFFFFF80
01FFFFFFFF80
03FFFFFFFF80
07FFFFFFFF80
07FFFE007F80
0FFFF0000780
1FFFE0000080
1FFFC0000000
1FFF80000000
3FFF00000000
3FFE00000000
3FFE00000000
7FFC00000000
7FFC00000000
7FFC00000000
7FFC00000000
7FF800000000
7FF800000000
FFF800000000
FFF800000000
FFF800000000
7FF800000000
7FFC00000000
7FFC00000000
7FFC00000000
7FFC00000000
7FFE00000000
7FFE00000000
3FFF00000000
3FFF00000000
3FFF80000000
1FFFC0000000
1FFFF0000380
1FFFFC001F80
0FFFFFFFFF80
07FFFFFFFF80
07FFFFFFFF80
03FFFFFFFF80
01FFFFFFFF80
00FFFFFFFF80
003FFFFFFF80
001FFFFFFF80
0007FFFFFF00
0000FFFFF800
00000FFF0000
ENDCHAR
STARTCHAR 010C
ENCODING 268
SWIDTH 550 0
DWIDTH 55 0
BBX 45 83 4 -1
BITMAP
003FF800FFE0
001FFC01FFC0
000FFE03FF80
0007FF87FF00
0003FFDFFE00
0001FFFFFC00
0000FFFFF800
00007FFFF000
00003FFFE000
00000FFFC000
000007FF0000
000000000000
000000000000
000000000000
000000000000
000000000000
000000000000
0000003FE000
00000FFFFF80
00007FFFFFF8
0001FFFFFFF8
0007FFFFFFF8
000FFFFFFFF8
001FFFFFFFF8
003FFFFFFFF8
007FFFFFFFF8
00FFFFFFFFF8
01FFFFFFFFF8
03FFFF800FF8
07FFFE0000F8
07FFF8000018
0FFFF0000000
0FFFE0000000
1FFFC0000000
1FFF80000000
3FFF00000000
3FFF00000000
3FFE00000000
7FFE00000000
7FFE00000000
7FFC00000000
7FFC00000000
7FFC00000000
FFFC00000000
FFFC00000000
FFF800000000
FFF800000000
FFF800000000
FFF800000000
FFF800000000
FFF800000000
FFF800000000
FFF800000000
FFF800000000
FFF800000000
FFF800000000
FFFC00000000
FFFC00000000
FFFC00000000
7FFC00000000
7FFC00000000
7FFE00000000
7FFE00000000
7FFF00000000
3FFF00000000
3FFF80000000
3FFF80000000
1FFFC0000000
1FFFE0000000
0FFFF8000038
0FFFFC0001F8
07FFFF801FF8
03FFFFFFFFF8
03FFFFFFFFF8
01FFFFFFFFF8
00FFFFFFFFF8
007FFFFFFFF8
003FFFFFFFF8
000FFFFFFFF8
0007FFFFFFF8
0001FFFFFFC0
00003FFFFE00
000001FFC000
ENDCHAR
STARTCHAR 010D
ENCODING 269
SWIDTH 550 0
DWIDTH 55 0
BBX 41 70 6 -1
BITMAP
01FFC007FF00
00FFE00FFE00
007FF01FFC00
003FF83FF800
001FFC7FF000
000FFEFFE000
0007FFFFC000
0003FFFF8000
0001FFFF0000
0000FFFE0000
00007FFC0000
00003FF80000
00001FF00000
000000000000
000000000000
000000000000
000000000000
000000000000
000000000000
00001FFFF800
0000FFFFFF80
0003FFFFFF80
000FFFFFFF80
003FFFFFFF80
007FFFFFFF80
00FFFFFFFF80
01FFFFFFFF80
03FFFFFFFF80
07FFFFFFFF80
07FFFE007F80
0FFFF0000780
1FFFE0000080
1FFFC0000000
1FFF80000000
3FFF00000000
3FFE00000000
3FFE00000000
7FFC00000000
7FFC00000000
7FFC00000000
7FFC00000000
7FF800000000
7FF800000000
FFF800000000
FFF800000000
FFF800000000
7FF800000000
7FFC00000000
7FFC00000000
7FFC00000000
7FFC00000000
7FFE00000000
7FFE00000000
3FFF00000000
3FFF00000000
3FFF80000000
1FFFC0000000
1FFFF0000380
1FFFFC001F80
0FFFFFFFFF80
07FFFFFFFF80
07FFFFFFFF80
03FFFFFFFF80
01FFFFFFFF80
00FFFFFFFF80
003FFFFFFF80
001FFFFFFF80
0007FFFFFF00
0000FFFFF800
00000FFF0000
ENDCHAR
STARTCHAR 010E
ENCODING 270
SWIDTH 550 0
DWIDTH 55 0
BBX 48 82 4 0
BITMAP
07FF001FFC00
03FF803FF800
01FFC07FF000
00FFF0FFE000
007FFBFFC000
003FFFFF8000
001FFFFF0000
000FFFFE0000
0007FFFC0000
0001FFF80000
0000FFE00000
000000000000
000000000000
000000000000
000000000000
000000000000
000000000000
000000000000
FFFFFF000000
FFFFFFFC0000
FFFFFFFF8000
FFFFFFFFE000
FFFFFFFFF800
FFFFFFFFFE00
FFFFFFFFFF00
FFFFFFFFFF80
FFFFFFFFFFC0
FFFFFFFFFFE0
FFF003FFFFE0
FFF0003FFFF0
FFF0000FFFF8
FFF00003FFF8
FFF00001FFFC
FFF00001FFFC
FFF00000FFFC
FFF000007FFE
FFF000007FFE
FFF000003FFE
FFF000003FFE
FFF000003FFF
FFF000001FFF
FFF000001FFF
FFF000001FFF
FFF000001FFF
FFF000001FFF
FFF000001FFF
FFF000001FFF
FFF000001FFF
FFF000001FFF
FFF000001FFF
FFF000001FFF
FFF000001FFF
FFF000001FFF
FFF000001FFF
FFF000001FFF
FFF000001FFF
FFF000001FFF
FFF000001FFF
FFF000001FFF
FFF000003FFE
FFF000003FFE
FFF000003FFE
FFF000007FFE
FFF000007FFC
FFF00000FFFC
FFF00000FFFC
FFF00001FFF8
FFF00003FFF8
FFF00007FFF0
FFF0000FFFF0
FFF0003FFFE0
FFF003FFFFC0
FFFFFFFFFF80
FFFFFFFFFF00
FFFFFFFFFE00
FFFFFFFFFC00
FFFFFFFFF800
FFFFFFFFE000
FFFFFFFFC000
FFFFFFFE0000
FFFFFFF00000
FFFFFF000000
ENDCHAR
STARTCHAR 010F
ENCODING 271
SWIDTH 550 0
DWIDTH 55 0
BBX 61 74 2 -1
BITMAP
0000000000007FF8
0000000000007FF0
0000000000007FF0
0000000000007FF0
00000000FFF0FFE0
00000000FFF0FFE0
00000000FFF0FFE0
00000000FFF0FFC0
00000000FFF1FFC0
00000000FFF1FF80
00000000FFF1FF80
00000000FFF1FF80
00000000FFF3FF00
00000000FFF3FF00
00000000FFF3FF00
00000000FFF3FE00
00000000FFF3FE00
00000000FFF00000
00000000FFF00000
00000000FFF00000
00000000FFF00000
00000000FFF00000
00000000FFF00000
00007FFFFFF00000
0003FFFFFFF00000
000FFFFFFFF00000
003FFFFFFFF00000
007FFFFFFFF00000
01FFFFFFFFF00000
03FFFFFFFFF00000
03FFFFFFFFF00000
07FFFFFFFFF00000
0FFFF803FFF00000
1FFFE000FFF00000
1FFF8000FFF00000
3FFF0000FFF00000
3FFF0000FFF00000
3FFE0000FFF00000
7FFC0000FFF00000
7FFC0000FFF00000
7FF80000FFF00000
FFF80000FFF00000
FFF80000FFF00000
FFF80000FFF00000
FFF80000FFF00000
FFF00000FFF00000
FFF00000FFF00000
FFF00000FFF00000
FFF00000FFF00000
FFF00000FFF00000
FFF00000FFF00000
FFF00000FFF00000
FFF00000FFF00000
FFF00000FFF00000
FFF80000FFF00000
FFF80000FFF00000
FFF80001FFF00000
FFF80003FFF00000
7FFC0007FFF00000
7FFC0007FFF00000
7FFE000FFFF00000
3FFE001FFFF00000
3FFF007FFFF00000
3FFFC1FFFFF00000
1FFFFFFFFFF00000
1FFFFFFFFFF00000
0FFFFFFFBFF00000
07FFFFFF3FF00000
07FFFFFE3FF00000
03FFFFFC3FF00000
01FFFFF83FF00000
007FFFE03FF00000
003FFFC03FF00000
0007FE0000000000
ENDCHAR
STARTCHAR 0110
ENCODING 272
SWIDTH 550 0
DWIDTH 55 0
BBX 52 64 0 0
BITMAP
07FFFFF0000000
07FFFFFFC00000
07FFFFFFF80000
07FFFFFFFE0000
07FFFFFFFF8000
07FFFFFFFFE000
07FFFFFFFFF000
07FFFFFFFFF800
07FFFFFFFFFC00
07FFFFFFFFFE00
07FF803FFFFE00
07FF8003FFFF00
07FF8000FFFF80
07FF80003FFF80
07FF80001FFFC0
07FF80001FFFC0
07FF80000FFFC0
07FF800007FFE0
07FF800007FFE0
07FF800003FFE0
07FF800003FFE0
07FF800003FFF0
07FF800001FFF0
07FF800001FFF0
07FF800001FFF0
07FF800001FFF0
FFFFFFF801FFF0
FFFFFFF801FFF0
FFFFFFF801FFF0
FFFFFFF801FFF0
FFFFFFF801FFF0
FFFFFFF801FFF0
FFFFFFF801FFF0
FFFFFFF801FFF0
FFFFFFF801FFF0
FFFFFFF801FFF0
07FF800001FFF0
07FF800001FFF0
07FF800001FFF0
07FF800001FFF0
07FF800001FFF0
07FF800003FFE0
07FF800003FFE0
07FF800003FFE0
07FF800007FFE0
07FF800007FFC0
07FF80000FFFC0
07FF80000FFFC0
07FF80001FFF80
07FF80003FFF80
07FF80007FFF00
07FF8000FFFF00
07FF8003FFFE00
07FF803FFFFC00
07FFFFFFFFF800
07FFFFFFFFF000
07FFFFFFFFE000
07FFFFFFFFC000
07FFFFFFFF8000
07FFFFFFFE0000
07FFFFFFFC0000
07FFFFFFE00000
07FFFFFF000000
07FFFFF0000000
ENDCHAR
STARTCHAR 0111
ENCODING 273
SWIDTH 550 0
DWIDTH 55 0
BBX 50 70 4 -1
BITMAP
00000000FFF000
00000000FFF000
00000000FFF000
00000000FFF000
00000000FFF000
00001FFFFFFFC0
00001FFFFFFFC0
00001FFFFFFFC0
00001FFFFFFFC0
00001FFFFFFFC0
00001FFFFFFFC0
00001FFFFFFFC0
00001FFFFFFFC0
00001FFFFFFFC0
00000000FFF000
00000000FFF000
00000000FFF000
00000000FFF000
00000000FFF000
00007FFFFFF000
0003FFFFFFF000
000FFFFFFFF000
003FFFFFFFF000
007FFFFFFFF000
01FFFFFFFFF000
03FFFFFFFFF000
07FFFFFFFFF000
07FFFFFFFFF000
0FFFF803FFF000
1FFFE000FFF000
1FFF8000FFF000
3FFF0000FFF000
3FFE0000FFF000
3FFE0000FFF000
7FFC0000FFF000
7FFC0000FFF000
7FF80000FFF000
FFF80000FFF000
FFF80000FFF000
FFF80000FFF000
FFF00000FFF000
FFF00000FFF000
FFF00000FFF000
FFF00000FFF000
FFF00000FFF000
FFF00000FFF000
FFF00000FFF000
FFF00000FFF000
FFF00000FFF000
FFF00000FFF000
FFF80000FFF000
FFF80001FFF000
FFF80001FFF000
FFF80003FFF000
7FF80007FFF000
7FFC000FFFF000
7FFC001FFFF000
7FFE003FFFF000
3FFF007FFFF000
3FFFC1FFFFF000
1FFFFFFFFFF000
1FFFFFFFFFF000
0FFFFFFFFFF000
0FFFFFFF7FF000
07FFFFFE7FF000
03FFFFFC7FF000
01FFFFF83FF000
007FFFE03FF000
003FFF803FF000
0007FE00000000
ENDCHAR
STARTCHAR 0112
ENCODING 274
SWIDTH 550 0
DWIDTH 55 0
BBX 38 80 9 0
BITMAP
0FFFFFFF80
0FFFFFFF80
0FFFFFFF80
0FFFFFFF80
0FFFFFFF80
0FFFFFFF80
0FFFFFFF80
0FFFFFFF80
0FFFFFFF80
0000000000
0000000000
0000000000
0000000000
0000000000
0000000000
0000000000
FFFFFFFFFC
FFFFFFFFFC
FFFFFFFFFC
FFFFFFFFFC
FFFFFFFFFC
FFFFFFFFFC
FFFFFFFFFC
FFFFFFFFFC
FFFFFFFFFC
FFFFFFFFFC
FFF0000000
FFF0000000
FFF0000000
FFF0000000
FFF0000000
FFF0000000
FFF0000000
FFF0000000
FFF0000000
FFF0000000
FFF0000000
FFF0000000
FFF0000000
FFF0000000
FFF0000000
FFF0000000
FFFFFFFFF8
FFFFFFFFF8
FFFFFFFFF8
FFFFFFFFF8
FFFFFFFFF8
FFFFFFFFF8
FFFFFFFFF8
FFFFFFFFF8
FFFFFFFFF8
FFFFFFFFF8
FFF0000000
FFF0000000
FFF0000000
FFF0000000
FFF0000000
FFF0000000
FFF0000000
FFF0000000
FFF0000000
FFF0000000
FFF0000000
FFF0000000
FFF0000000
FFF0000000
FFF0000000
FFF0000000
FFF0000000
FFF0000000
FFFFFFFFFC
FFFFFFFFFC
FFFFFFFFFC
FFFFFFFFFC
FFFFFFFFFC
FFFFFFFFFC
FFFFFFFFFC
FFFFFFFFFC
FFFFFFFFFC
FFFFFFFFFC
ENDCHAR
STARTCHAR 0113
ENCODING 275
SWIDTH 550 0
DWIDTH 55 0
BBX 45 68 5 -1
BITMAP
007FFFFFF000
007FFFFFF000
007FFFFFF000
007FFFFFF000
007FFFFFF000
007FFFFFF000
007FFFFFF000
007FFFFFF000
000000000000
000000000000
000000000000
000000000000
000000000000
000000000000
000000000000
000000000000
000007C00000
0000FFFE0000
0007FFFFC000
001FFFFFF000
003FFFFFF800
007FFFFFFC00
01FFFFFFFE00
01FFFFFFFF00
03FFFFFFFF80
07FFF03FFFC0
0FFFC00FFFC0
0FFF0007FFE0
1FFE0003FFE0
1FFE0001FFF0
3FFC0000FFF0
3FFC0000FFF0
3FF80000FFF0
7FF800007FF8
7FF800007FF8
7FF000007FF8
7FF000007FF8
FFFFFFFFFFF8
FFFFFFFFFFF8
FFFFFFFFFFF8
FFFFFFFFFFF8
FFFFFFFFFFF8
FFFFFFFFFFF8
FFFFFFFFFFF8
FFFFFFFFFFF8
FFF000000000
FFF000000000
FFF000000000
FFF000000000
FFF800000000
7FF800000000
7FF800000000
7FFC00000000
7FFC00000000
3FFE00000000
3FFF00000000
1FFFC0000040
1FFFF00007C0
0FFFFF87FFC0
0FFFFFFFFFC0
07FFFFFFFFC0
03FFFFFFFFC0
01FFFFFFFFC0
00FFFFFFFFC0
003FFFFFFFC0
000FFFFFFFC0
0003FFFFFE00
00003FFF8000
ENDCHAR
STARTCHAR 0114
ENCODING 276
SWIDTH 550 0
DWIDTH 55 0
BBX 38 82 9 0
BITMAP
0FF800FF80
0FF800FF80
0FF800FF80
07FC01FF00
07FFDFFF00
07FFFFFF00
03FFFFFE00
01FFFFFC00
01FFFFF800
007FFFF000
003FFFE000
000FFF8000
0000000000
0000000000
0000000000
0000000000
0000000000
0000000000
FFFFFFFFFC
FFFFFFFFFC
FFFFFFFFFC
FFFFFFFFFC
FFFFFFFFFC
FFFFFFFFFC
FFFFFFFFFC
FFFFFFFFFC
FFFFFFFFFC
FFFFFFFFFC
FFF0000000
FFF0000000
FFF0000000
FFF0000000
FFF0000000
FFF0000000
FFF0000000
FFF0000000
FFF0000000
FFF0000000
FFF0000000
FFF0000000
FFF0000000
FFF0000000
FFF0000000
FFF0000000
FFFFFFFFF8
FFFFFFFFF8
FFFFFFFFF8
FFFFFFFFF8
FFFFFFFFF8
FFFFFFFFF8
FFFFFFFFF8
FFFFFFFFF8
FFFFFFFFF8
FFFFFFFFF8
FFF0000000
FFF0000000
FFF0000000
FFF0000000
FFF0000000
FFF0000000
FFF0000000
FFF0000000
FFF0000000
FFF0000000
FFF0000000
FFF0000000
FFF0000000
FFF0000000
FFF0000000
FFF0000000
FFF0000000
FFF0000000
FFFFFFFFFC
FFFFFFFFFC
FFFFFFFFFC
FFFFFFFFFC
FFFFFFFFFC
FFFFFFFFFC
FFFFFFFFFC
FFFFFFFFFC
FFFFFFFFFC
FFFFFFFFFC
ENDCHAR
STARTCHAR 0115
ENCODING 277
SWIDTH 550 0
DWIDTH 55 0
BBX 45 70 5 -1
BITMAP
00FF800FF800
00FF800FF000
007FC01FF000
007FC01FF000
007FF07FF000
007FFFFFE000
003FFFFFE000
003FFFFFC000
001FFFFFC000
000FFFFF8000
0007FFFF0000
0001FFFC0000
00007FF00000
000000000000
000000000000
000000000000
000000000000
000000000000
000007C00000
0000FFFE0000
0007FFFFC000
001FFFFFF000
003FFFFFF800
007FFFFFFC00
01FFFFFFFE00
01FFFFFFFF00
03FFFFFFFF80
07FFF03FFFC0
0FFFC00FFFC0
0FFF0007FFE0
1FFE0003FFE0
1FFE0001FFF0
3FFC0000FFF0
3FFC0000FFF0
3FF80000FFF0
7FF800007FF8
7FF800007FF8
7FF000007FF8
7FF000007FF8
FFFFFFFFFFF8
FFFFFFFFFFF8
FFFFFFFFFFF8
FFFFFFFFFFF8
FFFFFFFFFFF8
FFFFFFFFFFF8
FFFFFFFFFFF8
FFFFFFFFFFF8
FFF000000000
FFF000000000
FFF000000000
FFF000000000
FFF800000000
7FF800000000
7FF800000000
7FFC00000000
7FFC00000000
3FFE00000000
3FFF00000000
1FFFC0000040
1FFFF00007C0
0FFFFF87FFC0
0FFFFFFFFFC0
07FFFFFFFFC0
03FFFFFFFFC0
01FFFFFFFFC0
00FFFFFFFFC0
003FFFFFFFC0
000FFFFFFFC0
0003FFFFFE00
00003FFF8000
ENDCHAR
STARTCHAR 0116
ENCODING 278
SWIDTH 550 0
DWIDTH 55 0
BBX 38 83 9 0
BITMAP
0001F80000
0003FE0000
0007FF0000
000FFF8000
000FFF8000
001FFFC000
001FFFC000
001FFFC000
001FFFC000
001FFFC000
000FFF8000
000FFF8000
0007FF0000
0001FC0000
0000000000
0000000000
0000000000
0000000000
0000000000
FFFFFFFFFC
FFFFFFFFFC
FFFFFFFFFC
FFFFFFFFFC
FFFFFFFFFC
FFFFFFFFFC
FFFFFFFFFC
FFFFFFFFFC
FFFFFFFFFC
FFFFFFFFFC
FFF0000000
FFF0000000
FFF0000000
FFF0000000
FFF0000000
FFF0000000
FFF0000000
FFF0000000
FFF0000000
FFF0000000
FFF0000000
FFF0000000
FFF0000000
FFF0000000
FFF0000000
FFF0000000
FFFFFFFFF8
FFFFFFFFF8
FFFFFFFFF8
FFFFFFFFF8
FFFFFFFFF8
FFFFFFFFF8
FFFFFFFFF8
FFFFFFFFF8
FFFFFFFFF8
FFFFFFFFF8
FFF0000000
FFF0000000
FFF0000000
FFF0000000
FFF0000000
FFF0000000
FFF0000000
FFF0000000
FFF0000000
FFF0000000
FFF0000000
FFF0000000
FFF0000000
FFF0000000
FFF0000000
FFF0000000
FFF0000000
FFF0000000
FFFFFFFFFC
FFFFFFFFFC
FFFFFFFFFC
FFFFFFFFFC
FFFFFFFFFC
FFFFFFFFFC
FFFFFFFFFC
FFFFFFFFFC
FFFFFFFFFC
FFFFFFFFFC
ENDCHAR
STARTCHAR 0117
ENCODING 279
SWIDTH 550 0
DWIDTH 55 0
BBX 45 72 5 -1
BITMAP
000007000000
00003FE00000
00007FF00000
0000FFF80000
0000FFF80000
0001FFFC0000
0001FFFC0000
0001FFFC0000
0001FFFC0000
0001FFFC0000
0001FFFC0000
0000FFF80000
00007FF80000
00003FF00000
00001FC00000
000000000000
000000000000
000000000000
000000000000
000000000000
000007C00000
0000FFFE0000
0007FFFFC000
001FFFFFF000
003FFFFFF800
007FFFFFFC00
01FFFFFFFE00
01FFFFFFFF00
03FFFFFFFF80
07FFF03FFFC0
0FFFC00FFFC0
0FFF0007FFE0
1FFE0003FFE0
1FFE0001FFF0
3FFC0000FFF0
3FFC0000FFF0
3FF80000FFF0
7FF800007FF8
7FF800007FF8
7FF000007FF8
7FF000007FF8
FFFFFFFFFFF8
FFFFFFFFFFF8
FFFFFFFFFFF8
FFFFFFFFFFF8
FFFFFFFFFFF8
FFFFFFFFFFF8
FFFFFFFFFFF8
FFFFFFFFFFF8
FFF000000000
FFF000000000
FFF000000000
FFF000000000
FFF800000000
7FF800000000
7FF800000000
7FFC00000000
7FFC00000000
3FFE00000000
3FFF00000000
1FFFC0000040
1FFFF00007C0
0FFFFF87FFC0
0FFFFFFFFFC0
07FFFFFFFFC0
03FFFFFFFFC0
01FFFFFFFFC0
00FFFFFFFFC0
003FFFFFFFC0
000FFFFFFFC0
0003FFFFFE00
00003FFF8000
ENDCHAR
STARTCHAR 0118
ENCODING 280
SWIDTH 550 0
DWIDTH 55 0
BBX 40 84 9 -20
BITMAP
FFFFFFFFFC
FFFFFFFFFC
FFFFFFFFFC
FFFFFFFFFC
FFFFFFFFFC
FFFFFFFFFC
FFFFFFFFFC
FFFFFFFFFC
FFFFFFFFFC
FFFFFFFFFC
FFF0000000
FFF0000000
FFF0000000
FFF0000000
FFF0000000
FFF0000000
FFF0000000
FFF0000000
FFF0000000
FFF0000000
FFF0000000
FFF0000000
FFF0000000
FFF0000000
FFF0000000
FFF0000000
FFFFFFFFF8
FFFFFFFFF8
FFFFFFFFF8
FFFFFFFFF8
FFFFFFFFF8
FFFFFFFFF8
FFFFFFFFF8
FFFFFFFFF8
FFFFFFFFF8
FFFFFFFFF8
FFF0000000
FFF0000000
FFF0000000
FFF0000000
FFF0000000
FFF0000000
FFF0000000
FFF0000000
FFF0000000
FFF0000000
FFF0000000
FFF0000000
FFF0000000
FFF0000000
FFF0000000
FFF0000000
FFF0000000
FFF0000000
FFFFFFFFFC
FFFFFFFFFC
FFFFFFFFFC
FFFFFFFFFC
FFFFFFFFFC
FFFFFFFFFC
FFFFFFFFFC
FFFFFFFFFC
FFFFFFFFFC
FFFFFFFFFC
0000000FFC
0000001FF8
0000003FF0
0000007FE0
000000FFE0
000001FFC0
000001FF80
000001FF80
000003FF80
000003FF80
000003FF80
000003FFC0
000003FFFF
000003FFFF
000001FFFF
000001FFFF
000000FFFF
0000007FFF
0000003FFF
00000003F8
ENDCHAR
STARTCHAR 0119
ENCODING 281
SWIDTH 550 0
DWIDTH 55 0
BBX 45 71 5 -20
BITMAP
000007C00000
0000FFFE0000
0007FFFFC000
001FFFFFF000
003FFFFFF800
007FFFFFFC00
01FFFFFFFE00
01FFFFFFFF00
03FFFFFFFF80
07FFF03FFFC0
0FFFC00FFFC0
0FFF0007FFE0
1FFE0003FFE0
1FFE0001FFF0
3FFC0000FFF0
3FFC0000FFF0
3FF80000FFF0
7FF800007FF8
7FF800007FF8
7FF000007FF8
7FF000007FF8
FFFFFFFFFFF8
FFFFFFFFFFF8
FFFFFFFFFFF8
FFFFFFFFFFF8
FFFFFFFFFFF8
FFFFFFFFFFF8
FFFFFFFFFFF8
FFFFFFFFFFF8
FFF000000000
FFF000000000
FFF000000000
FFF000000000
FFF800000000
7FF800000000
7FF800000000
7FFC00000000
7FFC00000000
3FFE00000000
3FFF00000000
1FFFC0000040
1FFFF00007C0
0FFFFF87FFC0
0FFFFFFFFFC0
07FFFFFFFFC0
03FFFFFFFFC0
01FFFFFFFFC0
00FFFFFFFFC0
003FFFFFFFC0
000FFFFFFFC0
0003FFFFFE00
00007FFFF000
000000FFE000
000001FFC000
000001FF8000
000003FF0000
000007FF0000
000007FE0000
00000FFE0000
00000FFE0000
00000FFE0000
00000FFE0000
00000FFF0000
00000FFFFC00
00000FFFFC00
000007FFFC00
000007FFFC00
000003FFFC00
000001FFFC00
000000FFFC00
0000001FE000
ENDCHAR
ENDFONT
